<svg xmlns="http://www.w3.org/2000/svg" width="900" height="560" font-family="DejaVu Sans, Liberation Sans, Arial, sans-serif" fill="black"><rect width="100%" height="100%" fill="white" /><g transform="translate(10,40)"><line x1="59" y1="196.5" x2="269.33" y2="196.5" stroke="#000000" stroke-width="1" /><line x1="59" y1="44" x2="59" y2="196.5" stroke="#000000" stroke-width="1" /><line x1="101.07000000000001" y1="44" x2="101.07000000000001" y2="196.5" stroke="#cccccc" stroke-width="1" /><line x1="143.13" y1="44" x2="143.13" y2="196.5" stroke="#cccccc" stroke-width="1" /><line x1="185.20000000000002" y1="44" x2="185.20000000000002" y2="196.5" stroke="#cccccc" stroke-width="1" /><line x1="227.27" y1="44" x2="227.27" y2="196.5" stroke="#cccccc" stroke-width="1" /><line x1="269.33" y1="44" x2="269.33" y2="196.5" stroke="#cccccc" stroke-width="1" /><line x1="59" y1="166" x2="269.33" y2="166" stroke="#cccccc" stroke-width="1" /><line x1="59" y1="135.5" x2="269.33" y2="135.5" stroke="#cccccc" stroke-width="1" /><line x1="59" y1="105" x2="269.33" y2="105" stroke="#cccccc" stroke-width="1" /><line x1="59" y1="74.5" x2="269.33" y2="74.5" stroke="#cccccc" stroke-width="1" /><line x1="59" y1="44" x2="269.33" y2="44" stroke="#cccccc" stroke-width="1" /><line x1="59" y1="196.5" x2="59" y2="201.5" stroke="#000000" stroke-width="1" /><text x="59" y="213.5" font-size="12" text-anchor="middle">0</text><line x1="101.07000000000001" y1="196.5" x2="101.07000000000001" y2="201.5" stroke="#000000" stroke-width="1" /><text x="101.07000000000001" y="213.5" font-size="12" text-anchor="middle">2</text><line x1="143.13" y1="196.5" x2="143.13" y2="201.5" stroke="#000000" stroke-width="1" /><text x="143.13" y="213.5" font-size="12" text-anchor="middle">4</text><line x1="185.20000000000002" y1="196.5" x2="185.20000000000002" y2="201.5" stroke="#000000" stroke-width="1" /><text x="185.20000000000002" y="213.5" font-size="12" text-anchor="middle">6</text><line x1="227.27" y1="196.5" x2="227.27" y2="201.5" stroke="#000000" stroke-width="1" /><text x="227.27" y="213.5" font-size="12" text-anchor="middle">8</text><line x1="269.33" y1="196.5" x2="269.33" y2="201.5" stroke="#000000" stroke-width="1" /><text x="269.33" y="213.5" font-size="12" text-anchor="middle">10</text><line x1="54" y1="196.5" x2="59" y2="196.5" stroke="#000000" stroke-width="1" /><text x="51" y="200.70000000000002" font-size="12" text-anchor="end">-2</text><line x1="54" y1="166" x2="59" y2="166" stroke="#000000" stroke-width="1" /><text x="51" y="170.20000000000002" font-size="12" text-anchor="end">0</text><line x1="54" y1="135.5" x2="59" y2="135.5" stroke="#000000" stroke-width="1" /><text x="51" y="139.70000000000002" font-size="12" text-anchor="end">2</text><line x1="54" y1="105" x2="59" y2="105" stroke="#000000" stroke-width="1" /><text x="51" y="109.2" font-size="12" text-anchor="end">4</text><line x1="54" y1="74.5" x2="59" y2="74.5" stroke="#000000" stroke-width="1" /><text x="51" y="78.7" font-size="12" text-anchor="end">6</text><line x1="54" y1="44" x2="59" y2="44" stroke="#000000" stroke-width="1" /><text x="51" y="48.2" font-size="12" text-anchor="end">8</text><text x="164.17000000000002" y="22" font-size="18" text-anchor="middle">Alpha</text><circle cx="59" cy="195.25" r="4.5" fill="#4682b4" /><circle cx="80.03" cy="173.05" r="4.5" fill="#4682b4" /><circle cx="101.07000000000001" cy="144.13" r="4.5" fill="#4682b4" /><circle cx="122.10000000000001" cy="114.33" r="4.5" fill="#4682b4" /><circle cx="143.13" cy="89.79" r="4.5" fill="#4682b4" /><circle cx="164.17000000000002" cy="74.82000000000001" r="4.5" fill="#4682b4" /><circle cx="185.20000000000002" cy="70.4" r="4.5" fill="#4682b4" /><circle cx="206.23000000000002" cy="73.8" r="4.5" fill="#4682b4" /><circle cx="227.27" cy="79.58" r="4.5" fill="#4682b4" /><circle cx="248.3" cy="81.45" r="4.5" fill="#4682b4" /></g><text x="18" y="58" font-size="16" text-anchor="start" font-weight="bold">A</text><g transform="translate(308.3333333333333,40)"><line x1="59" y1="196.5" x2="269.33" y2="196.5" stroke="#000000" stroke-width="1" /><line x1="59" y1="44" x2="59" y2="196.5" stroke="#000000" stroke-width="1" /><line x1="101.07000000000001" y1="44" x2="101.07000000000001" y2="196.5" stroke="#cccccc" stroke-width="1" /><line x1="143.13" y1="44" x2="143.13" y2="196.5" stroke="#cccccc" stroke-width="1" /><line x1="185.20000000000002" y1="44" x2="185.20000000000002" y2="196.5" stroke="#cccccc" stroke-width="1" /><line x1="227.27" y1="44" x2="227.27" y2="196.5" stroke="#cccccc" stroke-width="1" /><line x1="269.33" y1="44" x2="269.33" y2="196.5" stroke="#cccccc" stroke-width="1" /><line x1="59" y1="166" x2="269.33" y2="166" stroke="#cccccc" stroke-width="1" /><line x1="59" y1="135.5" x2="269.33" y2="135.5" stroke="#cccccc" stroke-width="1" /><line x1="59" y1="105" x2="269.33" y2="105" stroke="#cccccc" stroke-width="1" /><line x1="59" y1="74.5" x2="269.33" y2="74.5" stroke="#cccccc" stroke-width="1" /><line x1="59" y1="44" x2="269.33" y2="44" stroke="#cccccc" stroke-width="1" /><line x1="59" y1="196.5" x2="59" y2="201.5" stroke="#000000" stroke-width="1" /><text x="59" y="213.5" font-size="12" text-anchor="middle">0</text><line x1="101.07000000000001" y1="196.5" x2="101.07000000000001" y2="201.5" stroke="#000000" stroke-width="1" /><text x="101.07000000000001" y="213.5" font-size="12" text-anchor="middle">2</text><line x1="143.13" y1="196.5" x2="143.13" y2="201.5" stroke="#000000" stroke-width="1" /><text x="143.13" y="213.5" font-size="12" text-anchor="middle">4</text><line x1="185.20000000000002" y1="196.5" x2="185.20000000000002" y2="201.5" stroke="#000000" stroke-width="1" /><text x="185.20000000000002" y="213.5" font-size="12" text-anchor="middle">6</text><line x1="227.27" y1="196.5" x2="227.27" y2="201.5" stroke="#000000" stroke-width="1" /><text x="227.27" y="213.5" font-size="12" text-anchor="middle">8</text><line x1="269.33" y1="196.5" x2="269.33" y2="201.5" stroke="#000000" stroke-width="1" /><text x="269.33" y="213.5" font-size="12" text-anchor="middle">10</text><line x1="54" y1="196.5" x2="59" y2="196.5" stroke="#000000" stroke-width="1" /><text x="51" y="200.70000000000002" font-size="12" text-anchor="end">-2</text><line x1="54" y1="166" x2="59" y2="166" stroke="#000000" stroke-width="1" /><text x="51" y="170.20000000000002" font-size="12" text-anchor="end">0</text><line x1="54" y1="135.5" x2="59" y2="135.5" stroke="#000000" stroke-width="1" /><text x="51" y="139.70000000000002" font-size="12" text-anchor="end">2</text><line x1="54" y1="105" x2="59" y2="105" stroke="#000000" stroke-width="1" /><text x="51" y="109.2" font-size="12" text-anchor="end">4</text><line x1="54" y1="74.5" x2="59" y2="74.5" stroke="#000000" stroke-width="1" /><text x="51" y="78.7" font-size="12" text-anchor="end">6</text><line x1="54" y1="44" x2="59" y2="44" stroke="#000000" stroke-width="1" /><text x="51" y="48.2" font-size="12" text-anchor="end">8</text><text x="164.17000000000002" y="22" font-size="18" text-anchor="middle">Beta</text><circle cx="59" cy="189.08" r="4.5" fill="#dc143c" /><circle cx="80.03" cy="184.11" r="4.5" fill="#dc143c" /><circle cx="101.07000000000001" cy="168.55" r="4.5" fill="#dc143c" /><circle cx="122.10000000000001" cy="143.57" r="4.5" fill="#dc143c" /><circle cx="143.13" cy="113.65" r="4.5" fill="#dc143c" /><circle cx="164.17000000000002" cy="84.96000000000001" r="4.5" fill="#dc143c" /><circle cx="185.20000000000002" cy="63.28" r="4.5" fill="#dc143c" /><circle cx="206.23000000000002" cy="51.910000000000004" r="4.5" fill="#dc143c" /><circle cx="227.27" cy="50.56" r="4.5" fill="#dc143c" /><circle cx="248.3" cy="55.44" r="4.5" fill="#dc143c" /></g><text x="316.33" y="58" font-size="16" text-anchor="start" font-weight="bold">B</text><g transform="translate(606.6666666666666,40)"><line x1="59" y1="196.5" x2="269.33" y2="196.5" stroke="#000000" stroke-width="1" /><line x1="59" y1="44" x2="59" y2="196.5" stroke="#000000" stroke-width="1" /><line x1="101.07000000000001" y1="44" x2="101.07000000000001" y2="196.5" stroke="#cccccc" stroke-width="1" /><line x1="143.13" y1="44" x2="143.13" y2="196.5" stroke="#cccccc" stroke-width="1" /><line x1="185.20000000000002" y1="44" x2="185.20000000000002" y2="196.5" stroke="#cccccc" stroke-width="1" /><line x1="227.27" y1="44" x2="227.27" y2="196.5" stroke="#cccccc" stroke-width="1" /><line x1="269.33" y1="44" x2="269.33" y2="196.5" stroke="#cccccc" stroke-width="1" /><line x1="59" y1="166" x2="269.33" y2="166" stroke="#cccccc" stroke-width="1" /><line x1="59" y1="135.5" x2="269.33" y2="135.5" stroke="#cccccc" stroke-width="1" /><line x1="59" y1="105" x2="269.33" y2="105" stroke="#cccccc" stroke-width="1" /><line x1="59" y1="74.5" x2="269.33" y2="74.5" stroke="#cccccc" stroke-width="1" /><line x1="59" y1="44" x2="269.33" y2="44" stroke="#cccccc" stroke-width="1" /><line x1="59" y1="196.5" x2="59" y2="201.5" stroke="#000000" stroke-width="1" /><text x="59" y="213.5" font-size="12" text-anchor="middle">0</text><line x1="101.07000000000001" y1="196.5" x2="101.07000000000001" y2="201.5" stroke="#000000" stroke-width="1" /><text x="101.07000000000001" y="213.5" font-size="12" text-anchor="middle">2</text><line x1="143.13" y1="196.5" x2="143.13" y2="201.5" stroke="#000000" stroke-width="1" /><text x="143.13" y="213.5" font-size="12" text-anchor="middle">4</text><line x1="185.20000000000002" y1="196.5" x2="185.20000000000002" y2="201.5" stroke="#000000" stroke-width="1" /><text x="185.20000000000002" y="213.5" font-size="12" text-anchor="middle">6</text><line x1="227.27" y1="196.5" x2="227.27" y2="201.5" stroke="#000000" stroke-width="1" /><text x="227.27" y="213.5" font-size="12" text-anchor="middle">8</text><line x1="269.33" y1="196.5" x2="269.33" y2="201.5" stroke="#000000" stroke-width="1" /><text x="269.33" y="213.5" font-size="12" text-anchor="middle">10</text><line x1="54" y1="196.5" x2="59" y2="196.5" stroke="#000000" stroke-width="1" /><text x="51" y="200.70000000000002" font-size="12" text-anchor="end">-2</text><line x1="54" y1="166" x2="59" y2="166" stroke="#000000" stroke-width="1" /><text x="51" y="170.20000000000002" font-size="12" text-anchor="end">0</text><line x1="54" y1="135.5" x2="59" y2="135.5" stroke="#000000" stroke-width="1" /><text x="51" y="139.70000000000002" font-size="12" text-anchor="end">2</text><line x1="54" y1="105" x2="59" y2="105" stroke="#000000" stroke-width="1" /><text x="51" y="109.2" font-size="12" text-anchor="end">4</text><line x1="54" y1="74.5" x2="59" y2="74.5" stroke="#000000" stroke-width="1" /><text x="51" y="78.7" font-size="12" text-anchor="end">6</text><line x1="54" y1="44" x2="59" y2="44" stroke="#000000" stroke-width="1" /><text x="51" y="48.2" font-size="12" text-anchor="end">8</text><text x="164.17000000000002" y="22" font-size="18" text-anchor="middle">Gamma</text><circle cx="59" cy="195.25" r="4.5" fill="seagreen" /><circle cx="80.03" cy="173.05" r="4.5" fill="seagreen" /><circle cx="101.07000000000001" cy="144.13" r="4.5" fill="seagreen" /><circle cx="122.10000000000001" cy="114.33" r="4.5" fill="seagreen" /><circle cx="143.13" cy="89.79" r="4.5" fill="seagreen" /><circle cx="164.17000000000002" cy="74.82000000000001" r="4.5" fill="seagreen" /><circle cx="185.20000000000002" cy="70.4" r="4.5" fill="seagreen" /><circle cx="206.23000000000002" cy="73.8" r="4.5" fill="seagreen" /><circle cx="227.27" cy="79.58" r="4.5" fill="seagreen" /><circle cx="248.3" cy="81.45" r="4.5" fill="seagreen" /></g><text x="614.67" y="58" font-size="16" text-anchor="start" font-weight="bold">C</text><g transform="translate(10,302.5)"><line x1="59" y1="196.5" x2="269.33" y2="196.5" stroke="#000000" stroke-width="1" /><line x1="59" y1="44" x2="59" y2="196.5" stroke="#000000" stroke-width="1" /><line x1="101.07000000000001" y1="44" x2="101.07000000000001" y2="196.5" stroke="#cccccc" stroke-width="1" /><line x1="143.13" y1="44" x2="143.13" y2="196.5" stroke="#cccccc" stroke-width="1" /><line x1="185.20000000000002" y1="44" x2="185.20000000000002" y2="196.5" stroke="#cccccc" stroke-width="1" /><line x1="227.27" y1="44" x2="227.27" y2="196.5" stroke="#cccccc" stroke-width="1" /><line x1="269.33" y1="44" x2="269.33" y2="196.5" stroke="#cccccc" stroke-width="1" /><line x1="59" y1="166" x2="269.33" y2="166" stroke="#cccccc" stroke-width="1" /><line x1="59" y1="135.5" x2="269.33" y2="135.5" stroke="#cccccc" stroke-width="1" /><line x1="59" y1="105" x2="269.33" y2="105" stroke="#cccccc" stroke-width="1" /><line x1="59" y1="74.5" x2="269.33" y2="74.5" stroke="#cccccc" stroke-width="1" /><line x1="59" y1="44" x2="269.33" y2="44" stroke="#cccccc" stroke-width="1" /><line x1="59" y1="196.5" x2="59" y2="201.5" stroke="#000000" stroke-width="1" /><text x="59" y="213.5" font-size="12" text-anchor="middle">0</text><line x1="101.07000000000001" y1="196.5" x2="101.07000000000001" y2="201.5" stroke="#000000" stroke-width="1" /><text x="101.07000000000001" y="213.5" font-size="12" text-anchor="middle">2</text><line x1="143.13" y1="196.5" x2="143.13" y2="201.5" stroke="#000000" stroke-width="1" /><text x="143.13" y="213.5" font-size="12" text-anchor="middle">4</text><line x1="185.20000000000002" y1="196.5" x2="185.20000000000002" y2="201.5" stroke="#000000" stroke-width="1" /><text x="185.20000000000002" y="213.5" font-size="12" text-anchor="middle">6</text><line x1="227.27" y1="196.5" x2="227.27" y2="201.5" stroke="#000000" stroke-width="1" /><text x="227.27" y="213.5" font-size="12" text-anchor="middle">8</text><line x1="269.33" y1="196.5" x2="269.33" y2="201.5" stroke="#000000" stroke-width="1" /><text x="269.33" y="213.5" font-size="12" text-anchor="middle">10</text><line x1="54" y1="196.5" x2="59" y2="196.5" stroke="#000000" stroke-width="1" /><text x="51" y="200.70000000000002" font-size="12" text-anchor="end">-2</text><line x1="54" y1="166" x2="59" y2="166" stroke="#000000" stroke-width="1" /><text x="51" y="170.20000000000002" font-size="12" text-anchor="end">0</text><line x1="54" y1="135.5" x2="59" y2="135.5" stroke="#000000" stroke-width="1" /><text x="51" y="139.70000000000002" font-size="12" text-anchor="end">2</text><line x1="54" y1="105" x2="59" y2="105" stroke="#000000" stroke-width="1" /><text x="51" y="109.2" font-size="12" text-anchor="end">4</text><line x1="54" y1="74.5" x2="59" y2="74.5" stroke="#000000" stroke-width="1" /><text x="51" y="78.7" font-size="12" text-anchor="end">6</text><line x1="54" y1="44" x2="59" y2="44" stroke="#000000" stroke-width="1" /><text x="51" y="48.2" font-size="12" text-anchor="end">8</text><text x="164.17000000000002" y="22" font-size="18" text-anchor="middle">Delta</text><circle cx="59" cy="195.25" r="4.5" fill="#ff8c00" /><circle cx="80.03" cy="173.05" r="4.5" fill="#ff8c00" /><circle cx="101.07000000000001" cy="144.13" r="4.5" fill="#ff8c00" /><circle cx="122.10000000000001" cy="114.33" r="4.5" fill="#ff8c00" /><circle cx="143.13" cy="89.79" r="4.5" fill="#ff8c00" /><circle cx="164.17000000000002" cy="74.82000000000001" r="4.5" fill="#ff8c00" /><circle cx="185.20000000000002" cy="70.4" r="4.5" fill="#ff8c00" /><circle cx="206.23000000000002" cy="73.8" r="4.5" fill="#ff8c00" /><circle cx="227.27" cy="79.58" r="4.5" fill="#ff8c00" /><circle cx="248.3" cy="81.45" r="4.5" fill="#ff8c00" /></g><text x="18" y="320.5" font-size="16" text-anchor="start" font-weight="bold">D</text><g transform="translate(308.3333333333333,302.5)"><line x1="59" y1="196.5" x2="269.33" y2="196.5" stroke="#000000" stroke-width="1" /><line x1="59" y1="44" x2="59" y2="196.5" stroke="#000000" stroke-width="1" /><line x1="101.07000000000001" y1="44" x2="101.07000000000001" y2="196.5" stroke="#cccccc" stroke-width="1" /><line x1="143.13" y1="44" x2="143.13" y2="196.5" stroke="#cccccc" stroke-width="1" /><line x1="185.20000000000002" y1="44" x2="185.20000000000002" y2="196.5" stroke="#cccccc" stroke-width="1" /><line x1="227.27" y1="44" x2="227.27" y2="196.5" stroke="#cccccc" stroke-width="1" /><line x1="269.33" y1="44" x2="269.33" y2="196.5" stroke="#cccccc" stroke-width="1" /><line x1="59" y1="174.71" x2="269.33" y2="174.71" stroke="#cccccc" stroke-width="1" /><line x1="59" y1="152.93" x2="269.33" y2="152.93" stroke="#cccccc" stroke-width="1" /><line x1="59" y1="131.14000000000001" x2="269.33" y2="131.14000000000001" stroke="#cccccc" stroke-width="1" /><line x1="59" y1="109.36" x2="269.33" y2="109.36" stroke="#cccccc" stroke-width="1" /><line x1="59" y1="87.57000000000001" x2="269.33" y2="87.57000000000001" stroke="#cccccc" stroke-width="1" /><line x1="59" y1="65.79" x2="269.33" y2="65.79" stroke="#cccccc" stroke-width="1" /><line x1="59" y1="44" x2="269.33" y2="44" stroke="#cccccc" stroke-width="1" /><line x1="59" y1="196.5" x2="59" y2="201.5" stroke="#000000" stroke-width="1" /><text x="59" y="213.5" font-size="12" text-anchor="middle">0</text><line x1="101.07000000000001" y1="196.5" x2="101.07000000000001" y2="201.5" stroke="#000000" stroke-width="1" /><text x="101.07000000000001" y="213.5" font-size="12" text-anchor="middle">2</text><line x1="143.13" y1="196.5" x2="143.13" y2="201.5" stroke="#000000" stroke-width="1" /><text x="143.13" y="213.5" font-size="12" text-anchor="middle">4</text><line x1="185.20000000000002" y1="196.5" x2="185.20000000000002" y2="201.5" stroke="#000000" stroke-width="1" /><text x="185.20000000000002" y="213.5" font-size="12" text-anchor="middle">6</text><line x1="227.27" y1="196.5" x2="227.27" y2="201.5" stroke="#000000" stroke-width="1" /><text x="227.27" y="213.5" font-size="12" text-anchor="middle">8</text><line x1="269.33" y1="196.5" x2="269.33" y2="201.5" stroke="#000000" stroke-width="1" /><text x="269.33" y="213.5" font-size="12" text-anchor="middle">10</text><line x1="54" y1="196.5" x2="59" y2="196.5" stroke="#000000" stroke-width="1" /><text x="51" y="200.70000000000002" font-size="12" text-anchor="end">0</text><line x1="54" y1="174.71" x2="59" y2="174.71" stroke="#000000" stroke-width="1" /><text x="51" y="178.91" font-size="12" text-anchor="end">1</text><line x1="54" y1="152.93" x2="59" y2="152.93" stroke="#000000" stroke-width="1" /><text x="51" y="157.13" font-size="12" text-anchor="end">2</text><line x1="54" y1="131.14000000000001" x2="59" y2="131.14000000000001" stroke="#000000" stroke-width="1" /><text x="51" y="135.34" font-size="12" text-anchor="end">3</text><line x1="54" y1="109.36" x2="59" y2="109.36" stroke="#000000" stroke-width="1" /><text x="51" y="113.56" font-size="12" text-anchor="end">4</text><line x1="54" y1="87.57000000000001" x2="59" y2="87.57000000000001" stroke="#000000" stroke-width="1" /><text x="51" y="91.77" font-size="12" text-anchor="end">5</text><line x1="54" y1="65.79" x2="59" y2="65.79" stroke="#000000" stroke-width="1" /><text x="51" y="69.99" font-size="12" text-anchor="end">6</text><line x1="54" y1="44" x2="59" y2="44" stroke="#000000" stroke-width="1" /><text x="51" y="48.2" font-size="12" text-anchor="end">7</text><text x="164.17000000000002" y="22" font-size="18" text-anchor="middle">Epsilon</text><circle cx="59" cy="167.87" r="4.5" fill="mediumpurple" /><circle cx="80.03" cy="136.9" r="4.5" fill="mediumpurple" /><circle cx="101.07000000000001" cy="120.65" r="4.5" fill="mediumpurple" /><circle cx="122.10000000000001" cy="118.73" r="4.5" fill="mediumpurple" /><circle cx="143.13" cy="125.71000000000001" r="4.5" fill="mediumpurple" /><circle cx="164.17000000000002" cy="133.06" r="4.5" fill="mediumpurple" /><circle cx="185.20000000000002" cy="132.14000000000001" r="4.5" fill="mediumpurple" /><circle cx="206.23000000000002" cy="117.16" r="4.5" fill="mediumpurple" /><circle cx="227.27" cy="87.29" r="4.5" fill="mediumpurple" /><circle cx="248.3" cy="46.86" r="4.5" fill="mediumpurple" /></g><text x="316.33" y="320.5" font-size="16" text-anchor="start" font-weight="bold">E</text><g transform="translate(606.6666666666666,302.5)"><line x1="59" y1="196.5" x2="269.33" y2="196.5" stroke="#000000" stroke-width="1" /><line x1="59" y1="44" x2="59" y2="196.5" stroke="#000000" stroke-width="1" /><line x1="101.07000000000001" y1="44" x2="101.07000000000001" y2="196.5" stroke="#cccccc" stroke-width="1" /><line x1="143.13" y1="44" x2="143.13" y2="196.5" stroke="#cccccc" stroke-width="1" /><line x1="185.20000000000002" y1="44" x2="185.20000000000002" y2="196.5" stroke="#cccccc" stroke-width="1" /><line x1="227.27" y1="44" x2="227.27" y2="196.5" stroke="#cccccc" stroke-width="1" /><line x1="269.33" y1="44" x2="269.33" y2="196.5" stroke="#cccccc" stroke-width="1" /><line x1="59" y1="166" x2="269.33" y2="166" stroke="#cccccc" stroke-width="1" /><line x1="59" y1="135.5" x2="269.33" y2="135.5" stroke="#cccccc" stroke-width="1" /><line x1="59" y1="105" x2="269.33" y2="105" stroke="#cccccc" stroke-width="1" /><line x1="59" y1="74.5" x2="269.33" y2="74.5" stroke="#cccccc" stroke-width="1" /><line x1="59" y1="44" x2="269.33" y2="44" stroke="#cccccc" stroke-width="1" /><line x1="59" y1="196.5" x2="59" y2="201.5" stroke="#000000" stroke-width="1" /><text x="59" y="213.5" font-size="12" text-anchor="middle">0</text><line x1="101.07000000000001" y1="196.5" x2="101.07000000000001" y2="201.5" stroke="#000000" stroke-width="1" /><text x="101.07000000000001" y="213.5" font-size="12" text-anchor="middle">2</text><line x1="143.13" y1="196.5" x2="143.13" y2="201.5" stroke="#000000" stroke-width="1" /><text x="143.13" y="213.5" font-size="12" text-anchor="middle">4</text><line x1="185.20000000000002" y1="196.5" x2="185.20000000000002" y2="201.5" stroke="#000000" stroke-width="1" /><text x="185.20000000000002" y="213.5" font-size="12" text-anchor="middle">6</text><line x1="227.27" y1="196.5" x2="227.27" y2="201.5" stroke="#000000" stroke-width="1" /><text x="227.27" y="213.5" font-size="12" text-anchor="middle">8</text><line x1="269.33" y1="196.5" x2="269.33" y2="201.5" stroke="#000000" stroke-width="1" /><text x="269.33" y="213.5" font-size="12" text-anchor="middle">10</text><line x1="54" y1="196.5" x2="59" y2="196.5" stroke="#000000" stroke-width="1" /><text x="51" y="200.70000000000002" font-size="12" text-anchor="end">-2</text><line x1="54" y1="166" x2="59" y2="166" stroke="#000000" stroke-width="1" /><text x="51" y="170.20000000000002" font-size="12" text-anchor="end">0</text><line x1="54" y1="135.5" x2="59" y2="135.5" stroke="#000000" stroke-width="1" /><text x="51" y="139.70000000000002" font-size="12" text-anchor="end">2</text><line x1="54" y1="105" x2="59" y2="105" stroke="#000000" stroke-width="1" /><text x="51" y="109.2" font-size="12" text-anchor="end">4</text><line x1="54" y1="74.5" x2="59" y2="74.5" stroke="#000000" stroke-width="1" /><text x="51" y="78.7" font-size="12" text-anchor="end">6</text><line x1="54" y1="44" x2="59" y2="44" stroke="#000000" stroke-width="1" /><text x="51" y="48.2" font-size="12" text-anchor="end">8</text><text x="164.17000000000002" y="22" font-size="18" text-anchor="middle">Zeta</text><circle cx="59" cy="189.08" r="4.5" fill="#008080" /><circle cx="80.03" cy="184.11" r="4.5" fill="#008080" /><circle cx="101.07000000000001" cy="168.55" r="4.5" fill="#008080" /><circle cx="122.10000000000001" cy="143.57" r="4.5" fill="#008080" /><circle cx="143.13" cy="113.65" r="4.5" fill="#008080" /><circle cx="164.17000000000002" cy="84.96000000000001" r="4.5" fill="#008080" /><circle cx="185.20000000000002" cy="63.28" r="4.5" fill="#008080" /><circle cx="206.23000000000002" cy="51.910000000000004" r="4.5" fill="#008080" /><circle cx="227.27" cy="50.56" r="4.5" fill="#008080" /><circle cx="248.3" cy="55.44" r="4.5" fill="#008080" /></g><text x="614.67" y="320.5" font-size="16" text-anchor="start" font-weight="bold">F</text><text x="450" y="22" font-size="20" text-anchor="middle">Fixed 900 × 560 figure — cells auto-sized</text></svg>