<svg xmlns="http://www.w3.org/2000/svg" width="1190" height="635" font-family="DejaVu Sans, Liberation Sans, Arial, sans-serif" fill="black"><rect width="100%" height="100%" fill="white" /><g transform="translate(10,10)"><line x1="59" y1="249" x2="263" y2="249" stroke="#000000" stroke-width="1" /><line x1="59" y1="44" x2="59" y2="249" stroke="#000000" stroke-width="1" /><line x1="101.5" y1="44" x2="101.5" y2="249" stroke="#cccccc" stroke-width="1" /><line x1="144" y1="44" x2="144" y2="249" stroke="#cccccc" stroke-width="1" /><line x1="186.5" y1="44" x2="186.5" y2="249" stroke="#cccccc" stroke-width="1" /><line x1="229" y1="44" x2="229" y2="249" stroke="#cccccc" stroke-width="1" /><line x1="59" y1="208" x2="263" y2="208" stroke="#cccccc" stroke-width="1" /><line x1="59" y1="167" x2="263" y2="167" stroke="#cccccc" stroke-width="1" /><line x1="59" y1="126" x2="263" y2="126" stroke="#cccccc" stroke-width="1" /><line x1="59" y1="85" x2="263" y2="85" stroke="#cccccc" stroke-width="1" /><line x1="59" y1="44" x2="263" y2="44" stroke="#cccccc" stroke-width="1" /><line x1="59" y1="249" x2="59" y2="254" stroke="#000000" stroke-width="1" /><text x="59" y="266" font-size="12" text-anchor="middle">0</text><line x1="101.5" y1="249" x2="101.5" y2="254" stroke="#000000" stroke-width="1" /><text x="101.5" y="266" font-size="12" text-anchor="middle">2.5</text><line x1="144" y1="249" x2="144" y2="254" stroke="#000000" stroke-width="1" /><text x="144" y="266" font-size="12" text-anchor="middle">5</text><line x1="186.5" y1="249" x2="186.5" y2="254" stroke="#000000" stroke-width="1" /><text x="186.5" y="266" font-size="12" text-anchor="middle">7.5</text><line x1="229" y1="249" x2="229" y2="254" stroke="#000000" stroke-width="1" /><text x="229" y="266" font-size="12" text-anchor="middle">10</text><line x1="54" y1="249" x2="59" y2="249" stroke="#000000" stroke-width="1" /><text x="51" y="253.20000000000002" font-size="12" text-anchor="end">0</text><line x1="54" y1="208" x2="59" y2="208" stroke="#000000" stroke-width="1" /><text x="51" y="212.20000000000002" font-size="12" text-anchor="end">2.5</text><line x1="54" y1="167" x2="59" y2="167" stroke="#000000" stroke-width="1" /><text x="51" y="171.20000000000002" font-size="12" text-anchor="end">5</text><line x1="54" y1="126" x2="59" y2="126" stroke="#000000" stroke-width="1" /><text x="51" y="130.2" font-size="12" text-anchor="end">7.5</text><line x1="54" y1="85" x2="59" y2="85" stroke="#000000" stroke-width="1" /><text x="51" y="89.2" font-size="12" text-anchor="end">10</text><line x1="54" y1="44" x2="59" y2="44" stroke="#000000" stroke-width="1" /><text x="51" y="48.2" font-size="12" text-anchor="end">12.5</text><text x="161" y="22" font-size="18" text-anchor="middle">Sample A</text><path d="M 59.0 249.0 L 76.0 213.11 L 93.0 187.16 L 110.0 176.41 L 127.0 178.97 L 144.0 186.71 L 161.0 189.03 L 178.0 177.9 L 195.0 151.63 L 212.0 115.61 L 229.0 79.85000000000001 L 246.0 54.230000000000004 " stroke="#4682b4" stroke-width="2" fill="none" /><rect x="268" y="34" width="103" height="38" fill="#ffffff" /><rect x="268" y="34" width="103" height="38" fill="none" stroke="#000000" stroke-width="1" /><text x="298" y="53.2" font-size="12" text-anchor="start">Sample A</text><line x1="278" y1="49" x2="290" y2="49" stroke="#4682b4" stroke-width="2" /></g><text x="18" y="28" font-size="16" text-anchor="start" font-weight="bold">A</text><g transform="translate(405,10)"><line x1="59" y1="249" x2="263" y2="249" stroke="#000000" stroke-width="1" /><line x1="59" y1="44" x2="59" y2="249" stroke="#000000" stroke-width="1" /><line x1="101.5" y1="44" x2="101.5" y2="249" stroke="#cccccc" stroke-width="1" /><line x1="144" y1="44" x2="144" y2="249" stroke="#cccccc" stroke-width="1" /><line x1="186.5" y1="44" x2="186.5" y2="249" stroke="#cccccc" stroke-width="1" /><line x1="229" y1="44" x2="229" y2="249" stroke="#cccccc" stroke-width="1" /><line x1="59" y1="208" x2="263" y2="208" stroke="#cccccc" stroke-width="1" /><line x1="59" y1="167" x2="263" y2="167" stroke="#cccccc" stroke-width="1" /><line x1="59" y1="126" x2="263" y2="126" stroke="#cccccc" stroke-width="1" /><line x1="59" y1="85" x2="263" y2="85" stroke="#cccccc" stroke-width="1" /><line x1="59" y1="44" x2="263" y2="44" stroke="#cccccc" stroke-width="1" /><line x1="59" y1="249" x2="59" y2="254" stroke="#000000" stroke-width="1" /><text x="59" y="266" font-size="12" text-anchor="middle">0</text><line x1="101.5" y1="249" x2="101.5" y2="254" stroke="#000000" stroke-width="1" /><text x="101.5" y="266" font-size="12" text-anchor="middle">2.5</text><line x1="144" y1="249" x2="144" y2="254" stroke="#000000" stroke-width="1" /><text x="144" y="266" font-size="12" text-anchor="middle">5</text><line x1="186.5" y1="249" x2="186.5" y2="254" stroke="#000000" stroke-width="1" /><text x="186.5" y="266" font-size="12" text-anchor="middle">7.5</text><line x1="229" y1="249" x2="229" y2="254" stroke="#000000" stroke-width="1" /><text x="229" y="266" font-size="12" text-anchor="middle">10</text><line x1="54" y1="249" x2="59" y2="249" stroke="#000000" stroke-width="1" /><text x="51" y="253.20000000000002" font-size="12" text-anchor="end">0</text><line x1="54" y1="208" x2="59" y2="208" stroke="#000000" stroke-width="1" /><text x="51" y="212.20000000000002" font-size="12" text-anchor="end">2.5</text><line x1="54" y1="167" x2="59" y2="167" stroke="#000000" stroke-width="1" /><text x="51" y="171.20000000000002" font-size="12" text-anchor="end">5</text><line x1="54" y1="126" x2="59" y2="126" stroke="#000000" stroke-width="1" /><text x="51" y="130.2" font-size="12" text-anchor="end">7.5</text><line x1="54" y1="85" x2="59" y2="85" stroke="#000000" stroke-width="1" /><text x="51" y="89.2" font-size="12" text-anchor="end">10</text><line x1="54" y1="44" x2="59" y2="44" stroke="#000000" stroke-width="1" /><text x="51" y="48.2" font-size="12" text-anchor="end">12.5</text><text x="161" y="22" font-size="18" text-anchor="middle">Sample B</text><path d="M 59.0 249.0 L 76.0 213.11 L 93.0 187.16 L 110.0 176.41 L 127.0 178.97 L 144.0 186.71 L 161.0 189.03 L 178.0 177.9 L 195.0 151.63 L 212.0 115.61 L 229.0 79.85000000000001 L 246.0 54.230000000000004 " stroke="#dc143c" stroke-width="2" fill="none" /><rect x="268" y="34" width="103" height="38" fill="#ffffff" /><rect x="268" y="34" width="103" height="38" fill="none" stroke="#000000" stroke-width="1" /><text x="298" y="53.2" font-size="12" text-anchor="start">Sample B</text><line x1="278" y1="49" x2="290" y2="49" stroke="#dc143c" stroke-width="2" /></g><text x="413" y="28" font-size="16" text-anchor="start" font-weight="bold">B</text><g transform="translate(800,10)"><line x1="59" y1="249" x2="263" y2="249" stroke="#000000" stroke-width="1" /><line x1="59" y1="44" x2="59" y2="249" stroke="#000000" stroke-width="1" /><line x1="101.5" y1="44" x2="101.5" y2="249" stroke="#cccccc" stroke-width="1" /><line x1="144" y1="44" x2="144" y2="249" stroke="#cccccc" stroke-width="1" /><line x1="186.5" y1="44" x2="186.5" y2="249" stroke="#cccccc" stroke-width="1" /><line x1="229" y1="44" x2="229" y2="249" stroke="#cccccc" stroke-width="1" /><line x1="59" y1="208" x2="263" y2="208" stroke="#cccccc" stroke-width="1" /><line x1="59" y1="167" x2="263" y2="167" stroke="#cccccc" stroke-width="1" /><line x1="59" y1="126" x2="263" y2="126" stroke="#cccccc" stroke-width="1" /><line x1="59" y1="85" x2="263" y2="85" stroke="#cccccc" stroke-width="1" /><line x1="59" y1="44" x2="263" y2="44" stroke="#cccccc" stroke-width="1" /><line x1="59" y1="249" x2="59" y2="254" stroke="#000000" stroke-width="1" /><text x="59" y="266" font-size="12" text-anchor="middle">0</text><line x1="101.5" y1="249" x2="101.5" y2="254" stroke="#000000" stroke-width="1" /><text x="101.5" y="266" font-size="12" text-anchor="middle">2.5</text><line x1="144" y1="249" x2="144" y2="254" stroke="#000000" stroke-width="1" /><text x="144" y="266" font-size="12" text-anchor="middle">5</text><line x1="186.5" y1="249" x2="186.5" y2="254" stroke="#000000" stroke-width="1" /><text x="186.5" y="266" font-size="12" text-anchor="middle">7.5</text><line x1="229" y1="249" x2="229" y2="254" stroke="#000000" stroke-width="1" /><text x="229" y="266" font-size="12" text-anchor="middle">10</text><line x1="54" y1="249" x2="59" y2="249" stroke="#000000" stroke-width="1" /><text x="51" y="253.20000000000002" font-size="12" text-anchor="end">0</text><line x1="54" y1="208" x2="59" y2="208" stroke="#000000" stroke-width="1" /><text x="51" y="212.20000000000002" font-size="12" text-anchor="end">2.5</text><line x1="54" y1="167" x2="59" y2="167" stroke="#000000" stroke-width="1" /><text x="51" y="171.20000000000002" font-size="12" text-anchor="end">5</text><line x1="54" y1="126" x2="59" y2="126" stroke="#000000" stroke-width="1" /><text x="51" y="130.2" font-size="12" text-anchor="end">7.5</text><line x1="54" y1="85" x2="59" y2="85" stroke="#000000" stroke-width="1" /><text x="51" y="89.2" font-size="12" text-anchor="end">10</text><line x1="54" y1="44" x2="59" y2="44" stroke="#000000" stroke-width="1" /><text x="51" y="48.2" font-size="12" text-anchor="end">12.5</text><text x="161" y="22" font-size="18" text-anchor="middle">Sample C</text><path d="M 59.0 249.0 L 76.0 213.11 L 93.0 187.16 L 110.0 176.41 L 127.0 178.97 L 144.0 186.71 L 161.0 189.03 L 178.0 177.9 L 195.0 151.63 L 212.0 115.61 L 229.0 79.85000000000001 L 246.0 54.230000000000004 " stroke="seagreen" stroke-width="2" fill="none" /><rect x="268" y="34" width="103" height="38" fill="#ffffff" /><rect x="268" y="34" width="103" height="38" fill="none" stroke="#000000" stroke-width="1" /><text x="298" y="53.2" font-size="12" text-anchor="start">Sample C</text><line x1="278" y1="49" x2="290" y2="49" stroke="seagreen" stroke-width="2" /></g><text x="808" y="28" font-size="16" text-anchor="start" font-weight="bold">C</text><g transform="translate(10,325)"><line x1="59" y1="249" x2="1156" y2="249" stroke="#000000" stroke-width="1" /><line x1="59" y1="44" x2="59" y2="249" stroke="#000000" stroke-width="1" /><line x1="278.40000000000003" y1="44" x2="278.40000000000003" y2="249" stroke="#cccccc" stroke-width="1" /><line x1="497.8" y1="44" x2="497.8" y2="249" stroke="#cccccc" stroke-width="1" /><line x1="717.2" y1="44" x2="717.2" y2="249" stroke="#cccccc" stroke-width="1" /><line x1="936.6" y1="44" x2="936.6" y2="249" stroke="#cccccc" stroke-width="1" /><line x1="1156" y1="44" x2="1156" y2="249" stroke="#cccccc" stroke-width="1" /><line x1="59" y1="214.83" x2="1156" y2="214.83" stroke="#cccccc" stroke-width="1" /><line x1="59" y1="180.67000000000002" x2="1156" y2="180.67000000000002" stroke="#cccccc" stroke-width="1" /><line x1="59" y1="146.5" x2="1156" y2="146.5" stroke="#cccccc" stroke-width="1" /><line x1="59" y1="112.33" x2="1156" y2="112.33" stroke="#cccccc" stroke-width="1" /><line x1="59" y1="78.17" x2="1156" y2="78.17" stroke="#cccccc" stroke-width="1" /><line x1="59" y1="44" x2="1156" y2="44" stroke="#cccccc" stroke-width="1" /><line x1="59" y1="249" x2="59" y2="254" stroke="#000000" stroke-width="1" /><text x="59" y="266" font-size="12" text-anchor="middle">0</text><line x1="278.40000000000003" y1="249" x2="278.40000000000003" y2="254" stroke="#000000" stroke-width="1" /><text x="278.40000000000003" y="266" font-size="12" text-anchor="middle">2</text><line x1="497.8" y1="249" x2="497.8" y2="254" stroke="#000000" stroke-width="1" /><text x="497.8" y="266" font-size="12" text-anchor="middle">4</text><line x1="717.2" y1="249" x2="717.2" y2="254" stroke="#000000" stroke-width="1" /><text x="717.2" y="266" font-size="12" text-anchor="middle">6</text><line x1="936.6" y1="249" x2="936.6" y2="254" stroke="#000000" stroke-width="1" /><text x="936.6" y="266" font-size="12" text-anchor="middle">8</text><line x1="1156" y1="249" x2="1156" y2="254" stroke="#000000" stroke-width="1" /><text x="1156" y="266" font-size="12" text-anchor="middle">10</text><line x1="54" y1="249" x2="59" y2="249" stroke="#000000" stroke-width="1" /><text x="51" y="253.20000000000002" font-size="12" text-anchor="end">-1</text><line x1="54" y1="214.83" x2="59" y2="214.83" stroke="#000000" stroke-width="1" /><text x="51" y="219.03" font-size="12" text-anchor="end">0</text><line x1="54" y1="180.67000000000002" x2="59" y2="180.67000000000002" stroke="#000000" stroke-width="1" /><text x="51" y="184.87" font-size="12" text-anchor="end">1</text><line x1="54" y1="146.5" x2="59" y2="146.5" stroke="#000000" stroke-width="1" /><text x="51" y="150.70000000000002" font-size="12" text-anchor="end">2</text><line x1="54" y1="112.33" x2="59" y2="112.33" stroke="#000000" stroke-width="1" /><text x="51" y="116.53" font-size="12" text-anchor="end">3</text><line x1="54" y1="78.17" x2="59" y2="78.17" stroke="#000000" stroke-width="1" /><text x="51" y="82.37" font-size="12" text-anchor="end">4</text><line x1="54" y1="44" x2="59" y2="44" stroke="#000000" stroke-width="1" /><text x="51" y="48.2" font-size="12" text-anchor="end">5</text><text x="607.5" y="293" font-size="14" text-anchor="middle">Time</text><text x="15" y="150" font-size="14" text-anchor="middle" transform="rotate(-90,15,150)">Value</text><text x="607.5" y="22" font-size="18" text-anchor="middle">Combined</text><path d="M 59.0 214.83 L 86.43 199.49 L 113.85000000000001 184.35 L 141.28 169.6 L 168.70000000000002 155.44 L 196.13 142.05 L 223.55 129.59 L 250.98000000000002 118.22 L 278.40000000000003 108.08 L 305.83 99.29 L 333.25 91.94 L 360.68 86.10000000000001 L 388.1 81.84 L 415.53000000000003 79.17 L 442.95 78.10000000000001 L 470.38 78.60000000000001 L 497.8 80.63 L 525.23 84.11 L 552.65 88.96000000000001 L 580.08 95.04 L 607.5 102.24000000000001 L 634.9300000000001 110.39 L 662.35 119.34 L 689.78 128.89000000000001 L 717.2 138.87 L 744.63 149.07 L 772.0500000000001 159.3 L 799.48 169.35 L 826.9 179.04 L 854.33 188.16 L 881.75 196.54 L 909.1800000000001 204.01 L 936.6 210.41 L 964.03 215.59 L 991.45 219.44 L 1018.88 221.87 L 1046.3 222.78 L 1073.72 222.13 L 1101.15 219.89000000000001 L 1128.58 216.04 " stroke="#ff8c00" stroke-width="2" fill="none" /></g><text x="18" y="343" font-size="16" text-anchor="start" font-weight="bold">D</text></svg>