<svg xmlns="http://www.w3.org/2000/svg" width="993" height="360" font-family="DejaVu Sans, Liberation Sans, Arial, sans-serif" fill="black"><rect width="100%" height="100%" fill="white" /><g transform="translate(10,10)"><line x1="59" y1="289" x2="406" y2="289" stroke="#000000" stroke-width="1" /><line x1="59" y1="44" x2="59" y2="289" stroke="#000000" stroke-width="1" /><line x1="145.75" y1="44" x2="145.75" y2="289" stroke="#cccccc" stroke-width="1" /><line x1="232.5" y1="44" x2="232.5" y2="289" stroke="#cccccc" stroke-width="1" /><line x1="319.25" y1="44" x2="319.25" y2="289" stroke="#cccccc" stroke-width="1" /><line x1="406" y1="44" x2="406" y2="289" stroke="#cccccc" stroke-width="1" /><line x1="59" y1="237.96" x2="406" y2="237.96" stroke="#cccccc" stroke-width="1" /><line x1="59" y1="186.92000000000002" x2="406" y2="186.92000000000002" stroke="#cccccc" stroke-width="1" /><line x1="59" y1="135.88" x2="406" y2="135.88" stroke="#cccccc" stroke-width="1" /><line x1="59" y1="84.83" x2="406" y2="84.83" stroke="#cccccc" stroke-width="1" /><line x1="59" y1="289" x2="59" y2="294" stroke="#000000" stroke-width="1" /><text x="59" y="306" font-size="12" text-anchor="middle">0</text><line x1="145.75" y1="289" x2="145.75" y2="294" stroke="#000000" stroke-width="1" /><text x="145.75" y="306" font-size="12" text-anchor="middle">2</text><line x1="232.5" y1="289" x2="232.5" y2="294" stroke="#000000" stroke-width="1" /><text x="232.5" y="306" font-size="12" text-anchor="middle">4</text><line x1="319.25" y1="289" x2="319.25" y2="294" stroke="#000000" stroke-width="1" /><text x="319.25" y="306" font-size="12" text-anchor="middle">6</text><line x1="406" y1="289" x2="406" y2="294" stroke="#000000" stroke-width="1" /><text x="406" y="306" font-size="12" text-anchor="middle">8</text><line x1="54" y1="289" x2="59" y2="289" stroke="#000000" stroke-width="1" /><text x="51" y="293.2" font-size="12" text-anchor="end">0</text><line x1="54" y1="237.96" x2="59" y2="237.96" stroke="#000000" stroke-width="1" /><text x="51" y="242.16" font-size="12" text-anchor="end">2.5</text><line x1="54" y1="186.92000000000002" x2="59" y2="186.92000000000002" stroke="#000000" stroke-width="1" /><text x="51" y="191.12" font-size="12" text-anchor="end">5</text><line x1="54" y1="135.88" x2="59" y2="135.88" stroke="#000000" stroke-width="1" /><text x="51" y="140.07" font-size="12" text-anchor="end">7.5</text><line x1="54" y1="84.83" x2="59" y2="84.83" stroke="#000000" stroke-width="1" /><text x="51" y="89.03" font-size="12" text-anchor="end">10</text><text x="232.5" y="333" font-size="14" text-anchor="middle">Time</text><text x="15" y="170" font-size="14" text-anchor="middle" transform="rotate(-90,15,170)">Response</text><text x="232.5" y="22" font-size="18" text-anchor="middle">Experiment 1</text><circle cx="59" cy="268.58" r="4.5" fill="#4682b4" /><circle cx="102.38" cy="250.21" r="4.5" fill="#4682b4" /><circle cx="145.75" cy="231.83" r="4.5" fill="#4682b4" /><circle cx="189.13" cy="213.46" r="4.5" fill="#4682b4" /><circle cx="232.5" cy="195.08" r="4.5" fill="#4682b4" /><circle cx="275.88" cy="176.71" r="4.5" fill="#4682b4" /><circle cx="319.25" cy="158.33" r="4.5" fill="#4682b4" /><circle cx="362.63" cy="139.96" r="4.5" fill="#4682b4" /><circle cx="59" cy="278.79" r="4.5" fill="#dc143c" /><circle cx="102.38" cy="250.21" r="4.5" fill="#dc143c" /><circle cx="145.75" cy="221.63" r="4.5" fill="#dc143c" /><circle cx="189.13" cy="193.04" r="4.5" fill="#dc143c" /><circle cx="232.5" cy="164.46" r="4.5" fill="#dc143c" /><circle cx="275.88" cy="135.88" r="4.5" fill="#dc143c" /><circle cx="319.25" cy="107.29" r="4.5" fill="#dc143c" /><circle cx="362.63" cy="78.71000000000001" r="4.5" fill="#dc143c" /></g><g transform="translate(445,10)"><line x1="59" y1="289" x2="406" y2="289" stroke="#000000" stroke-width="1" /><line x1="59" y1="44" x2="59" y2="289" stroke="#000000" stroke-width="1" /><line x1="145.75" y1="44" x2="145.75" y2="289" stroke="#cccccc" stroke-width="1" /><line x1="232.5" y1="44" x2="232.5" y2="289" stroke="#cccccc" stroke-width="1" /><line x1="319.25" y1="44" x2="319.25" y2="289" stroke="#cccccc" stroke-width="1" /><line x1="406" y1="44" x2="406" y2="289" stroke="#cccccc" stroke-width="1" /><line x1="59" y1="237.96" x2="406" y2="237.96" stroke="#cccccc" stroke-width="1" /><line x1="59" y1="186.92000000000002" x2="406" y2="186.92000000000002" stroke="#cccccc" stroke-width="1" /><line x1="59" y1="135.88" x2="406" y2="135.88" stroke="#cccccc" stroke-width="1" /><line x1="59" y1="84.83" x2="406" y2="84.83" stroke="#cccccc" stroke-width="1" /><line x1="59" y1="289" x2="59" y2="294" stroke="#000000" stroke-width="1" /><text x="59" y="306" font-size="12" text-anchor="middle">0</text><line x1="145.75" y1="289" x2="145.75" y2="294" stroke="#000000" stroke-width="1" /><text x="145.75" y="306" font-size="12" text-anchor="middle">2</text><line x1="232.5" y1="289" x2="232.5" y2="294" stroke="#000000" stroke-width="1" /><text x="232.5" y="306" font-size="12" text-anchor="middle">4</text><line x1="319.25" y1="289" x2="319.25" y2="294" stroke="#000000" stroke-width="1" /><text x="319.25" y="306" font-size="12" text-anchor="middle">6</text><line x1="406" y1="289" x2="406" y2="294" stroke="#000000" stroke-width="1" /><text x="406" y="306" font-size="12" text-anchor="middle">8</text><line x1="54" y1="289" x2="59" y2="289" stroke="#000000" stroke-width="1" /><text x="51" y="293.2" font-size="12" text-anchor="end">0</text><line x1="54" y1="237.96" x2="59" y2="237.96" stroke="#000000" stroke-width="1" /><text x="51" y="242.16" font-size="12" text-anchor="end">2.5</text><line x1="54" y1="186.92000000000002" x2="59" y2="186.92000000000002" stroke="#000000" stroke-width="1" /><text x="51" y="191.12" font-size="12" text-anchor="end">5</text><line x1="54" y1="135.88" x2="59" y2="135.88" stroke="#000000" stroke-width="1" /><text x="51" y="140.07" font-size="12" text-anchor="end">7.5</text><line x1="54" y1="84.83" x2="59" y2="84.83" stroke="#000000" stroke-width="1" /><text x="51" y="89.03" font-size="12" text-anchor="end">10</text><text x="232.5" y="333" font-size="14" text-anchor="middle">Time</text><text x="232.5" y="22" font-size="18" text-anchor="middle">Experiment 2</text><circle cx="80.69" cy="259.4" r="4.5" fill="#4682b4" /><circle cx="124.06" cy="241.02" r="4.5" fill="#4682b4" /><circle cx="167.44" cy="222.65" r="4.5" fill="#4682b4" /><circle cx="210.81" cy="204.27" r="4.5" fill="#4682b4" /><circle cx="254.19" cy="185.9" r="4.5" fill="#4682b4" /><circle cx="297.56" cy="167.52" r="4.5" fill="#4682b4" /><circle cx="340.94" cy="149.15" r="4.5" fill="#4682b4" /><circle cx="384.31" cy="130.77" r="4.5" fill="#4682b4" /><circle cx="80.69" cy="264.5" r="4.5" fill="#dc143c" /><circle cx="124.06" cy="235.92000000000002" r="4.5" fill="#dc143c" /><circle cx="167.44" cy="207.33" r="4.5" fill="#dc143c" /><circle cx="210.81" cy="178.75" r="4.5" fill="#dc143c" /><circle cx="254.19" cy="150.17000000000002" r="4.5" fill="#dc143c" /><circle cx="297.56" cy="121.58" r="4.5" fill="#dc143c" /><circle cx="340.94" cy="93" r="4.5" fill="#dc143c" /><circle cx="384.31" cy="64.42" r="4.5" fill="#dc143c" /></g><rect x="880" y="152" width="98" height="56" fill="#ffffff" /><rect x="880" y="152" width="98" height="56" fill="none" stroke="#000000" stroke-width="1" /><text x="910" y="171.20000000000002" font-size="12" text-anchor="start">Control</text><circle cx="896" cy="167" r="5" fill="#4682b4" /><text x="910" y="189.20000000000002" font-size="12" text-anchor="start">Treatment</text><circle cx="896" cy="185" r="5" fill="#dc143c" /></svg>