<svg xmlns="http://www.w3.org/2000/svg" width="875" height="675" font-family="DejaVu Sans, Liberation Sans, Arial, sans-serif" fill="black"><rect width="100%" height="100%" fill="white" /><g transform="translate(10,10)"><line x1="59" y1="604" x2="406" y2="604" stroke="#000000" stroke-width="1" /><line x1="59" y1="44" x2="59" y2="604" stroke="#000000" stroke-width="1" /><line x1="128.4" y1="44" x2="128.4" y2="604" stroke="#cccccc" stroke-width="1" /><line x1="197.8" y1="44" x2="197.8" y2="604" stroke="#cccccc" stroke-width="1" /><line x1="267.2" y1="44" x2="267.2" y2="604" stroke="#cccccc" stroke-width="1" /><line x1="336.6" y1="44" x2="336.6" y2="604" stroke="#cccccc" stroke-width="1" /><line x1="406" y1="44" x2="406" y2="604" stroke="#cccccc" stroke-width="1" /><line x1="59" y1="492" x2="406" y2="492" stroke="#cccccc" stroke-width="1" /><line x1="59" y1="380" x2="406" y2="380" stroke="#cccccc" stroke-width="1" /><line x1="59" y1="268" x2="406" y2="268" stroke="#cccccc" stroke-width="1" /><line x1="59" y1="156" x2="406" y2="156" stroke="#cccccc" stroke-width="1" /><line x1="59" y1="44" x2="406" y2="44" stroke="#cccccc" stroke-width="1" /><line x1="59" y1="604" x2="59" y2="609" stroke="#000000" stroke-width="1" /><text x="59" y="621" font-size="12" text-anchor="middle">0</text><line x1="128.4" y1="604" x2="128.4" y2="609" stroke="#000000" stroke-width="1" /><text x="128.4" y="621" font-size="12" text-anchor="middle">2</text><line x1="197.8" y1="604" x2="197.8" y2="609" stroke="#000000" stroke-width="1" /><text x="197.8" y="621" font-size="12" text-anchor="middle">4</text><line x1="267.2" y1="604" x2="267.2" y2="609" stroke="#000000" stroke-width="1" /><text x="267.2" y="621" font-size="12" text-anchor="middle">6</text><line x1="336.6" y1="604" x2="336.6" y2="609" stroke="#000000" stroke-width="1" /><text x="336.6" y="621" font-size="12" text-anchor="middle">8</text><line x1="406" y1="604" x2="406" y2="609" stroke="#000000" stroke-width="1" /><text x="406" y="621" font-size="12" text-anchor="middle">10</text><line x1="54" y1="604" x2="59" y2="604" stroke="#000000" stroke-width="1" /><text x="51" y="608.2" font-size="12" text-anchor="end">-2</text><line x1="54" y1="492" x2="59" y2="492" stroke="#000000" stroke-width="1" /><text x="51" y="496.2" font-size="12" text-anchor="end">0</text><line x1="54" y1="380" x2="59" y2="380" stroke="#000000" stroke-width="1" /><text x="51" y="384.2" font-size="12" text-anchor="end">2</text><line x1="54" y1="268" x2="59" y2="268" stroke="#000000" stroke-width="1" /><text x="51" y="272.2" font-size="12" text-anchor="end">4</text><line x1="54" y1="156" x2="59" y2="156" stroke="#000000" stroke-width="1" /><text x="51" y="160.20000000000002" font-size="12" text-anchor="end">6</text><line x1="54" y1="44" x2="59" y2="44" stroke="#000000" stroke-width="1" /><text x="51" y="48.2" font-size="12" text-anchor="end">8</text><text x="232.5" y="648" font-size="14" text-anchor="middle">Time</text><text x="15" y="327.5" font-size="14" text-anchor="middle" transform="rotate(-90,15,327.5)">Value</text><text x="232.5" y="22" font-size="18" text-anchor="middle">Full Series</text><path d="M 59.0 352.0 L 69.41 345.93 L 79.82000000000001 347.66 L 90.23 356.51 L 100.64 371.39 L 111.05 390.87 L 121.46000000000001 413.26 L 131.87 436.7 L 142.28 459.26 L 152.69 479.08 L 163.1 494.44 L 173.51 503.87 L 183.92000000000002 506.28000000000003 L 194.33 500.93 L 204.74 487.55 L 215.15 466.35 L 225.56 437.94 L 235.97 403.39 L 246.38 364.1 L 256.79 321.73 L 267.2 278.15000000000003 L 277.61 235.27 L 288.02 194.97 L 298.43 158.99 L 308.84000000000003 128.81 L 319.25 105.58 L 329.66 90.05 L 340.07 82.54 L 350.48 82.91 L 360.89 90.54 " stroke="#4682b4" stroke-width="2" fill="none" /></g><text x="18" y="28" font-size="16" text-anchor="start" font-weight="bold">A</text><g transform="translate(445,10)"><line x1="59" y1="269" x2="406" y2="269" stroke="#000000" stroke-width="1" /><line x1="59" y1="44" x2="59" y2="269" stroke="#000000" stroke-width="1" /><line x1="128.4" y1="44" x2="128.4" y2="269" stroke="#cccccc" stroke-width="1" /><line x1="197.8" y1="44" x2="197.8" y2="269" stroke="#cccccc" stroke-width="1" /><line x1="267.2" y1="44" x2="267.2" y2="269" stroke="#cccccc" stroke-width="1" /><line x1="336.6" y1="44" x2="336.6" y2="269" stroke="#cccccc" stroke-width="1" /><line x1="406" y1="44" x2="406" y2="269" stroke="#cccccc" stroke-width="1" /><line x1="59" y1="222.13" x2="406" y2="222.13" stroke="#cccccc" stroke-width="1" /><line x1="59" y1="175.25" x2="406" y2="175.25" stroke="#cccccc" stroke-width="1" /><line x1="59" y1="128.38" x2="406" y2="128.38" stroke="#cccccc" stroke-width="1" /><line x1="59" y1="81.5" x2="406" y2="81.5" stroke="#cccccc" stroke-width="1" /><line x1="59" y1="269" x2="59" y2="274" stroke="#000000" stroke-width="1" /><text x="59" y="286" font-size="12" text-anchor="middle">0</text><line x1="128.4" y1="269" x2="128.4" y2="274" stroke="#000000" stroke-width="1" /><text x="128.4" y="286" font-size="12" text-anchor="middle">2</text><line x1="197.8" y1="269" x2="197.8" y2="274" stroke="#000000" stroke-width="1" /><text x="197.8" y="286" font-size="12" text-anchor="middle">4</text><line x1="267.2" y1="269" x2="267.2" y2="274" stroke="#000000" stroke-width="1" /><text x="267.2" y="286" font-size="12" text-anchor="middle">6</text><line x1="336.6" y1="269" x2="336.6" y2="274" stroke="#000000" stroke-width="1" /><text x="336.6" y="286" font-size="12" text-anchor="middle">8</text><line x1="406" y1="269" x2="406" y2="274" stroke="#000000" stroke-width="1" /><text x="406" y="286" font-size="12" text-anchor="middle">10</text><line x1="54" y1="269" x2="59" y2="269" stroke="#000000" stroke-width="1" /><text x="51" y="273.2" font-size="12" text-anchor="end">0</text><line x1="54" y1="222.13" x2="59" y2="222.13" stroke="#000000" stroke-width="1" /><text x="51" y="226.33" font-size="12" text-anchor="end">2.5</text><line x1="54" y1="175.25" x2="59" y2="175.25" stroke="#000000" stroke-width="1" /><text x="51" y="179.45000000000002" font-size="12" text-anchor="end">5</text><line x1="54" y1="128.38" x2="59" y2="128.38" stroke="#000000" stroke-width="1" /><text x="51" y="132.57" font-size="12" text-anchor="end">7.5</text><line x1="54" y1="81.5" x2="59" y2="81.5" stroke="#000000" stroke-width="1" /><text x="51" y="85.7" font-size="12" text-anchor="end">10</text><text x="232.5" y="22" font-size="18" text-anchor="middle">Period 1</text><circle cx="93.7" cy="237.13" r="4.5" fill="#dc143c" /><circle cx="128.4" cy="214.63" r="4.5" fill="#dc143c" /><circle cx="163.1" cy="192.13" r="4.5" fill="#dc143c" /><circle cx="197.8" cy="169.63" r="4.5" fill="#dc143c" /><circle cx="232.5" cy="147.13" r="4.5" fill="#dc143c" /><circle cx="267.2" cy="124.63000000000001" r="4.5" fill="#dc143c" /><circle cx="301.90000000000003" cy="102.13" r="4.5" fill="#dc143c" /><circle cx="336.6" cy="79.63" r="4.5" fill="#dc143c" /></g><text x="453" y="28" font-size="16" text-anchor="start" font-weight="bold">B</text><g transform="translate(445,345)"><line x1="59" y1="269" x2="406" y2="269" stroke="#000000" stroke-width="1" /><line x1="59" y1="44" x2="59" y2="269" stroke="#000000" stroke-width="1" /><line x1="128.4" y1="44" x2="128.4" y2="269" stroke="#cccccc" stroke-width="1" /><line x1="197.8" y1="44" x2="197.8" y2="269" stroke="#cccccc" stroke-width="1" /><line x1="267.2" y1="44" x2="267.2" y2="269" stroke="#cccccc" stroke-width="1" /><line x1="336.6" y1="44" x2="336.6" y2="269" stroke="#cccccc" stroke-width="1" /><line x1="406" y1="44" x2="406" y2="269" stroke="#cccccc" stroke-width="1" /><line x1="59" y1="231.5" x2="406" y2="231.5" stroke="#cccccc" stroke-width="1" /><line x1="59" y1="194" x2="406" y2="194" stroke="#cccccc" stroke-width="1" /><line x1="59" y1="156.5" x2="406" y2="156.5" stroke="#cccccc" stroke-width="1" /><line x1="59" y1="119" x2="406" y2="119" stroke="#cccccc" stroke-width="1" /><line x1="59" y1="81.5" x2="406" y2="81.5" stroke="#cccccc" stroke-width="1" /><line x1="59" y1="44" x2="406" y2="44" stroke="#cccccc" stroke-width="1" /><line x1="59" y1="269" x2="59" y2="274" stroke="#000000" stroke-width="1" /><text x="59" y="286" font-size="12" text-anchor="middle">0</text><line x1="128.4" y1="269" x2="128.4" y2="274" stroke="#000000" stroke-width="1" /><text x="128.4" y="286" font-size="12" text-anchor="middle">2</text><line x1="197.8" y1="269" x2="197.8" y2="274" stroke="#000000" stroke-width="1" /><text x="197.8" y="286" font-size="12" text-anchor="middle">4</text><line x1="267.2" y1="269" x2="267.2" y2="274" stroke="#000000" stroke-width="1" /><text x="267.2" y="286" font-size="12" text-anchor="middle">6</text><line x1="336.6" y1="269" x2="336.6" y2="274" stroke="#000000" stroke-width="1" /><text x="336.6" y="286" font-size="12" text-anchor="middle">8</text><line x1="406" y1="269" x2="406" y2="274" stroke="#000000" stroke-width="1" /><text x="406" y="286" font-size="12" text-anchor="middle">10</text><line x1="54" y1="269" x2="59" y2="269" stroke="#000000" stroke-width="1" /><text x="51" y="273.2" font-size="12" text-anchor="end">0</text><line x1="54" y1="231.5" x2="59" y2="231.5" stroke="#000000" stroke-width="1" /><text x="51" y="235.70000000000002" font-size="12" text-anchor="end">1</text><line x1="54" y1="194" x2="59" y2="194" stroke="#000000" stroke-width="1" /><text x="51" y="198.20000000000002" font-size="12" text-anchor="end">2</text><line x1="54" y1="156.5" x2="59" y2="156.5" stroke="#000000" stroke-width="1" /><text x="51" y="160.70000000000002" font-size="12" text-anchor="end">3</text><line x1="54" y1="119" x2="59" y2="119" stroke="#000000" stroke-width="1" /><text x="51" y="123.2" font-size="12" text-anchor="end">4</text><line x1="54" y1="81.5" x2="59" y2="81.5" stroke="#000000" stroke-width="1" /><text x="51" y="85.7" font-size="12" text-anchor="end">5</text><line x1="54" y1="44" x2="59" y2="44" stroke="#000000" stroke-width="1" /><text x="51" y="48.2" font-size="12" text-anchor="end">6</text><text x="232.5" y="22" font-size="18" text-anchor="middle">Period 2</text><circle cx="93.7" cy="209" r="4.5" fill="seagreen" /><circle cx="128.4" cy="186.5" r="4.5" fill="seagreen" /><circle cx="163.1" cy="164" r="4.5" fill="seagreen" /><circle cx="197.8" cy="141.5" r="4.5" fill="seagreen" /><circle cx="232.5" cy="119" r="4.5" fill="seagreen" /><circle cx="267.2" cy="96.5" r="4.5" fill="seagreen" /><circle cx="301.90000000000003" cy="74" r="4.5" fill="seagreen" /><circle cx="336.6" cy="51.5" r="4.5" fill="seagreen" /></g><text x="453" y="363" font-size="16" text-anchor="start" font-weight="bold">C</text></svg>