<svg xmlns="http://www.w3.org/2000/svg" width="679" height="541" fill="black">
<rect width="100%" height="100%" fill="white" />
<line x1="65" y1="492" x2="665" y2="492" stroke="black" stroke-width="1" />
<line x1="65" y1="42" x2="65" y2="492" stroke="black" stroke-width="1" />
<line x1="150.71428571428572" y1="42" x2="150.71428571428572" y2="492" stroke="#ccc" stroke-width="1" />
<line x1="236.42857142857142" y1="42" x2="236.42857142857142" y2="492" stroke="#ccc" stroke-width="1" />
<line x1="322.1428571428571" y1="42" x2="322.1428571428571" y2="492" stroke="#ccc" stroke-width="1" />
<line x1="407.85714285714283" y1="42" x2="407.85714285714283" y2="492" stroke="#ccc" stroke-width="1" />
<line x1="493.57142857142856" y1="42" x2="493.57142857142856" y2="492" stroke="#ccc" stroke-width="1" />
<line x1="579.2857142857142" y1="42" x2="579.2857142857142" y2="492" stroke="#ccc" stroke-width="1" />
<line x1="665" y1="42" x2="665" y2="492" stroke="#ccc" stroke-width="1" />
<line x1="65" y1="417" x2="665" y2="417" stroke="#ccc" stroke-width="1" />
<line x1="65" y1="342" x2="665" y2="342" stroke="#ccc" stroke-width="1" />
<line x1="65" y1="267" x2="665" y2="267" stroke="#ccc" stroke-width="1" />
<line x1="65" y1="192" x2="665" y2="192" stroke="#ccc" stroke-width="1" />
<line x1="65" y1="117" x2="665" y2="117" stroke="#ccc" stroke-width="1" />
<line x1="65" y1="42" x2="665" y2="42" stroke="#ccc" stroke-width="1" />
<line x1="65" y1="492" x2="65" y2="497" stroke="black" stroke-width="1" />
<text x="65" y="507" font-size="10" text-anchor="middle">0</text>
<line x1="150.71428571428572" y1="492" x2="150.71428571428572" y2="497" stroke="black" stroke-width="1" />
<text x="150.71428571428572" y="507" font-size="10" text-anchor="middle">1</text>
<line x1="236.42857142857142" y1="492" x2="236.42857142857142" y2="497" stroke="black" stroke-width="1" />
<text x="236.42857142857142" y="507" font-size="10" text-anchor="middle">2</text>
<line x1="322.1428571428571" y1="492" x2="322.1428571428571" y2="497" stroke="black" stroke-width="1" />
<text x="322.1428571428571" y="507" font-size="10" text-anchor="middle">3</text>
<line x1="407.85714285714283" y1="492" x2="407.85714285714283" y2="497" stroke="black" stroke-width="1" />
<text x="407.85714285714283" y="507" font-size="10" text-anchor="middle">4</text>
<line x1="493.57142857142856" y1="492" x2="493.57142857142856" y2="497" stroke="black" stroke-width="1" />
<text x="493.57142857142856" y="507" font-size="10" text-anchor="middle">5</text>
<line x1="579.2857142857142" y1="492" x2="579.2857142857142" y2="497" stroke="black" stroke-width="1" />
<text x="579.2857142857142" y="507" font-size="10" text-anchor="middle">6</text>
<line x1="665" y1="492" x2="665" y2="497" stroke="black" stroke-width="1" />
<text x="665" y="507" font-size="10" text-anchor="middle">7</text>
<line x1="60" y1="492" x2="65" y2="492" stroke="black" stroke-width="1" />
<text x="57" y="495.5" font-size="10" text-anchor="end">-1.5</text>
<line x1="60" y1="417" x2="65" y2="417" stroke="black" stroke-width="1" />
<text x="57" y="420.5" font-size="10" text-anchor="end">-1</text>
<line x1="60" y1="342" x2="65" y2="342" stroke="black" stroke-width="1" />
<text x="57" y="345.5" font-size="10" text-anchor="end">-0.5</text>
<line x1="60" y1="267" x2="65" y2="267" stroke="black" stroke-width="1" />
<text x="57" y="270.5" font-size="10" text-anchor="end">0</text>
<line x1="60" y1="192" x2="65" y2="192" stroke="black" stroke-width="1" />
<text x="57" y="195.5" font-size="10" text-anchor="end">0.5</text>
<line x1="60" y1="117" x2="65" y2="117" stroke="black" stroke-width="1" />
<text x="57" y="120.5" font-size="10" text-anchor="end">1</text>
<line x1="60" y1="42" x2="65" y2="42" stroke="black" stroke-width="1" />
<text x="57" y="45.5" font-size="10" text-anchor="end">1.5</text>
<text x="339.5" y="534" font-size="14" text-anchor="middle">X</text>
<text x="14" y="270.5" font-size="14" text-anchor="middle" transform="rotate(-90,14,270.5)">Y</text>
<text x="339.5" y="21" font-size="16" text-anchor="middle">Annotations</text>
<rect x="65" y="102" width="600" height="165" fill="steelblue" fill-opacity="0.08" />
<path d="M 65 267 L 73.57142857142857 252.02498750297576 L 82.14285714285714 237.19960038074078 L 90.71428571428572 222.67196900079904 L 99.28571428571429 208.58724865370237 L 107.85714285714286 195.0861692093696 L 116.42857142857144 182.30362899074476 L 125 170.36734691434634 L 133.57142857142858 159.39658636507158 L 142.14285714285717 149.5009635558775 L 150.71428571428572 140.7793522788155 L 159.2857142857143 133.3188959907847 L 167.8571428571429 127.19413710491602 L 176.42857142857144 122.466272187421 L 185 119.18254050173095 L 193.57142857142856 117.37575200939182 L 202.14285714285717 117.06395954377422 L 210.71428571428572 118.25027843212968 L 219.2857142857143 120.92285536827069 L 227.8571428571429 125.0549868468878 L 236.42857142857142 130.60538597614772 L 245 137.51859500266892 L 253.5714285714286 145.7255394270615 L 262.14285714285717 155.14421817349205 L 270.7142857142858 165.68052291732738 L 279.2857142857143 177.2291783844065 L 287.8571428571429 189.67479422678036 L 296.42857142857144 202.89301796492555 L 305 216.75177747661428 L 313.57142857142856 231.11260061790273 L 322.1428571428571 245.83199879101994 L 330.7142857142857 260.7629006350064 L 339.28571428571433 275.756121514137 L 347.8571428571429 290.6618541214873 L 356.42857142857144 305.33116530402475 L 365 319.617484153443 L 373.5714285714286 333.3780664942278 L 382.14285714285717 346.475421136274 L 390.7142857142858 358.7786836414079 L 399.2857142857143 370.1649238775961 L 407.85714285714283 380.52037429618923 L 416.42857142857144 389.74156665966166 L 425 397.7363658620382 L 433.57142857142856 404.42489051241824 L 442.1428571428572 409.7403110834274 L 450.7142857142857 413.6295176497646 L 459.28571428571433 416.05365054501965 L 467.8571428571429 416.9884886346151 L 476.4285714285715 416.4246913253761 L 485.00000000000006 414.36789189364987 L 493.57142857142856 410.83864119947077 L 502.14285714285717 405.8722023491598 L 510.7142857142857 399.51819835802297 L 519.2857142857143 391.8401163335851 L 527.8571428571429 382.9146731333981 L 536.4285714285714 372.8310488355588 L 545 361.68999568084814 L 553.5714285714286 349.60283138964564 L 562.1428571428571 336.6903269120635 L 570.7142857142858 323.08149972453543 L 579.2857142857142 308.91232472983893 " stroke="steelblue" stroke-width="2" fill="none" />
<line x1="65" y1="267" x2="665" y2="267" stroke="black" stroke-width="1" stroke-dasharray="6 4" />
<text x="661" y="263" font-size="10" text-anchor="end">y = 0</text>
<line x1="199.57142857142858" y1="42" x2="199.57142857142858" y2="492" stroke="crimson" stroke-width="1" stroke-dasharray="6 4" />
<text x="203.57142857142858" y="54" font-size="10" text-anchor="start">π/2</text>
<line x1="150.71428571428572" y1="94.5" x2="194.12157537419043" y2="114.49019918548242" stroke="crimson" stroke-width="1" />
<path d="M194.12157537419043,114.49019918548242 L185.18190390152785,114.77703356428442 L188.52830498755128,107.51056263463356 Z" stroke="crimson" stroke-width="1" fill="crimson" />
<text x="150.71428571428572" y="88.5" font-size="12" text-anchor="middle">peak</text>
</svg>
