<svg xmlns="http://www.w3.org/2000/svg" width="679" height="541" fill="black">
<rect width="100%" height="100%" fill="white" />
<line x1="65" y1="492" x2="665" y2="492" stroke="black" stroke-width="1" />
<line x1="65" y1="42" x2="65" y2="492" stroke="black" stroke-width="1" />
<line x1="65" y1="42" x2="65" y2="492" stroke="#ccc" stroke-width="1" />
<line x1="125.20599913279624" y1="42" x2="125.20599913279624" y2="492" stroke="#ccc" stroke-width="1" />
<line x1="204.79400086720378" y1="42" x2="204.79400086720378" y2="492" stroke="#ccc" stroke-width="1" />
<line x1="265" y1="42" x2="265" y2="492" stroke="#ccc" stroke-width="1" />
<line x1="325.20599913279625" y1="42" x2="325.20599913279625" y2="492" stroke="#ccc" stroke-width="1" />
<line x1="404.79400086720375" y1="42" x2="404.79400086720375" y2="492" stroke="#ccc" stroke-width="1" />
<line x1="465" y1="42" x2="465" y2="492" stroke="#ccc" stroke-width="1" />
<line x1="525.2059991327963" y1="42" x2="525.2059991327963" y2="492" stroke="#ccc" stroke-width="1" />
<line x1="604.7940008672037" y1="42" x2="604.7940008672037" y2="492" stroke="#ccc" stroke-width="1" />
<line x1="665" y1="42" x2="665" y2="492" stroke="#ccc" stroke-width="1" />
<line x1="65" y1="492" x2="665" y2="492" stroke="#ccc" stroke-width="1" />
<line x1="65" y1="435.75" x2="665" y2="435.75" stroke="#ccc" stroke-width="1" />
<line x1="65" y1="379.5" x2="665" y2="379.5" stroke="#ccc" stroke-width="1" />
<line x1="65" y1="323.25" x2="665" y2="323.25" stroke="#ccc" stroke-width="1" />
<line x1="65" y1="267" x2="665" y2="267" stroke="#ccc" stroke-width="1" />
<line x1="65" y1="210.75" x2="665" y2="210.75" stroke="#ccc" stroke-width="1" />
<line x1="65" y1="154.5" x2="665" y2="154.5" stroke="#ccc" stroke-width="1" />
<line x1="65" y1="98.25" x2="665" y2="98.25" stroke="#ccc" stroke-width="1" />
<line x1="65" y1="42" x2="665" y2="42" stroke="#ccc" stroke-width="1" />
<line x1="65" y1="492" x2="65" y2="497" stroke="black" stroke-width="1" />
<text x="65" y="507" font-size="10" text-anchor="middle">1</text>
<line x1="125.20599913279624" y1="492" x2="125.20599913279624" y2="497" stroke="black" stroke-width="1" />
<text x="125.20599913279624" y="507" font-size="10" text-anchor="middle">2</text>
<line x1="204.79400086720378" y1="492" x2="204.79400086720378" y2="497" stroke="black" stroke-width="1" />
<text x="204.79400086720378" y="507" font-size="10" text-anchor="middle">5</text>
<line x1="265" y1="492" x2="265" y2="497" stroke="black" stroke-width="1" />
<text x="265" y="507" font-size="10" text-anchor="middle">10</text>
<line x1="325.20599913279625" y1="492" x2="325.20599913279625" y2="497" stroke="black" stroke-width="1" />
<text x="325.20599913279625" y="507" font-size="10" text-anchor="middle">20</text>
<line x1="404.79400086720375" y1="492" x2="404.79400086720375" y2="497" stroke="black" stroke-width="1" />
<text x="404.79400086720375" y="507" font-size="10" text-anchor="middle">50</text>
<line x1="465" y1="492" x2="465" y2="497" stroke="black" stroke-width="1" />
<text x="465" y="507" font-size="10" text-anchor="middle">100</text>
<line x1="525.2059991327963" y1="492" x2="525.2059991327963" y2="497" stroke="black" stroke-width="1" />
<text x="525.2059991327963" y="507" font-size="10" text-anchor="middle">200</text>
<line x1="604.7940008672037" y1="492" x2="604.7940008672037" y2="497" stroke="black" stroke-width="1" />
<text x="604.7940008672037" y="507" font-size="10" text-anchor="middle">500</text>
<line x1="665" y1="492" x2="665" y2="497" stroke="black" stroke-width="1" />
<text x="665" y="507" font-size="10" text-anchor="middle">1000</text>
<line x1="60" y1="492" x2="65" y2="492" stroke="black" stroke-width="1" />
<text x="57" y="495.5" font-size="10" text-anchor="end">1e-3</text>
<line x1="60" y1="435.75" x2="65" y2="435.75" stroke="black" stroke-width="1" />
<text x="57" y="439.25" font-size="10" text-anchor="end">1e-2</text>
<line x1="60" y1="379.5" x2="65" y2="379.5" stroke="black" stroke-width="1" />
<text x="57" y="383" font-size="10" text-anchor="end">1e-1</text>
<line x1="60" y1="323.25" x2="65" y2="323.25" stroke="black" stroke-width="1" />
<text x="57" y="326.75" font-size="10" text-anchor="end">1</text>
<line x1="60" y1="267" x2="65" y2="267" stroke="black" stroke-width="1" />
<text x="57" y="270.5" font-size="10" text-anchor="end">10</text>
<line x1="60" y1="210.75" x2="65" y2="210.75" stroke="black" stroke-width="1" />
<text x="57" y="214.25" font-size="10" text-anchor="end">100</text>
<line x1="60" y1="154.5" x2="65" y2="154.5" stroke="black" stroke-width="1" />
<text x="57" y="158" font-size="10" text-anchor="end">1000</text>
<line x1="60" y1="98.25" x2="65" y2="98.25" stroke="black" stroke-width="1" />
<text x="57" y="101.75" font-size="10" text-anchor="end">10000</text>
<line x1="60" y1="42" x2="65" y2="42" stroke="black" stroke-width="1" />
<text x="57" y="45.5" font-size="10" text-anchor="end">100000</text>
<text x="339.5" y="534" font-size="14" text-anchor="middle">X (log₁₀)</text>
<text x="14" y="270.5" font-size="14" text-anchor="middle" transform="rotate(-90,14,270.5)">Y (log₁₀)</text>
<text x="339.5" y="21" font-size="16" text-anchor="middle">Log-Scale Axes</text>
<circle cx="65" cy="492" r="5" fill="steelblue" />
<circle cx="160.4242509439325" cy="418.81706274390103" r="5" fill="steelblue" />
<circle cx="265" cy="340.18293725609897" r="5" fill="steelblue" />
<circle cx="360.42425094393246" cy="272.45118823170316" r="5" fill="steelblue" />
<circle cx="465" cy="200.8448666781179" r="5" fill="steelblue" />
<circle cx="560.4242509439325" cy="127.661929422019" r="5" fill="steelblue" />
<circle cx="665" cy="54.47899216592003" r="5" fill="steelblue" />
</svg>
