<svg xmlns="http://www.w3.org/2000/svg" width="679" height="541" fill="black">
<rect width="100%" height="100%" fill="white" />
<line x1="65" y1="492" x2="665" y2="492" stroke="black" stroke-width="1" />
<line x1="65" y1="42" x2="65" y2="492" stroke="black" stroke-width="1" />
<line x1="150.71428571428572" y1="42" x2="150.71428571428572" y2="492" stroke="#ccc" stroke-width="1" />
<line x1="236.42857142857142" y1="42" x2="236.42857142857142" y2="492" stroke="#ccc" stroke-width="1" />
<line x1="322.1428571428571" y1="42" x2="322.1428571428571" y2="492" stroke="#ccc" stroke-width="1" />
<line x1="407.85714285714283" y1="42" x2="407.85714285714283" y2="492" stroke="#ccc" stroke-width="1" />
<line x1="493.57142857142856" y1="42" x2="493.57142857142856" y2="492" stroke="#ccc" stroke-width="1" />
<line x1="579.2857142857142" y1="42" x2="579.2857142857142" y2="492" stroke="#ccc" stroke-width="1" />
<line x1="665" y1="42" x2="665" y2="492" stroke="#ccc" stroke-width="1" />
<line x1="65" y1="417" x2="665" y2="417" stroke="#ccc" stroke-width="1" />
<line x1="65" y1="342" x2="665" y2="342" stroke="#ccc" stroke-width="1" />
<line x1="65" y1="267.00000000000006" x2="665" y2="267.00000000000006" stroke="#ccc" stroke-width="1" />
<line x1="65" y1="192" x2="665" y2="192" stroke="#ccc" stroke-width="1" />
<line x1="65" y1="117.00000000000006" x2="665" y2="117.00000000000006" stroke="#ccc" stroke-width="1" />
<line x1="65" y1="42.000000000000114" x2="665" y2="42.000000000000114" stroke="#ccc" stroke-width="1" />
<line x1="65" y1="492" x2="65" y2="497" stroke="black" stroke-width="1" />
<text x="65" y="507" font-size="10" text-anchor="middle">0</text>
<line x1="150.71428571428572" y1="492" x2="150.71428571428572" y2="497" stroke="black" stroke-width="1" />
<text x="150.71428571428572" y="507" font-size="10" text-anchor="middle">1</text>
<line x1="236.42857142857142" y1="492" x2="236.42857142857142" y2="497" stroke="black" stroke-width="1" />
<text x="236.42857142857142" y="507" font-size="10" text-anchor="middle">2</text>
<line x1="322.1428571428571" y1="492" x2="322.1428571428571" y2="497" stroke="black" stroke-width="1" />
<text x="322.1428571428571" y="507" font-size="10" text-anchor="middle">3</text>
<line x1="407.85714285714283" y1="492" x2="407.85714285714283" y2="497" stroke="black" stroke-width="1" />
<text x="407.85714285714283" y="507" font-size="10" text-anchor="middle">4</text>
<line x1="493.57142857142856" y1="492" x2="493.57142857142856" y2="497" stroke="black" stroke-width="1" />
<text x="493.57142857142856" y="507" font-size="10" text-anchor="middle">5</text>
<line x1="579.2857142857142" y1="492" x2="579.2857142857142" y2="497" stroke="black" stroke-width="1" />
<text x="579.2857142857142" y="507" font-size="10" text-anchor="middle">6</text>
<line x1="665" y1="492" x2="665" y2="497" stroke="black" stroke-width="1" />
<text x="665" y="507" font-size="10" text-anchor="middle">7</text>
<line x1="60" y1="492" x2="65" y2="492" stroke="black" stroke-width="1" />
<text x="57" y="495.5" font-size="10" text-anchor="end">0</text>
<line x1="60" y1="417" x2="65" y2="417" stroke="black" stroke-width="1" />
<text x="57" y="420.5" font-size="10" text-anchor="end">0.05</text>
<line x1="60" y1="342" x2="65" y2="342" stroke="black" stroke-width="1" />
<text x="57" y="345.5" font-size="10" text-anchor="end">0.1</text>
<line x1="60" y1="267.00000000000006" x2="65" y2="267.00000000000006" stroke="black" stroke-width="1" />
<text x="57" y="270.50000000000006" font-size="10" text-anchor="end">0.15</text>
<line x1="60" y1="192" x2="65" y2="192" stroke="black" stroke-width="1" />
<text x="57" y="195.5" font-size="10" text-anchor="end">0.2</text>
<line x1="60" y1="117.00000000000006" x2="65" y2="117.00000000000006" stroke="black" stroke-width="1" />
<text x="57" y="120.50000000000006" font-size="10" text-anchor="end">0.25</text>
<line x1="60" y1="42.000000000000114" x2="65" y2="42.000000000000114" stroke="black" stroke-width="1" />
<text x="57" y="45.500000000000114" font-size="10" text-anchor="end">0.3</text>
<text x="339.5" y="534" font-size="14" text-anchor="middle">X</text>
<text x="14" y="270.5" font-size="14" text-anchor="middle" transform="rotate(-90,14,270.5)">p-value</text>
<text x="339.5" y="21" font-size="16" text-anchor="middle">Reference Lines</text>
<circle cx="107.85714285714286" cy="72.00000000000006" r="5" fill="steelblue" />
<circle cx="167.85714285714286" cy="282" r="5" fill="steelblue" />
<circle cx="219.2857142857143" cy="432" r="5" fill="steelblue" />
<circle cx="270.7142857142857" cy="207.00000000000006" r="5" fill="steelblue" />
<circle cx="313.57142857142856" cy="372" r="5" fill="steelblue" />
<circle cx="390.71428571428567" cy="177.00000000000006" r="5" fill="steelblue" />
<circle cx="450.7142857142857" cy="312" r="5" fill="steelblue" />
<circle cx="502.1428571428571" cy="387" r="5" fill="steelblue" />
<circle cx="562.1428571428571" cy="117.00000000000006" r="5" fill="steelblue" />
<circle cx="622.1428571428571" cy="357" r="5" fill="steelblue" />
<line x1="65" y1="417" x2="665" y2="417" stroke="crimson" stroke-width="1" stroke-dasharray="6 4" />
<text x="661" y="413" font-size="10" text-anchor="end">p = 0.05</text>
<line x1="365" y1="42" x2="365" y2="492" stroke="steelblue" stroke-width="1.5" stroke-dasharray="8 4" />
<text x="369" y="54" font-size="10" text-anchor="start">cutoff</text>
</svg>
