<svg xmlns="http://www.w3.org/2000/svg" width="679" height="541" fill="black">
<rect width="100%" height="100%" fill="white" />
<line x1="65" y1="492" x2="665" y2="492" stroke="black" stroke-width="1" />
<line x1="65" y1="42" x2="65" y2="492" stroke="black" stroke-width="1" />
<line x1="165" y1="42" x2="165" y2="492" stroke="#ccc" stroke-width="1" />
<line x1="265" y1="42" x2="265" y2="492" stroke="#ccc" stroke-width="1" />
<line x1="365" y1="42" x2="365" y2="492" stroke="#ccc" stroke-width="1" />
<line x1="465" y1="42" x2="465" y2="492" stroke="#ccc" stroke-width="1" />
<line x1="565" y1="42" x2="565" y2="492" stroke="#ccc" stroke-width="1" />
<line x1="665" y1="42" x2="665" y2="492" stroke="#ccc" stroke-width="1" />
<line x1="65" y1="427.7142857142857" x2="665" y2="427.7142857142857" stroke="#ccc" stroke-width="1" />
<line x1="65" y1="363.42857142857144" x2="665" y2="363.42857142857144" stroke="#ccc" stroke-width="1" />
<line x1="65" y1="299.14285714285717" x2="665" y2="299.14285714285717" stroke="#ccc" stroke-width="1" />
<line x1="65" y1="234.8571428571429" x2="665" y2="234.8571428571429" stroke="#ccc" stroke-width="1" />
<line x1="65" y1="170.57142857142856" x2="665" y2="170.57142857142856" stroke="#ccc" stroke-width="1" />
<line x1="65" y1="106.28571428571433" x2="665" y2="106.28571428571433" stroke="#ccc" stroke-width="1" />
<line x1="65" y1="42" x2="665" y2="42" stroke="#ccc" stroke-width="1" />
<line x1="65" y1="492" x2="65" y2="497" stroke="black" stroke-width="1" />
<text x="65" y="507" font-size="10" text-anchor="middle">0</text>
<line x1="165" y1="492" x2="165" y2="497" stroke="black" stroke-width="1" />
<text x="165" y="507" font-size="10" text-anchor="middle">5</text>
<line x1="265" y1="492" x2="265" y2="497" stroke="black" stroke-width="1" />
<text x="265" y="507" font-size="10" text-anchor="middle">10</text>
<line x1="365" y1="492" x2="365" y2="497" stroke="black" stroke-width="1" />
<text x="365" y="507" font-size="10" text-anchor="middle">15</text>
<line x1="465" y1="492" x2="465" y2="497" stroke="black" stroke-width="1" />
<text x="465" y="507" font-size="10" text-anchor="middle">20</text>
<line x1="565" y1="492" x2="565" y2="497" stroke="black" stroke-width="1" />
<text x="565" y="507" font-size="10" text-anchor="middle">25</text>
<line x1="665" y1="492" x2="665" y2="497" stroke="black" stroke-width="1" />
<text x="665" y="507" font-size="10" text-anchor="middle">30</text>
<line x1="60" y1="492" x2="65" y2="492" stroke="black" stroke-width="1" />
<text x="57" y="495.5" font-size="10" text-anchor="end">0</text>
<line x1="60" y1="427.7142857142857" x2="65" y2="427.7142857142857" stroke="black" stroke-width="1" />
<text x="57" y="431.2142857142857" font-size="10" text-anchor="end">1</text>
<line x1="60" y1="363.42857142857144" x2="65" y2="363.42857142857144" stroke="black" stroke-width="1" />
<text x="57" y="366.92857142857144" font-size="10" text-anchor="end">2</text>
<line x1="60" y1="299.14285714285717" x2="65" y2="299.14285714285717" stroke="black" stroke-width="1" />
<text x="57" y="302.64285714285717" font-size="10" text-anchor="end">3</text>
<line x1="60" y1="234.8571428571429" x2="65" y2="234.8571428571429" stroke="black" stroke-width="1" />
<text x="57" y="238.3571428571429" font-size="10" text-anchor="end">4</text>
<line x1="60" y1="170.57142857142856" x2="65" y2="170.57142857142856" stroke="black" stroke-width="1" />
<text x="57" y="174.07142857142856" font-size="10" text-anchor="end">5</text>
<line x1="60" y1="106.28571428571433" x2="65" y2="106.28571428571433" stroke="black" stroke-width="1" />
<text x="57" y="109.78571428571433" font-size="10" text-anchor="end">6</text>
<line x1="60" y1="42" x2="65" y2="42" stroke="black" stroke-width="1" />
<text x="57" y="45.5" font-size="10" text-anchor="end">7</text>
<text x="339.5" y="534" font-size="14" text-anchor="middle">X</text>
<text x="14" y="270.5" font-size="14" text-anchor="middle" transform="rotate(-90,14,270.5)">Y</text>
<text x="339.5" y="21" font-size="16" text-anchor="middle">Shaded Regions</text>
<rect x="65" y="234.8571428571429" width="600" height="128.57142857142856" fill="gold" fill-opacity="0.2" />
<rect x="265" y="42" width="200" height="450" fill="steelblue" fill-opacity="0.15" />
<circle cx="105" cy="427.7142857142857" r="5" fill="steelblue" />
<circle cx="165" cy="286.2857142857143" r="5" fill="steelblue" />
<circle cx="225" cy="440.57142857142856" r="5" fill="steelblue" />
<circle cx="305" cy="138.42857142857144" r="5" fill="steelblue" />
<circle cx="365" cy="357" r="5" fill="steelblue" />
<circle cx="425" cy="87" r="5" fill="steelblue" />
<circle cx="504.99999999999994" cy="247.71428571428572" r="5" fill="steelblue" />
<circle cx="565" cy="395.57142857142856" r="5" fill="steelblue" />
<circle cx="625" cy="189.85714285714283" r="5" fill="steelblue" />
</svg>
