<svg xmlns="http://www.w3.org/2000/svg" width="679" height="541" fill="black">
<rect width="100%" height="100%" fill="white" />
<line x1="65" y1="492" x2="665" y2="492" stroke="black" stroke-width="1" />
<line x1="65" y1="42" x2="65" y2="492" stroke="black" stroke-width="1" />
<line x1="150.71428571428572" y1="42" x2="150.71428571428572" y2="492" stroke="#ccc" stroke-width="1" />
<line x1="236.42857142857142" y1="42" x2="236.42857142857142" y2="492" stroke="#ccc" stroke-width="1" />
<line x1="322.1428571428571" y1="42" x2="322.1428571428571" y2="492" stroke="#ccc" stroke-width="1" />
<line x1="407.85714285714283" y1="42" x2="407.85714285714283" y2="492" stroke="#ccc" stroke-width="1" />
<line x1="493.57142857142856" y1="42" x2="493.57142857142856" y2="492" stroke="#ccc" stroke-width="1" />
<line x1="579.2857142857142" y1="42" x2="579.2857142857142" y2="492" stroke="#ccc" stroke-width="1" />
<line x1="665" y1="42" x2="665" y2="492" stroke="#ccc" stroke-width="1" />
<line x1="65" y1="402" x2="665" y2="402" stroke="#ccc" stroke-width="1" />
<line x1="65" y1="312" x2="665" y2="312" stroke="#ccc" stroke-width="1" />
<line x1="65" y1="222" x2="665" y2="222" stroke="#ccc" stroke-width="1" />
<line x1="65" y1="132" x2="665" y2="132" stroke="#ccc" stroke-width="1" />
<line x1="65" y1="42" x2="665" y2="42" stroke="#ccc" stroke-width="1" />
<line x1="65" y1="492" x2="65" y2="497" stroke="black" stroke-width="1" />
<text x="65" y="507" font-size="10" text-anchor="middle">0</text>
<line x1="150.71428571428572" y1="492" x2="150.71428571428572" y2="497" stroke="black" stroke-width="1" />
<text x="150.71428571428572" y="507" font-size="10" text-anchor="middle">1</text>
<line x1="236.42857142857142" y1="492" x2="236.42857142857142" y2="497" stroke="black" stroke-width="1" />
<text x="236.42857142857142" y="507" font-size="10" text-anchor="middle">2</text>
<line x1="322.1428571428571" y1="492" x2="322.1428571428571" y2="497" stroke="black" stroke-width="1" />
<text x="322.1428571428571" y="507" font-size="10" text-anchor="middle">3</text>
<line x1="407.85714285714283" y1="492" x2="407.85714285714283" y2="497" stroke="black" stroke-width="1" />
<text x="407.85714285714283" y="507" font-size="10" text-anchor="middle">4</text>
<line x1="493.57142857142856" y1="492" x2="493.57142857142856" y2="497" stroke="black" stroke-width="1" />
<text x="493.57142857142856" y="507" font-size="10" text-anchor="middle">5</text>
<line x1="579.2857142857142" y1="492" x2="579.2857142857142" y2="497" stroke="black" stroke-width="1" />
<text x="579.2857142857142" y="507" font-size="10" text-anchor="middle">6</text>
<line x1="665" y1="492" x2="665" y2="497" stroke="black" stroke-width="1" />
<text x="665" y="507" font-size="10" text-anchor="middle">7</text>
<line x1="60" y1="492" x2="65" y2="492" stroke="black" stroke-width="1" />
<text x="57" y="495.5" font-size="10" text-anchor="end">0</text>
<line x1="60" y1="402" x2="65" y2="402" stroke="black" stroke-width="1" />
<text x="57" y="405.5" font-size="10" text-anchor="end">2</text>
<line x1="60" y1="312" x2="65" y2="312" stroke="black" stroke-width="1" />
<text x="57" y="315.5" font-size="10" text-anchor="end">4</text>
<line x1="60" y1="222" x2="65" y2="222" stroke="black" stroke-width="1" />
<text x="57" y="225.5" font-size="10" text-anchor="end">6</text>
<line x1="60" y1="132" x2="65" y2="132" stroke="black" stroke-width="1" />
<text x="57" y="135.5" font-size="10" text-anchor="end">8</text>
<line x1="60" y1="42" x2="65" y2="42" stroke="black" stroke-width="1" />
<text x="57" y="45.5" font-size="10" text-anchor="end">10</text>
<text x="339.5" y="534" font-size="14" text-anchor="middle">X</text>
<text x="14" y="270.5" font-size="14" text-anchor="middle" transform="rotate(-90,14,270.5)">Y</text>
<text x="339.5" y="21" font-size="16" text-anchor="middle">Text Annotation</text>
<circle cx="150.71428571428572" cy="438" r="5" fill="steelblue" />
<circle cx="219.2857142857143" cy="379.5" r="5" fill="steelblue" />
<circle cx="270.7142857142857" cy="406.5" r="5" fill="steelblue" />
<circle cx="330.7142857142857" cy="339" r="5" fill="steelblue" />
<circle cx="390.71428571428567" cy="366" r="5" fill="steelblue" />
<circle cx="450.7142857142857" cy="307.5" r="5" fill="steelblue" />
<circle cx="510.7142857142857" cy="316.5" r="5" fill="steelblue" />
<circle cx="579.2857142857142" cy="87" r="5" fill="steelblue" />
<line x1="493.57142857142856" y1="154.5" x2="574.5718963976453" y2="90.71213158685428" stroke="crimson" stroke-width="1" />
<path d="M574.5718963976453,90.71213158685428 L570.7615602714562,98.80418562803928 L565.8120514889839,92.51909511061405 Z" stroke="crimson" stroke-width="1" fill="crimson" />
<text x="493.57142857142856" y="170.5" font-size="12" text-anchor="middle">Outlier</text>
</svg>
