<svg xmlns="http://www.w3.org/2000/svg" width="679" height="541" fill="black">
<rect width="100%" height="100%" fill="white" />
<line x1="65" y1="492" x2="665" y2="492" stroke="black" stroke-width="1" />
<line x1="65" y1="42" x2="65" y2="492" stroke="black" stroke-width="1" />
<line x1="165" y1="42" x2="165" y2="492" stroke="#ccc" stroke-width="1" />
<line x1="265" y1="42" x2="265" y2="492" stroke="#ccc" stroke-width="1" />
<line x1="365" y1="42" x2="365" y2="492" stroke="#ccc" stroke-width="1" />
<line x1="465" y1="42" x2="465" y2="492" stroke="#ccc" stroke-width="1" />
<line x1="565" y1="42" x2="565" y2="492" stroke="#ccc" stroke-width="1" />
<line x1="665" y1="42" x2="665" y2="492" stroke="#ccc" stroke-width="1" />
<line x1="65" y1="398.25" x2="665" y2="398.25" stroke="#ccc" stroke-width="1" />
<line x1="65" y1="304.5" x2="665" y2="304.5" stroke="#ccc" stroke-width="1" />
<line x1="65" y1="210.75" x2="665" y2="210.75" stroke="#ccc" stroke-width="1" />
<line x1="65" y1="117" x2="665" y2="117" stroke="#ccc" stroke-width="1" />
<line x1="65" y1="492" x2="65" y2="497" stroke="black" stroke-width="1" />
<text x="65" y="507" font-size="10" text-anchor="middle">0</text>
<line x1="165" y1="492" x2="165" y2="497" stroke="black" stroke-width="1" />
<text x="165" y="507" font-size="10" text-anchor="middle">1e4</text>
<line x1="265" y1="492" x2="265" y2="497" stroke="black" stroke-width="1" />
<text x="265" y="507" font-size="10" text-anchor="middle">2e4</text>
<line x1="365" y1="492" x2="365" y2="497" stroke="black" stroke-width="1" />
<text x="365" y="507" font-size="10" text-anchor="middle">3e4</text>
<line x1="465" y1="492" x2="465" y2="497" stroke="black" stroke-width="1" />
<text x="465" y="507" font-size="10" text-anchor="middle">4e4</text>
<line x1="565" y1="492" x2="565" y2="497" stroke="black" stroke-width="1" />
<text x="565" y="507" font-size="10" text-anchor="middle">5e4</text>
<line x1="665" y1="492" x2="665" y2="497" stroke="black" stroke-width="1" />
<text x="665" y="507" font-size="10" text-anchor="middle">6e4</text>
<line x1="60" y1="492" x2="65" y2="492" stroke="black" stroke-width="1" />
<text x="57" y="495.5" font-size="10" text-anchor="end">0</text>
<line x1="60" y1="398.25" x2="65" y2="398.25" stroke="black" stroke-width="1" />
<text x="57" y="401.75" font-size="10" text-anchor="end">2.5e4</text>
<line x1="60" y1="304.5" x2="65" y2="304.5" stroke="black" stroke-width="1" />
<text x="57" y="308" font-size="10" text-anchor="end">5e4</text>
<line x1="60" y1="210.75" x2="65" y2="210.75" stroke="black" stroke-width="1" />
<text x="57" y="214.25" font-size="10" text-anchor="end">7.5e4</text>
<line x1="60" y1="117" x2="65" y2="117" stroke="black" stroke-width="1" />
<text x="57" y="120.5" font-size="10" text-anchor="end">1e5</text>
<text x="339.5" y="21" font-size="16" text-anchor="middle">Sci</text>
<circle cx="65" cy="492" r="5" fill="steelblue" />
<circle cx="315" cy="304.5" r="5" fill="steelblue" />
<circle cx="565" cy="117" r="5" fill="steelblue" />
</svg>
