<svg xmlns="http://www.w3.org/2000/svg" width="679" height="541" fill="black">
<rect width="100%" height="100%" fill="white" />
<line x1="65" y1="492" x2="665" y2="492" stroke="black" stroke-width="1" />
<line x1="65" y1="42" x2="65" y2="492" stroke="black" stroke-width="1" />
<line x1="190" y1="42" x2="190" y2="492" stroke="#ccc" stroke-width="1" />
<line x1="315" y1="42" x2="315" y2="492" stroke="#ccc" stroke-width="1" />
<line x1="439.99999999999994" y1="42" x2="439.99999999999994" y2="492" stroke="#ccc" stroke-width="1" />
<line x1="565" y1="42" x2="565" y2="492" stroke="#ccc" stroke-width="1" />
<line x1="65" y1="398.25" x2="665" y2="398.25" stroke="#ccc" stroke-width="1" />
<line x1="65" y1="304.5" x2="665" y2="304.5" stroke="#ccc" stroke-width="1" />
<line x1="65" y1="210.75000000000006" x2="665" y2="210.75000000000006" stroke="#ccc" stroke-width="1" />
<line x1="65" y1="117.00000000000006" x2="665" y2="117.00000000000006" stroke="#ccc" stroke-width="1" />
<line x1="65" y1="492" x2="65" y2="497" stroke="black" stroke-width="1" />
<text x="65" y="507" font-size="10" text-anchor="middle">0.00</text>
<line x1="190" y1="492" x2="190" y2="497" stroke="black" stroke-width="1" />
<text x="190" y="507" font-size="10" text-anchor="middle">0.25</text>
<line x1="315" y1="492" x2="315" y2="497" stroke="black" stroke-width="1" />
<text x="315" y="507" font-size="10" text-anchor="middle">0.50</text>
<line x1="439.99999999999994" y1="492" x2="439.99999999999994" y2="497" stroke="black" stroke-width="1" />
<text x="439.99999999999994" y="507" font-size="10" text-anchor="middle">0.75</text>
<line x1="565" y1="492" x2="565" y2="497" stroke="black" stroke-width="1" />
<text x="565" y="507" font-size="10" text-anchor="middle">1.00</text>
<line x1="60" y1="492" x2="65" y2="492" stroke="black" stroke-width="1" />
<text x="57" y="495.5" font-size="10" text-anchor="end">0.00</text>
<line x1="60" y1="398.25" x2="65" y2="398.25" stroke="black" stroke-width="1" />
<text x="57" y="401.75" font-size="10" text-anchor="end">0.25</text>
<line x1="60" y1="304.5" x2="65" y2="304.5" stroke="black" stroke-width="1" />
<text x="57" y="308" font-size="10" text-anchor="end">0.50</text>
<line x1="60" y1="210.75000000000006" x2="65" y2="210.75000000000006" stroke="black" stroke-width="1" />
<text x="57" y="214.25000000000006" font-size="10" text-anchor="end">0.75</text>
<line x1="60" y1="117.00000000000006" x2="65" y2="117.00000000000006" stroke="black" stroke-width="1" />
<text x="57" y="120.50000000000006" font-size="10" text-anchor="end">1.00</text>
<text x="339.5" y="21" font-size="16" text-anchor="middle">Fixed(2)</text>
<circle cx="65" cy="492" r="5" fill="steelblue" />
<circle cx="190" cy="398.25" r="5" fill="steelblue" />
<circle cx="315" cy="304.5" r="5" fill="steelblue" />
<circle cx="439.99999999999994" cy="210.75000000000006" r="5" fill="steelblue" />
<circle cx="565" cy="117.00000000000006" r="5" fill="steelblue" />
</svg>
