<svg xmlns="http://www.w3.org/2000/svg" width="280" height="220" font-family="DejaVu Sans, Liberation Sans, Arial, sans-serif" fill="black"><rect width="100%" height="100%" fill="white" /><line x1="59" y1="169" x2="266" y2="169" stroke="#000000" stroke-width="1" /><line x1="59" y1="44" x2="59" y2="169" stroke="#000000" stroke-width="1" /><line x1="88.57000000000001" y1="44" x2="88.57000000000001" y2="169" stroke="#cccccc" stroke-width="1" /><line x1="118.14" y1="44" x2="118.14" y2="169" stroke="#cccccc" stroke-width="1" /><line x1="147.71" y1="44" x2="147.71" y2="169" stroke="#cccccc" stroke-width="1" /><line x1="177.29" y1="44" x2="177.29" y2="169" stroke="#cccccc" stroke-width="1" /><line x1="206.86" y1="44" x2="206.86" y2="169" stroke="#cccccc" stroke-width="1" /><line x1="236.43" y1="44" x2="236.43" y2="169" stroke="#cccccc" stroke-width="1" /><line x1="266" y1="44" x2="266" y2="169" stroke="#cccccc" stroke-width="1" /><line x1="59" y1="144" x2="266" y2="144" stroke="#cccccc" stroke-width="1" /><line x1="59" y1="119" x2="266" y2="119" stroke="#cccccc" stroke-width="1" /><line x1="59" y1="94" x2="266" y2="94" stroke="#cccccc" stroke-width="1" /><line x1="59" y1="69" x2="266" y2="69" stroke="#cccccc" stroke-width="1" /><line x1="59" y1="44" x2="266" y2="44" stroke="#cccccc" stroke-width="1" /><line x1="59" y1="169" x2="59" y2="174" stroke="#000000" stroke-width="1" /><text x="59" y="186" font-size="12" text-anchor="middle">-4</text><line x1="88.57000000000001" y1="169" x2="88.57000000000001" y2="174" stroke="#000000" stroke-width="1" /><text x="88.57000000000001" y="186" font-size="12" text-anchor="middle">-3</text><line x1="118.14" y1="169" x2="118.14" y2="174" stroke="#000000" stroke-width="1" /><text x="118.14" y="186" font-size="12" text-anchor="middle">-2</text><line x1="147.71" y1="169" x2="147.71" y2="174" stroke="#000000" stroke-width="1" /><text x="147.71" y="186" font-size="12" text-anchor="middle">-1</text><line x1="177.29" y1="169" x2="177.29" y2="174" stroke="#000000" stroke-width="1" /><text x="177.29" y="186" font-size="12" text-anchor="middle">0</text><line x1="206.86" y1="169" x2="206.86" y2="174" stroke="#000000" stroke-width="1" /><text x="206.86" y="186" font-size="12" text-anchor="middle">1</text><line x1="236.43" y1="169" x2="236.43" y2="174" stroke="#000000" stroke-width="1" /><text x="236.43" y="186" font-size="12" text-anchor="middle">2</text><line x1="266" y1="169" x2="266" y2="174" stroke="#000000" stroke-width="1" /><text x="266" y="186" font-size="12" text-anchor="middle">3</text><line x1="54" y1="169" x2="59" y2="169" stroke="#000000" stroke-width="1" /><text x="51" y="173.20000000000002" font-size="12" text-anchor="end">0</text><line x1="54" y1="144" x2="59" y2="144" stroke="#000000" stroke-width="1" /><text x="51" y="148.20000000000002" font-size="12" text-anchor="end">0.1</text><line x1="54" y1="119" x2="59" y2="119" stroke="#000000" stroke-width="1" /><text x="51" y="123.2" font-size="12" text-anchor="end">0.2</text><line x1="54" y1="94" x2="59" y2="94" stroke="#000000" stroke-width="1" /><text x="51" y="98.2" font-size="12" text-anchor="end">0.3</text><line x1="54" y1="69" x2="59" y2="69" stroke="#000000" stroke-width="1" /><text x="51" y="73.2" font-size="12" text-anchor="end">0.4</text><line x1="54" y1="44" x2="59" y2="44" stroke="#000000" stroke-width="1" /><text x="51" y="48.2" font-size="12" text-anchor="end">0.5</text><text x="162.5" y="213" font-size="14" text-anchor="middle">Value</text><text x="15" y="110" font-size="14" text-anchor="middle" transform="rotate(-90,15,110)">Density</text><text x="162.5" y="22" font-size="18" text-anchor="middle">Auto — Silverman</text><path d="M 86.49 168.98 L 87.36 168.97 L 88.24 168.96 L 89.11 168.95000000000002 L 89.99 168.93 L 90.86 168.91 L 91.74 168.88 L 92.61 168.85 L 93.49 168.8 L 94.36 168.75 L 95.24 168.69 L 96.11 168.62 L 96.99000000000001 168.53 L 97.86 168.43 L 98.73 168.31 L 99.61 168.18 L 100.48 168.02 L 101.36 167.84 L 102.23 167.64000000000001 L 103.11 167.42000000000002 L 103.98 167.17000000000002 L 104.86 166.91 L 105.73 166.61 L 106.61 166.29 L 107.48 165.94 L 108.36 165.57 L 109.23 165.16 L 110.11 164.72 L 110.98 164.24 L 111.85000000000001 163.73 L 112.73 163.16 L 113.60000000000001 162.54 L 114.48 161.85 L 115.35000000000001 161.09 L 116.23 160.24 L 117.10000000000001 159.29 L 117.98 158.23 L 118.85000000000001 157.03 L 119.73 155.69 L 120.60000000000001 154.19 L 121.48 152.51 L 122.35000000000001 150.65 L 123.23 148.58 L 124.10000000000001 146.31 L 124.98 143.82 L 125.85000000000001 141.12 L 126.72 138.22 L 127.60000000000001 135.1 L 128.47 131.8 L 129.35 128.32 L 130.22 124.69 L 131.1 120.93 L 131.97 117.07000000000001 L 132.85 113.14 L 133.72 109.17 L 134.6 105.21000000000001 L 135.47 101.27 L 136.35 97.42 L 137.22 93.67 L 138.1 90.06 L 138.97 86.63 L 139.84 83.41 L 140.72 80.43 L 141.59 77.72 L 142.47 75.29 L 143.34 73.17 L 144.22 71.37 L 145.09 69.9 L 145.97 68.79 L 146.84 68.03 L 147.72 67.62 L 148.59 67.57000000000001 L 149.47 67.87 L 150.34 68.52 L 151.22 69.5 L 152.09 70.8 L 152.96 72.42 L 153.84 74.32000000000001 L 154.71 76.49 L 155.59 78.91 L 156.46 81.56 L 157.34 84.41 L 158.21 87.43 L 159.09 90.59 L 159.96 93.88 L 160.84 97.25 L 161.71 100.68 L 162.59 104.15 L 163.46 107.61 L 164.34 111.05 L 165.21 114.43 L 166.08 117.72 L 166.96 120.9 L 167.83 123.94 L 168.71 126.82000000000001 L 169.58 129.51 L 170.46 131.99 L 171.33 134.24 L 172.21 136.25 L 173.08 137.99 L 173.96 139.45000000000002 L 174.83 140.63 L 175.71 141.52 L 176.58 142.1 L 177.46 142.37 L 178.33 142.33 L 179.21 141.99 L 180.08 141.33 L 180.95000000000002 140.37 L 181.83 139.11 L 182.70000000000002 137.55 L 183.58 135.71 L 184.45000000000002 133.6 L 185.33 131.23 L 186.20000000000002 128.61 L 187.08 125.77 L 187.95000000000002 122.72 L 188.83 119.49000000000001 L 189.70000000000002 116.10000000000001 L 190.58 112.58 L 191.45000000000002 108.96000000000001 L 192.33 105.28 L 193.20000000000002 101.57000000000001 L 194.07 97.88 L 194.95000000000002 94.23 L 195.82 90.66 L 196.70000000000002 87.23 L 197.57 83.96000000000001 L 198.45000000000002 80.9 L 199.32 78.09 L 200.20000000000002 75.54 L 201.07 73.31 L 201.95000000000002 71.4 L 202.82 69.84 L 203.70000000000002 68.66 L 204.57 67.85 L 205.45000000000002 67.43 L 206.32 67.39 L 207.19 67.74 L 208.07 68.45 L 208.94 69.53 L 209.82 70.94 L 210.69 72.67 L 211.57 74.69 L 212.44 76.97 L 213.32 79.5 L 214.19 82.23 L 215.07 85.14 L 215.94 88.2 L 216.82 91.38 L 217.69 94.66 L 218.57 98.0 L 219.44 101.38 L 220.32 104.79 L 221.19 108.2 L 222.06 111.59 L 222.94 114.94 L 223.81 118.25 L 224.69 121.49000000000001 L 225.56 124.66 L 226.44 127.74000000000001 L 227.31 130.73 L 228.19 133.62 L 229.06 136.41 L 229.94 139.08 L 230.81 141.63 L 231.69 144.07 L 232.56 146.38 L 233.44 148.56 L 234.31 150.61 L 235.18 152.54 L 236.06 154.33 L 236.93 156.0 L 237.81 157.53 L 238.68 158.94 L 239.56 160.23 L 240.43 161.39000000000001 L 241.31 162.45000000000002 L 242.18 163.39000000000001 L 243.06 164.22 L 243.93 164.96 L 244.81 165.61 L 245.68 166.17000000000002 L 246.56 166.66 L 247.43 167.07 L 248.3 167.43 L 249.18 167.73 L 250.05 167.98 L 250.93 168.18 L 251.8 168.35 L 252.68 168.49 L 253.55 168.6 L 254.43 168.69 L 255.3 168.77 L 256.18 168.82 L 257.05 168.87 L 257.93 168.9 L 258.8 168.93 L 259.68 168.95000000000002 L 260.55 168.96" stroke="#4682b4" stroke-width="2" fill="none" /></svg>