<svg xmlns="http://www.w3.org/2000/svg" width="280" height="220" font-family="DejaVu Sans, Liberation Sans, Arial, sans-serif" fill="black"><rect width="100%" height="100%" fill="white" /><line x1="59" y1="169" x2="266" y2="169" stroke="#000000" stroke-width="1" /><line x1="59" y1="44" x2="59" y2="169" stroke="#000000" stroke-width="1" /><line x1="93.5" y1="44" x2="93.5" y2="169" stroke="#cccccc" stroke-width="1" /><line x1="128" y1="44" x2="128" y2="169" stroke="#cccccc" stroke-width="1" /><line x1="162.5" y1="44" x2="162.5" y2="169" stroke="#cccccc" stroke-width="1" /><line x1="197" y1="44" x2="197" y2="169" stroke="#cccccc" stroke-width="1" /><line x1="231.5" y1="44" x2="231.5" y2="169" stroke="#cccccc" stroke-width="1" /><line x1="266" y1="44" x2="266" y2="169" stroke="#cccccc" stroke-width="1" /><line x1="59" y1="148.17000000000002" x2="266" y2="148.17000000000002" stroke="#cccccc" stroke-width="1" /><line x1="59" y1="127.33" x2="266" y2="127.33" stroke="#cccccc" stroke-width="1" /><line x1="59" y1="106.5" x2="266" y2="106.5" stroke="#cccccc" stroke-width="1" /><line x1="59" y1="85.67" x2="266" y2="85.67" stroke="#cccccc" stroke-width="1" /><line x1="59" y1="64.83" x2="266" y2="64.83" stroke="#cccccc" stroke-width="1" /><line x1="59" y1="44" x2="266" y2="44" stroke="#cccccc" stroke-width="1" /><line x1="59" y1="169" x2="59" y2="174" stroke="#000000" stroke-width="1" /><text x="59" y="186" font-size="12" text-anchor="middle">-3</text><line x1="93.5" y1="169" x2="93.5" y2="174" stroke="#000000" stroke-width="1" /><text x="93.5" y="186" font-size="12" text-anchor="middle">-2</text><line x1="128" y1="169" x2="128" y2="174" stroke="#000000" stroke-width="1" /><text x="128" y="186" font-size="12" text-anchor="middle">-1</text><line x1="162.5" y1="169" x2="162.5" y2="174" stroke="#000000" stroke-width="1" /><text x="162.5" y="186" font-size="12" text-anchor="middle">0</text><line x1="197" y1="169" x2="197" y2="174" stroke="#000000" stroke-width="1" /><text x="197" y="186" font-size="12" text-anchor="middle">1</text><line x1="231.5" y1="169" x2="231.5" y2="174" stroke="#000000" stroke-width="1" /><text x="231.5" y="186" font-size="12" text-anchor="middle">2</text><line x1="266" y1="169" x2="266" y2="174" stroke="#000000" stroke-width="1" /><text x="266" y="186" font-size="12" text-anchor="middle">3</text><line x1="54" y1="169" x2="59" y2="169" stroke="#000000" stroke-width="1" /><text x="51" y="173.20000000000002" font-size="12" text-anchor="end">0</text><line x1="54" y1="148.17000000000002" x2="59" y2="148.17000000000002" stroke="#000000" stroke-width="1" /><text x="51" y="152.37" font-size="12" text-anchor="end">0.1</text><line x1="54" y1="127.33" x2="59" y2="127.33" stroke="#000000" stroke-width="1" /><text x="51" y="131.53" font-size="12" text-anchor="end">0.2</text><line x1="54" y1="106.5" x2="59" y2="106.5" stroke="#000000" stroke-width="1" /><text x="51" y="110.7" font-size="12" text-anchor="end">0.3</text><line x1="54" y1="85.67" x2="59" y2="85.67" stroke="#000000" stroke-width="1" /><text x="51" y="89.87" font-size="12" text-anchor="end">0.4</text><line x1="54" y1="64.83" x2="59" y2="64.83" stroke="#000000" stroke-width="1" /><text x="51" y="69.03" font-size="12" text-anchor="end">0.5</text><line x1="54" y1="44" x2="59" y2="44" stroke="#000000" stroke-width="1" /><text x="51" y="48.2" font-size="12" text-anchor="end">0.6</text><text x="162.5" y="213" font-size="14" text-anchor="middle">Value</text><text x="15" y="110" font-size="14" text-anchor="middle" transform="rotate(-90,15,110)">Density</text><text x="162.5" y="22" font-size="18" text-anchor="middle">h = 0.1 (too narrow)</text><path d="M 77.85000000000001 168.96 L 78.66 168.93 L 79.46000000000001 168.86 L 80.27 168.76 L 81.08 168.58 L 81.88 168.31 L 82.69 167.93 L 83.5 167.42000000000002 L 84.3 166.77 L 85.11 165.99 L 85.92 165.12 L 86.72 164.20000000000002 L 87.53 163.31 L 88.34 162.49 L 89.14 161.82 L 89.95 161.32 L 90.76 161.02 L 91.56 160.93 L 92.37 161.02 L 93.18 161.29 L 93.98 161.71 L 94.79 162.24 L 95.60000000000001 162.85 L 96.4 163.47 L 97.21000000000001 164.05 L 98.01 164.5 L 98.82000000000001 164.74 L 99.63 164.71 L 100.43 164.37 L 101.24000000000001 163.70000000000002 L 102.05 162.73 L 102.85000000000001 161.48 L 103.66 159.96 L 104.47 158.18 L 105.27 156.08 L 106.08 153.55 L 106.89 150.47 L 107.69 146.70000000000002 L 108.5 142.14000000000001 L 109.31 136.78 L 110.11 130.71 L 110.92 124.16 L 111.73 117.41 L 112.53 110.81 L 113.34 104.68 L 114.15 99.28 L 114.95 94.74 L 115.76 91.12 L 116.57000000000001 88.36 L 117.37 86.35000000000001 L 118.18 84.91 L 118.99000000000001 83.85000000000001 L 119.79 82.97 L 120.60000000000001 82.05 L 121.41 80.92 L 122.21000000000001 79.44 L 123.02 77.55 L 123.83 75.32000000000001 L 124.63000000000001 72.87 L 125.44 70.43 L 126.25 68.21000000000001 L 127.05 66.41 L 127.86 65.16 L 128.67000000000002 64.53 L 129.47 64.5 L 130.28 65.01 L 131.09 66.0 L 131.89000000000001 67.4 L 132.7 69.17 L 133.51 71.28 L 134.31 73.73 L 135.12 76.5 L 135.92000000000002 79.58 L 136.73 82.94 L 137.54 86.52 L 138.34 90.21000000000001 L 139.15 93.9 L 139.96 97.41 L 140.76 100.60000000000001 L 141.57 103.35000000000001 L 142.38 105.63 L 143.18 107.51 L 143.99 109.17 L 144.8 110.85000000000001 L 145.6 112.82000000000001 L 146.41 115.29 L 147.22 118.35000000000001 L 148.02 121.99000000000001 L 148.83 126.04 L 149.64000000000001 130.32 L 150.44 134.59 L 151.25 138.67000000000002 L 152.06 142.47 L 152.86 145.93 L 153.67000000000002 149.04 L 154.48 151.8 L 155.28 154.21 L 156.09 156.27 L 156.9 157.95000000000002 L 157.70000000000002 159.25 L 158.51 160.18 L 159.32 160.78 L 160.12 161.07 L 160.93 161.11 L 161.74 160.94 L 162.54 160.57 L 163.35 160.01 L 164.16 159.27 L 164.96 158.36 L 165.77 157.31 L 166.58 156.14000000000001 L 167.38 154.94 L 168.19 153.75 L 169.0 152.62 L 169.8 151.59 L 170.61 150.63 L 171.42000000000002 149.69 L 172.22 148.67000000000002 L 173.03 147.46 L 173.84 145.95000000000002 L 174.64000000000001 144.03 L 175.45000000000002 141.68 L 176.25 138.88 L 177.06 135.7 L 177.87 132.18 L 178.67000000000002 128.38 L 179.48 124.36 L 180.29 120.14 L 181.09 115.75 L 181.9 111.27 L 182.71 106.76 L 183.51 102.31 L 184.32 98.0 L 185.13 93.88 L 185.93 89.93 L 186.74 86.10000000000001 L 187.55 82.32000000000001 L 188.35 78.53 L 189.16 74.71000000000001 L 189.97 70.91 L 190.77 67.27 L 191.58 63.95 L 192.39000000000001 61.160000000000004 L 193.19 59.09 L 194.0 57.89 L 194.81 57.65 L 195.61 58.36 L 196.42000000000002 59.92 L 197.23000000000002 62.18 L 198.03 64.89 L 198.84 67.84 L 199.65 70.82000000000001 L 200.45000000000002 73.72 L 201.26 76.52 L 202.07 79.28 L 202.87 82.12 L 203.68 85.14 L 204.49 88.36 L 205.29 91.74 L 206.1 95.12 L 206.91 98.32000000000001 L 207.71 101.2 L 208.52 103.72 L 209.33 105.93 L 210.13 108.0 L 210.94 110.17 L 211.75 112.62 L 212.55 115.44 L 213.36 118.63 L 214.16 122.04 L 214.97 125.49000000000001 L 215.78 128.78 L 216.58 131.77 L 217.39000000000001 134.39000000000001 L 218.20000000000002 136.66 L 219.0 138.6 L 219.81 140.29 L 220.62 141.78 L 221.42000000000002 143.12 L 222.23000000000002 144.37 L 223.04 145.58 L 223.84 146.86 L 224.65 148.3 L 225.46 149.98 L 226.26 151.91 L 227.07 154.07 L 227.88 156.37 L 228.68 158.69 L 229.49 160.88 L 230.3 162.85 L 231.1 164.53 L 231.91 165.87 L 232.72 166.91 L 233.52 167.65 L 234.33 168.17000000000002 L 235.14000000000001 168.51 L 235.94 168.72 L 236.75 168.85 L 237.56 168.92000000000002 L 238.36 168.96" stroke="#4682b4" stroke-width="2" fill="none" /></svg>