<svg xmlns="http://www.w3.org/2000/svg" width="280" height="220" font-family="DejaVu Sans, Liberation Sans, Arial, sans-serif" fill="black"><rect width="100%" height="100%" fill="white" /><line x1="63.800000000000004" y1="169" x2="266" y2="169" stroke="#000000" stroke-width="1" /><line x1="63.800000000000004" y1="44" x2="63.800000000000004" y2="169" stroke="#000000" stroke-width="1" /><line x1="114.35000000000001" y1="44" x2="114.35000000000001" y2="169" stroke="#cccccc" stroke-width="1" /><line x1="164.9" y1="44" x2="164.9" y2="169" stroke="#cccccc" stroke-width="1" /><line x1="215.45000000000002" y1="44" x2="215.45000000000002" y2="169" stroke="#cccccc" stroke-width="1" /><line x1="266" y1="44" x2="266" y2="169" stroke="#cccccc" stroke-width="1" /><line x1="63.800000000000004" y1="137.75" x2="266" y2="137.75" stroke="#cccccc" stroke-width="1" /><line x1="63.800000000000004" y1="106.5" x2="266" y2="106.5" stroke="#cccccc" stroke-width="1" /><line x1="63.800000000000004" y1="75.25" x2="266" y2="75.25" stroke="#cccccc" stroke-width="1" /><line x1="63.800000000000004" y1="44" x2="266" y2="44" stroke="#cccccc" stroke-width="1" /><line x1="63.800000000000004" y1="169" x2="63.800000000000004" y2="174" stroke="#000000" stroke-width="1" /><text x="63.800000000000004" y="186" font-size="12" text-anchor="middle">-10</text><line x1="114.35000000000001" y1="169" x2="114.35000000000001" y2="174" stroke="#000000" stroke-width="1" /><text x="114.35000000000001" y="186" font-size="12" text-anchor="middle">-5</text><line x1="164.9" y1="169" x2="164.9" y2="174" stroke="#000000" stroke-width="1" /><text x="164.9" y="186" font-size="12" text-anchor="middle">0</text><line x1="215.45000000000002" y1="169" x2="215.45000000000002" y2="174" stroke="#000000" stroke-width="1" /><text x="215.45000000000002" y="186" font-size="12" text-anchor="middle">5</text><line x1="266" y1="169" x2="266" y2="174" stroke="#000000" stroke-width="1" /><text x="266" y="186" font-size="12" text-anchor="middle">10</text><line x1="58.800000000000004" y1="169" x2="63.800000000000004" y2="169" stroke="#000000" stroke-width="1" /><text x="55.800000000000004" y="173.20000000000002" font-size="12" text-anchor="end">0</text><line x1="58.800000000000004" y1="137.75" x2="63.800000000000004" y2="137.75" stroke="#000000" stroke-width="1" /><text x="55.800000000000004" y="141.95000000000002" font-size="12" text-anchor="end">0.05</text><line x1="58.800000000000004" y1="106.5" x2="63.800000000000004" y2="106.5" stroke="#000000" stroke-width="1" /><text x="55.800000000000004" y="110.7" font-size="12" text-anchor="end">0.1</text><line x1="58.800000000000004" y1="75.25" x2="63.800000000000004" y2="75.25" stroke="#000000" stroke-width="1" /><text x="55.800000000000004" y="79.45" font-size="12" text-anchor="end">0.15</text><line x1="58.800000000000004" y1="44" x2="63.800000000000004" y2="44" stroke="#000000" stroke-width="1" /><text x="55.800000000000004" y="48.2" font-size="12" text-anchor="end">0.2</text><text x="164.9" y="213" font-size="14" text-anchor="middle">Value</text><text x="15" y="110" font-size="14" text-anchor="middle" transform="rotate(-90,15,110)">Density</text><text x="164.9" y="22" font-size="18" text-anchor="middle">h = 2.0 (too wide)</text><path d="M 82.47 168.88 L 83.28 168.86 L 84.10000000000001 168.84 L 84.91 168.81 L 85.73 168.79 L 86.54 168.75 L 87.36 168.72 L 88.18 168.68 L 88.99 168.64000000000001 L 89.81 168.59 L 90.62 168.53 L 91.44 168.47 L 92.25 168.4 L 93.07000000000001 168.32 L 93.88 168.23 L 94.7 168.13 L 95.52 168.03 L 96.33 167.9 L 97.15 167.77 L 97.96000000000001 167.63 L 98.78 167.47 L 99.59 167.29 L 100.41 167.09 L 101.22 166.88 L 102.04 166.65 L 102.86 166.39000000000001 L 103.67 166.11 L 104.49000000000001 165.81 L 105.3 165.48 L 106.12 165.12 L 106.93 164.74 L 107.75 164.32 L 108.56 163.86 L 109.38 163.37 L 110.2 162.85 L 111.01 162.28 L 111.83 161.67000000000002 L 112.64 161.02 L 113.46000000000001 160.33 L 114.27 159.58 L 115.09 158.79 L 115.9 157.95000000000002 L 116.72 157.05 L 117.53 156.1 L 118.35000000000001 155.1 L 119.17 154.04 L 119.98 152.92000000000002 L 120.8 151.74 L 121.61 150.5 L 122.43 149.20000000000002 L 123.24000000000001 147.83 L 124.06 146.41 L 124.87 144.93 L 125.69 143.38 L 126.51 141.77 L 127.32000000000001 140.1 L 128.14000000000001 138.37 L 128.95 136.58 L 129.77 134.73 L 130.58 132.83 L 131.4 130.87 L 132.21 128.87 L 133.03 126.81 L 133.85 124.71000000000001 L 134.66 122.56 L 135.48 120.38 L 136.29 118.16 L 137.11 115.91 L 137.92000000000002 113.64 L 138.74 111.34 L 139.55 109.03 L 140.37 106.7 L 141.19 104.37 L 142.0 102.04 L 142.82 99.71000000000001 L 143.63 97.39 L 144.45000000000002 95.09 L 145.26 92.82000000000001 L 146.08 90.57000000000001 L 146.89000000000001 88.36 L 147.71 86.19 L 148.53 84.07000000000001 L 149.34 82.0 L 150.16 80.0 L 150.97 78.06 L 151.79 76.19 L 152.6 74.4 L 153.42000000000002 72.7 L 154.23 71.08 L 155.05 69.56 L 155.86 68.14 L 156.68 66.83 L 157.5 65.62 L 158.31 64.52 L 159.13 63.54 L 159.94 62.68 L 160.76 61.940000000000005 L 161.57 61.33 L 162.39000000000001 60.84 L 163.20000000000002 60.480000000000004 L 164.02 60.25 L 164.84 60.15 L 165.65 60.19 L 166.47 60.35 L 167.28 60.64 L 168.1 61.06 L 168.91 61.61 L 169.73 62.28 L 170.54 63.08 L 171.36 64.0 L 172.18 65.04 L 172.99 66.19 L 173.81 67.45 L 174.62 68.82000000000001 L 175.44 70.29 L 176.25 71.85000000000001 L 177.07 73.51 L 177.88 75.26 L 178.70000000000002 77.09 L 179.52 78.99 L 180.33 80.96000000000001 L 181.15 83.0 L 181.96 85.10000000000001 L 182.78 87.24 L 183.59 89.44 L 184.41 91.67 L 185.22 93.93 L 186.04 96.22 L 186.86 98.53 L 187.67000000000002 100.85000000000001 L 188.49 103.19 L 189.3 105.52 L 190.12 107.85000000000001 L 190.93 110.17 L 191.75 112.48 L 192.56 114.77 L 193.38 117.04 L 194.20000000000002 119.27 L 195.01 121.48 L 195.83 123.64 L 196.64000000000001 125.77 L 197.46 127.85000000000001 L 198.27 129.89000000000001 L 199.09 131.87 L 199.9 133.8 L 200.72 135.68 L 201.53 137.5 L 202.35 139.26 L 203.17000000000002 140.96 L 203.98000000000002 142.6 L 204.8 144.18 L 205.61 145.70000000000002 L 206.43 147.16 L 207.24 148.55 L 208.06 149.88 L 208.87 151.15 L 209.69 152.36 L 210.51 153.51 L 211.32 154.6 L 212.14000000000001 155.63 L 212.95000000000002 156.61 L 213.77 157.53 L 214.58 158.4 L 215.4 159.22 L 216.21 159.99 L 217.03 160.70000000000002 L 217.85 161.38 L 218.66 162.01 L 219.48000000000002 162.59 L 220.29 163.14000000000001 L 221.11 163.65 L 221.92000000000002 164.12 L 222.74 164.55 L 223.55 164.95000000000002 L 224.37 165.33 L 225.19 165.67000000000002 L 226.0 165.98 L 226.82 166.27 L 227.63 166.54 L 228.45000000000002 166.78 L 229.26 167.0 L 230.08 167.21 L 230.89000000000001 167.39000000000001 L 231.71 167.56 L 232.53 167.71 L 233.34 167.85 L 234.16 167.98 L 234.97 168.09 L 235.79 168.19 L 236.6 168.28 L 237.42000000000002 168.37 L 238.23000000000002 168.44 L 239.05 168.51 L 239.86 168.57 L 240.68 168.62 L 241.5 168.66 L 242.31 168.71 L 243.13 168.74 L 243.94 168.77 L 244.76 168.8" stroke="#4682b4" stroke-width="2" fill="none" /></svg>