<svg xmlns="http://www.w3.org/2000/svg" width="679" height="541" fill="black">
<rect width="100%" height="100%" fill="white" />
<line x1="65" y1="492" x2="665" y2="492" stroke="black" stroke-width="1" />
<line x1="65" y1="42" x2="65" y2="492" stroke="black" stroke-width="1" />
<line x1="185" y1="42" x2="185" y2="492" stroke="#ccc" stroke-width="1" />
<line x1="305" y1="42" x2="305" y2="492" stroke="#ccc" stroke-width="1" />
<line x1="425" y1="42" x2="425" y2="492" stroke="#ccc" stroke-width="1" />
<line x1="545" y1="42" x2="545" y2="492" stroke="#ccc" stroke-width="1" />
<line x1="665" y1="42" x2="665" y2="492" stroke="#ccc" stroke-width="1" />
<line x1="65" y1="417" x2="665" y2="417" stroke="#ccc" stroke-width="1" />
<line x1="65" y1="342" x2="665" y2="342" stroke="#ccc" stroke-width="1" />
<line x1="65" y1="267" x2="665" y2="267" stroke="#ccc" stroke-width="1" />
<line x1="65" y1="192" x2="665" y2="192" stroke="#ccc" stroke-width="1" />
<line x1="65" y1="117" x2="665" y2="117" stroke="#ccc" stroke-width="1" />
<line x1="65" y1="42" x2="665" y2="42" stroke="#ccc" stroke-width="1" />
<line x1="65" y1="492" x2="65" y2="497" stroke="black" stroke-width="1" />
<text x="65" y="507" font-size="10" text-anchor="middle">0</text>
<line x1="185" y1="492" x2="185" y2="497" stroke="black" stroke-width="1" />
<text x="185" y="507" font-size="10" text-anchor="middle">2</text>
<line x1="305" y1="492" x2="305" y2="497" stroke="black" stroke-width="1" />
<text x="305" y="507" font-size="10" text-anchor="middle">4</text>
<line x1="425" y1="492" x2="425" y2="497" stroke="black" stroke-width="1" />
<text x="425" y="507" font-size="10" text-anchor="middle">6</text>
<line x1="545" y1="492" x2="545" y2="497" stroke="black" stroke-width="1" />
<text x="545" y="507" font-size="10" text-anchor="middle">8</text>
<line x1="665" y1="492" x2="665" y2="497" stroke="black" stroke-width="1" />
<text x="665" y="507" font-size="10" text-anchor="middle">10</text>
<line x1="60" y1="492" x2="65" y2="492" stroke="black" stroke-width="1" />
<text x="57" y="495.5" font-size="10" text-anchor="end">0</text>
<line x1="60" y1="417" x2="65" y2="417" stroke="black" stroke-width="1" />
<text x="57" y="420.5" font-size="10" text-anchor="end">1</text>
<line x1="60" y1="342" x2="65" y2="342" stroke="black" stroke-width="1" />
<text x="57" y="345.5" font-size="10" text-anchor="end">2</text>
<line x1="60" y1="267" x2="65" y2="267" stroke="black" stroke-width="1" />
<text x="57" y="270.5" font-size="10" text-anchor="end">3</text>
<line x1="60" y1="192" x2="65" y2="192" stroke="black" stroke-width="1" />
<text x="57" y="195.5" font-size="10" text-anchor="end">4</text>
<line x1="60" y1="117" x2="65" y2="117" stroke="black" stroke-width="1" />
<text x="57" y="120.5" font-size="10" text-anchor="end">5</text>
<line x1="60" y1="42" x2="65" y2="42" stroke="black" stroke-width="1" />
<text x="57" y="45.5" font-size="10" text-anchor="end">6</text>
<text x="339.5" y="534" font-size="14" text-anchor="middle">X</text>
<text x="14" y="270.5" font-size="14" text-anchor="middle" transform="rotate(-90,14,270.5)">Y</text>
<text x="339.5" y="21" font-size="16" text-anchor="middle">Per-Point Colors</text>
<circle cx="125" cy="379.5" r="6" fill="steelblue" />
<circle cx="155" cy="342" r="6" fill="steelblue" />
<circle cx="185" cy="357" r="6" fill="steelblue" />
<circle cx="305" cy="154.5" r="6" fill="crimson" />
<circle cx="335" cy="117" r="6" fill="crimson" />
<circle cx="365" cy="132.00000000000006" r="6" fill="crimson" />
<circle cx="485" cy="342" r="6" fill="seagreen" />
<circle cx="515" cy="304.5" r="6" fill="seagreen" />
<circle cx="545" cy="327" r="6" fill="seagreen" />
</svg>
