<svg xmlns="http://www.w3.org/2000/svg" width="679" height="541" fill="black">
<rect width="100%" height="100%" fill="white" />
<line x1="65" y1="492" x2="665" y2="492" stroke="black" stroke-width="1" />
<line x1="65" y1="42" x2="65" y2="492" stroke="black" stroke-width="1" />
<line x1="65" y1="379.5" x2="665" y2="379.5" stroke="#ccc" stroke-width="1" />
<line x1="65" y1="267" x2="665" y2="267" stroke="#ccc" stroke-width="1" />
<line x1="65" y1="154.5" x2="665" y2="154.5" stroke="#ccc" stroke-width="1" />
<line x1="65" y1="42" x2="665" y2="42" stroke="#ccc" stroke-width="1" />
<text x="165" y="507" font-size="10" text-anchor="middle">Control</text>
<line x1="165" y1="492" x2="165" y2="497" stroke="black" stroke-width="1" />
<text x="365" y="507" font-size="10" text-anchor="middle">Bimodal</text>
<line x1="365" y1="492" x2="365" y2="497" stroke="black" stroke-width="1" />
<text x="565" y="507" font-size="10" text-anchor="middle">High-spread</text>
<line x1="565" y1="492" x2="565" y2="497" stroke="black" stroke-width="1" />
<line x1="60" y1="492" x2="65" y2="492" stroke="black" stroke-width="1" />
<text x="57" y="495.5" font-size="10" text-anchor="end">-5</text>
<line x1="60" y1="379.5" x2="65" y2="379.5" stroke="black" stroke-width="1" />
<text x="57" y="383" font-size="10" text-anchor="end">0</text>
<line x1="60" y1="267" x2="65" y2="267" stroke="black" stroke-width="1" />
<text x="57" y="270.5" font-size="10" text-anchor="end">5</text>
<line x1="60" y1="154.5" x2="65" y2="154.5" stroke="black" stroke-width="1" />
<text x="57" y="158" font-size="10" text-anchor="end">10</text>
<line x1="60" y1="42" x2="65" y2="42" stroke="black" stroke-width="1" />
<text x="57" y="45.5" font-size="10" text-anchor="end">15</text>
<text x="14" y="270.5" font-size="14" text-anchor="middle" transform="rotate(-90,14,270.5)">Value</text>
<text x="339.5" y="21" font-size="16" text-anchor="middle">Box + Strip</text>
<rect x="85" y="276.23274248875157" width="160" height="28.65793956608053" fill="steelblue" />
<line x1="85" y1="293.2840208653283" x2="245" y2="293.2840208653283" stroke="white" stroke-width="1.5" />
<line x1="165" y1="347.2679076628324" x2="165" y2="304.8906820548321" stroke="steelblue" stroke-width="1" />
<line x1="165" y1="276.23274248875157" x2="165" y2="238.09865697476718" stroke="steelblue" stroke-width="1" />
<line x1="125.00000000000001" y1="347.2679076628324" x2="204.99999999999997" y2="347.2679076628324" stroke="steelblue" stroke-width="1" />
<line x1="125.00000000000001" y1="238.09865697476718" x2="204.99999999999997" y2="238.09865697476718" stroke="steelblue" stroke-width="1" />
<rect x="285" y="228.2481153430349" width="160" height="89.2863756833707" fill="steelblue" />
<line x1="285" y1="278.41567568758506" x2="445" y2="278.41567568758506" stroke="white" stroke-width="1.5" />
<line x1="365" y1="358.43744646460203" x2="365" y2="317.5344910264056" stroke="steelblue" stroke-width="1" />
<line x1="365" y1="228.2481153430349" x2="365" y2="198.39390491056815" stroke="steelblue" stroke-width="1" />
<line x1="325" y1="358.43744646460203" x2="405.00000000000006" y2="358.43744646460203" stroke="steelblue" stroke-width="1" />
<line x1="325" y1="198.39390491056815" x2="405.00000000000006" y2="198.39390491056815" stroke="steelblue" stroke-width="1" />
<rect x="485.00000000000006" y="228.40975481262376" width="159.99999999999994" height="59.43943260769731" fill="steelblue" />
<line x1="485.00000000000006" y1="259.4323168613409" x2="645" y2="259.4323168613409" stroke="white" stroke-width="1.5" />
<line x1="565" y1="351.5285596391709" x2="565" y2="287.8491874203211" stroke="steelblue" stroke-width="1" />
<line x1="565" y1="228.40975481262376" x2="565" y2="193.2009429577318" stroke="steelblue" stroke-width="1" />
<line x1="525" y1="351.5285596391709" x2="605" y2="351.5285596391709" stroke="steelblue" stroke-width="1" />
<line x1="525" y1="193.2009429577318" x2="605" y2="193.2009429577318" stroke="steelblue" stroke-width="1" />
<circle cx="179.39176474343665" cy="297.6618758710075" r="2.5" fill="rgba(0,0,0,0.3)" />
<circle cx="175.7777506576685" cy="304.87813265769955" r="2.5" fill="rgba(0,0,0,0.3)" />
<circle cx="182.5127960481133" cy="329.52798512987783" r="2.5" fill="rgba(0,0,0,0.3)" />
<circle cx="148.81137358407872" cy="299.4763573954131" r="2.5" fill="rgba(0,0,0,0.3)" />
<circle cx="160.38713696568968" cy="259.6947146923734" r="2.5" fill="rgba(0,0,0,0.3)" />
<circle cx="149.22359342210427" cy="291.1535990801001" r="2.5" fill="rgba(0,0,0,0.3)" />
<circle cx="145.63484041439926" cy="279.1413037816729" r="2.5" fill="rgba(0,0,0,0.3)" />
<circle cx="156.6958912551797" cy="299.23125700272647" r="2.5" fill="rgba(0,0,0,0.3)" />
<circle cx="163.77510142599976" cy="303.9548421383255" r="2.5" fill="rgba(0,0,0,0.3)" />
<circle cx="178.75916889878349" cy="347.2679076628324" r="2.5" fill="rgba(0,0,0,0.3)" />
<circle cx="148.21962208595102" cy="299.06959246059296" r="2.5" fill="rgba(0,0,0,0.3)" />
<circle cx="180.25556355189093" cy="299.5687536210366" r="2.5" fill="rgba(0,0,0,0.3)" />
<circle cx="146.03850907495564" cy="300.15934994007534" r="2.5" fill="rgba(0,0,0,0.3)" />
<circle cx="158.676738583656" cy="298.76418027419845" r="2.5" fill="rgba(0,0,0,0.3)" />
<circle cx="164.3571920280981" cy="260.12105861764985" r="2.5" fill="rgba(0,0,0,0.3)" />
<circle cx="167.19229343967956" cy="304.8357491419877" r="2.5" fill="rgba(0,0,0,0.3)" />
<circle cx="163.22422406246753" cy="298.65148314927654" r="2.5" fill="rgba(0,0,0,0.3)" />
<circle cx="180.27420502628746" cy="238.09865697476718" r="2.5" fill="rgba(0,0,0,0.3)" />
<circle cx="168.83618154011126" cy="272.433185912971" r="2.5" fill="rgba(0,0,0,0.3)" />
<circle cx="180.34093261299012" cy="261.66920600394445" r="2.5" fill="rgba(0,0,0,0.3)" />
<circle cx="155.83059961935794" cy="326.2599061809309" r="2.5" fill="rgba(0,0,0,0.3)" />
<circle cx="153.25447439251525" cy="290.6914005266241" r="2.5" fill="rgba(0,0,0,0.3)" />
<circle cx="179.6939845549265" cy="244.04999560185524" r="2.5" fill="rgba(0,0,0,0.3)" />
<circle cx="145.62006586399997" cy="285.33863471177426" r="2.5" fill="rgba(0,0,0,0.3)" />
<circle cx="165.4875347118358" cy="283.23616368193774" r="2.5" fill="rgba(0,0,0,0.3)" />
<circle cx="169.04895699948594" cy="312.1290945322475" r="2.5" fill="rgba(0,0,0,0.3)" />
<circle cx="168.04738327561788" cy="257.81448200659133" r="2.5" fill="rgba(0,0,0,0.3)" />
<circle cx="159.6247883708376" cy="308.59517286510913" r="2.5" fill="rgba(0,0,0,0.3)" />
<circle cx="164.85530519869565" cy="281.9196475857218" r="2.5" fill="rgba(0,0,0,0.3)" />
<circle cx="164.02386642702155" cy="245.027399231748" r="2.5" fill="rgba(0,0,0,0.3)" />
<circle cx="148.39348873898223" cy="260.86964117414846" r="2.5" fill="rgba(0,0,0,0.3)" />
<circle cx="160.23763688180543" cy="336.77845499786497" r="2.5" fill="rgba(0,0,0,0.3)" />
<circle cx="146.22108257173443" cy="276.85483265143694" r="2.5" fill="rgba(0,0,0,0.3)" />
<circle cx="156.457230811775" cy="298.33994330293535" r="2.5" fill="rgba(0,0,0,0.3)" />
<circle cx="173.70593656790652" cy="313.011230552774" r="2.5" fill="rgba(0,0,0,0.3)" />
<circle cx="163.73258982149872" cy="303.05168415253024" r="2.5" fill="rgba(0,0,0,0.3)" />
<circle cx="170.03492433063633" cy="249.53969097615405" r="2.5" fill="rgba(0,0,0,0.3)" />
<circle cx="181.1577370663474" cy="259.7900784832382" r="2.5" fill="rgba(0,0,0,0.3)" />
<circle cx="156.24545111298704" cy="281.9718864724579" r="2.5" fill="rgba(0,0,0,0.3)" />
<circle cx="148.43614872961527" cy="227.58852038583933" r="2.5" fill="rgba(0,0,0,0.3)" />
<circle cx="156.63654592024028" cy="260.34491369179875" r="2.5" fill="rgba(0,0,0,0.3)" />
<circle cx="170.09849545053825" cy="355.47258507575924" r="2.5" fill="rgba(0,0,0,0.3)" />
<circle cx="157.63461654534802" cy="341.8740862116073" r="2.5" fill="rgba(0,0,0,0.3)" />
<circle cx="178.00492048687227" cy="253.37710559813667" r="2.5" fill="rgba(0,0,0,0.3)" />
<circle cx="156.87893563211819" cy="320.82276236317483" r="2.5" fill="rgba(0,0,0,0.3)" />
<circle cx="162.92295333823805" cy="296.380554118049" r="2.5" fill="rgba(0,0,0,0.3)" />
<circle cx="158.50195222276267" cy="322.9706000973356" r="2.5" fill="rgba(0,0,0,0.3)" />
<circle cx="155.55220551119967" cy="302.9367382332668" r="2.5" fill="rgba(0,0,0,0.3)" />
<circle cx="152.5912851494353" cy="294.29905050033534" r="2.5" fill="rgba(0,0,0,0.3)" />
<circle cx="154.01795145807574" cy="321.9118095401442" r="2.5" fill="rgba(0,0,0,0.3)" />
<circle cx="157.65760269221576" cy="274.3664720006951" r="2.5" fill="rgba(0,0,0,0.3)" />
<circle cx="177.75341690949244" cy="317.9765143844086" r="2.5" fill="rgba(0,0,0,0.3)" />
<circle cx="148.1207450104551" cy="293.38650112518667" r="2.5" fill="rgba(0,0,0,0.3)" />
<circle cx="167.23509111090524" cy="273.3720249382508" r="2.5" fill="rgba(0,0,0,0.3)" />
<circle cx="156.12213906196058" cy="302.72729005608596" r="2.5" fill="rgba(0,0,0,0.3)" />
<circle cx="170.0687365745303" cy="282.74758309875784" r="2.5" fill="rgba(0,0,0,0.3)" />
<circle cx="146.41781380711902" cy="282.0446851006767" r="2.5" fill="rgba(0,0,0,0.3)" />
<circle cx="163.45323894080383" cy="312.38966119895656" r="2.5" fill="rgba(0,0,0,0.3)" />
<circle cx="182.8311866077088" cy="286.9325909432432" r="2.5" fill="rgba(0,0,0,0.3)" />
<circle cx="162.9942178942039" cy="304.9283302462296" r="2.5" fill="rgba(0,0,0,0.3)" />
<circle cx="145.54097649566182" cy="266.98169898254696" r="2.5" fill="rgba(0,0,0,0.3)" />
<circle cx="164.7389217529968" cy="293.18154060546976" r="2.5" fill="rgba(0,0,0,0.3)" />
<circle cx="147.6010027521317" cy="306.5148639439828" r="2.5" fill="rgba(0,0,0,0.3)" />
<circle cx="181.25394404793263" cy="311.15588254780243" r="2.5" fill="rgba(0,0,0,0.3)" />
<circle cx="176.35666662620105" cy="279.33383505719576" r="2.5" fill="rgba(0,0,0,0.3)" />
<circle cx="175.1082644684027" cy="267.962478774653" r="2.5" fill="rgba(0,0,0,0.3)" />
<circle cx="162.4541668905695" cy="277.2582339478745" r="2.5" fill="rgba(0,0,0,0.3)" />
<circle cx="154.91906185884199" cy="299.67472750469085" r="2.5" fill="rgba(0,0,0,0.3)" />
<circle cx="152.0991902102003" cy="277.7318456579127" r="2.5" fill="rgba(0,0,0,0.3)" />
<circle cx="180.4556302103765" cy="284.42517362077234" r="2.5" fill="rgba(0,0,0,0.3)" />
<circle cx="179.27956647461258" cy="252.16482058604095" r="2.5" fill="rgba(0,0,0,0.3)" />
<circle cx="165.63444878741177" cy="299.251670618597" r="2.5" fill="rgba(0,0,0,0.3)" />
<circle cx="178.92825928219534" cy="312.6879529482204" r="2.5" fill="rgba(0,0,0,0.3)" />
<circle cx="158.00383541194412" cy="309.78332788558316" r="2.5" fill="rgba(0,0,0,0.3)" />
<circle cx="155.91653187253658" cy="288.29206125244684" r="2.5" fill="rgba(0,0,0,0.3)" />
<circle cx="164.3462926515657" cy="252.1230539683491" r="2.5" fill="rgba(0,0,0,0.3)" />
<circle cx="167.954967461668" cy="284.85919777249353" r="2.5" fill="rgba(0,0,0,0.3)" />
<circle cx="168.65177739354903" cy="279.3740294931914" r="2.5" fill="rgba(0,0,0,0.3)" />
<circle cx="181.36223488954127" cy="280.3368973034627" r="2.5" fill="rgba(0,0,0,0.3)" />
<circle cx="152.95205960152947" cy="307.96753253509974" r="2.5" fill="rgba(0,0,0,0.3)" />
<circle cx="379.39176474574657" cy="358.43744646460203" r="2.5" fill="rgba(0,0,0,0.3)" />
<circle cx="378.27760043519186" cy="305.51793981668055" r="2.5" fill="rgba(0,0,0,0.3)" />
<circle cx="361.7251280169431" cy="319.1205428055291" r="2.5" fill="rgba(0,0,0,0.3)" />
<circle cx="382.0608352239674" cy="288.39390491056815" r="2.5" fill="rgba(0,0,0,0.3)" />
<circle cx="380.69722819821106" cy="304.4180555966626" r="2.5" fill="rgba(0,0,0,0.3)" />
<circle cx="382.14339368599576" cy="330.40724431975946" r="2.5" fill="rgba(0,0,0,0.3)" />
<circle cx="370.99006256644884" cy="321.88796213853607" r="2.5" fill="rgba(0,0,0,0.3)" />
<circle cx="367.0251932170525" cy="315.61188037891884" r="2.5" fill="rgba(0,0,0,0.3)" />
<circle cx="345.79537245919624" cy="331.2142419502039" r="2.5" fill="rgba(0,0,0,0.3)" />
<circle cx="371.8240793625916" cy="310.51058165605195" r="2.5" fill="rgba(0,0,0,0.3)" />
<circle cx="346.2999120596209" cy="335.743105410524" r="2.5" fill="rgba(0,0,0,0.3)" />
<circle cx="347.1971604912286" cy="321.3527333133227" r="2.5" fill="rgba(0,0,0,0.3)" />
<circle cx="356.3378126290879" cy="307.06345363296145" r="2.5" fill="rgba(0,0,0,0.3)" />
<circle cx="376.15458974936894" cy="314.3185610874468" r="2.5" fill="rgba(0,0,0,0.3)" />
<circle cx="382.8735639786316" cy="298.06953836089605" r="2.5" fill="rgba(0,0,0,0.3)" />
<circle cx="355.25078898572986" cy="317.177678868091" r="2.5" fill="rgba(0,0,0,0.3)" />
<circle cx="362.4245255742884" cy="303.6803710714339" r="2.5" fill="rgba(0,0,0,0.3)" />
<circle cx="356.38566031614516" cy="316.50936336586614" r="2.5" fill="rgba(0,0,0,0.3)" />
<circle cx="368.51374909885385" cy="313.2934350923513" r="2.5" fill="rgba(0,0,0,0.3)" />
<circle cx="367.9990213263213" cy="304.0930517806335" r="2.5" fill="rgba(0,0,0,0.3)" />
<circle cx="373.65320230658097" cy="339.729212283439" r="2.5" fill="rgba(0,0,0,0.3)" />
<circle cx="362.5408607032729" cy="316.26880134553784" r="2.5" fill="rgba(0,0,0,0.3)" />
<circle cx="384.27853861270745" cy="352.14904759782166" r="2.5" fill="rgba(0,0,0,0.3)" />
<circle cx="361.1703720592444" cy="308.5486395992228" r="2.5" fill="rgba(0,0,0,0.3)" />
<circle cx="355.04373462403606" cy="320.03234267612265" r="2.5" fill="rgba(0,0,0,0.3)" />
<circle cx="361.776810373475" cy="334.56723102397933" r="2.5" fill="rgba(0,0,0,0.3)" />
<circle cx="379.7893826101542" cy="331.01194340056327" r="2.5" fill="rgba(0,0,0,0.3)" />
<circle cx="361.4032329084379" cy="316.34131094168265" r="2.5" fill="rgba(0,0,0,0.3)" />
<circle cx="352.1284788241382" cy="305.5531208264012" r="2.5" fill="rgba(0,0,0,0.3)" />
<circle cx="350.4151091614204" cy="321.9768498810123" r="2.5" fill="rgba(0,0,0,0.3)" />
<circle cx="374.4592669026763" cy="326.9456215703234" r="2.5" fill="rgba(0,0,0,0.3)" />
<circle cx="366.58858096775714" cy="338.96705271015725" r="2.5" fill="rgba(0,0,0,0.3)" />
<circle cx="353.54129883352" cy="327.2308232041695" r="2.5" fill="rgba(0,0,0,0.3)" />
<circle cx="363.31905960792875" cy="296.20563098933553" r="2.5" fill="rgba(0,0,0,0.3)" />
<circle cx="346.4372346957341" cy="318.6049275013495" r="2.5" fill="rgba(0,0,0,0.3)" />
<circle cx="384.5026989349267" cy="345.8836397673328" r="2.5" fill="rgba(0,0,0,0.3)" />
<circle cx="371.50955295506037" cy="333.84315501276825" r="2.5" fill="rgba(0,0,0,0.3)" />
<circle cx="345.6180005757068" cy="312.7929602232137" r="2.5" fill="rgba(0,0,0,0.3)" />
<circle cx="382.22912018616967" cy="342.4778184850236" r="2.5" fill="rgba(0,0,0,0.3)" />
<circle cx="351.0893939241794" cy="313.99395471769793" r="2.5" fill="rgba(0,0,0,0.3)" />
<circle cx="361.8212579933797" cy="268.43744646460203" r="2.5" fill="rgba(0,0,0,0.3)" />
<circle cx="361.82307573372145" cy="215.5179398166806" r="2.5" fill="rgba(0,0,0,0.3)" />
<circle cx="360.1666850154256" cy="229.12054280552906" r="2.5" fill="rgba(0,0,0,0.3)" />
<circle cx="368.9146199681166" cy="198.39390491056815" r="2.5" fill="rgba(0,0,0,0.3)" />
<circle cx="370.8934494206856" cy="214.4180555966626" r="2.5" fill="rgba(0,0,0,0.3)" />
<circle cx="366.40394986714415" cy="240.4072443197595" r="2.5" fill="rgba(0,0,0,0.3)" />
<circle cx="362.2203978397225" cy="231.88796213853612" r="2.5" fill="rgba(0,0,0,0.3)" />
<circle cx="356.8753781452621" cy="225.6118803789189" r="2.5" fill="rgba(0,0,0,0.3)" />
<circle cx="382.47105429718465" cy="241.2142419502039" r="2.5" fill="rgba(0,0,0,0.3)" />
<circle cx="366.4180780836874" cy="220.51058165605195" r="2.5" fill="rgba(0,0,0,0.3)" />
<circle cx="358.7724885459138" cy="245.74310541052398" r="2.5" fill="rgba(0,0,0,0.3)" />
<circle cx="369.8966787623577" cy="231.35273331332274" r="2.5" fill="rgba(0,0,0,0.3)" />
<circle cx="352.21299059948655" cy="217.06345363296145" r="2.5" fill="rgba(0,0,0,0.3)" />
<circle cx="380.5654444226119" cy="224.31856108744677" r="2.5" fill="rgba(0,0,0,0.3)" />
<circle cx="380.00376467347564" cy="208.06953836089605" r="2.5" fill="rgba(0,0,0,0.3)" />
<circle cx="376.0880343991642" cy="227.17767886809094" r="2.5" fill="rgba(0,0,0,0.3)" />
<circle cx="378.3214060763659" cy="213.6803710714339" r="2.5" fill="rgba(0,0,0,0.3)" />
<circle cx="359.80591717966723" cy="226.5093633658662" r="2.5" fill="rgba(0,0,0,0.3)" />
<circle cx="346.0492120583014" cy="223.29343509235127" r="2.5" fill="rgba(0,0,0,0.3)" />
<circle cx="353.9111331698218" cy="214.09305178063352" r="2.5" fill="rgba(0,0,0,0.3)" />
<circle cx="369.59175962905" cy="249.72921228343895" r="2.5" fill="rgba(0,0,0,0.3)" />
<circle cx="345.9615233490409" cy="226.26880134553784" r="2.5" fill="rgba(0,0,0,0.3)" />
<circle cx="349.22355086820187" cy="262.14904759782166" r="2.5" fill="rgba(0,0,0,0.3)" />
<circle cx="376.0855147186328" cy="218.54863959922284" r="2.5" fill="rgba(0,0,0,0.3)" />
<circle cx="361.35871535036915" cy="230.0323426761226" r="2.5" fill="rgba(0,0,0,0.3)" />
<circle cx="381.820071715971" cy="244.56723102397936" r="2.5" fill="rgba(0,0,0,0.3)" />
<circle cx="349.907203320882" cy="241.01194340056333" r="2.5" fill="rgba(0,0,0,0.3)" />
<circle cx="372.479139158896" cy="226.34131094168265" r="2.5" fill="rgba(0,0,0,0.3)" />
<circle cx="380.5882369209733" cy="215.5531208264012" r="2.5" fill="rgba(0,0,0,0.3)" />
<circle cx="373.77731067781286" cy="231.9768498810123" r="2.5" fill="rgba(0,0,0,0.3)" />
<circle cx="384.14783170762473" cy="236.94562157032345" r="2.5" fill="rgba(0,0,0,0.3)" />
<circle cx="384.77826600981234" cy="248.96705271015725" r="2.5" fill="rgba(0,0,0,0.3)" />
<circle cx="377.5998892550055" cy="237.2308232041695" r="2.5" fill="rgba(0,0,0,0.3)" />
<circle cx="383.35012037857786" cy="206.20563098933553" r="2.5" fill="rgba(0,0,0,0.3)" />
<circle cx="367.19223941243547" cy="228.6049275013495" r="2.5" fill="rgba(0,0,0,0.3)" />
<circle cx="370.18366107867996" cy="255.88363976733277" r="2.5" fill="rgba(0,0,0,0.3)" />
<circle cx="357.89854806447295" cy="243.84315501276825" r="2.5" fill="rgba(0,0,0,0.3)" />
<circle cx="374.3694275049392" cy="222.7929602232137" r="2.5" fill="rgba(0,0,0,0.3)" />
<circle cx="350.56426875456646" cy="252.4778184850236" r="2.5" fill="rgba(0,0,0,0.3)" />
<circle cx="368.2873766129473" cy="223.99395471769793" r="2.5" fill="rgba(0,0,0,0.3)" />
<circle cx="579.3917647480587" cy="214.62957784648995" r="2.5" fill="rgba(0,0,0,0.3)" />
<circle cx="570.7786615269442" cy="279.7156599642302" r="2.5" fill="rgba(0,0,0,0.3)" />
<circle cx="571.6128084277198" cy="223.72073407122974" r="2.5" fill="rgba(0,0,0,0.3)" />
<circle cx="568.3642092345182" cy="261.5191471532181" r="2.5" fill="rgba(0,0,0,0.3)" />
<circle cx="567.8025090133401" cy="193.8971241577126" r="2.5" fill="rgba(0,0,0,0.3)" />
<circle cx="559.369506750462" cy="221.20214289079996" r="2.5" fill="rgba(0,0,0,0.3)" />
<circle cx="582.327542346266" cy="206.1003290675776" r="2.5" fill="rgba(0,0,0,0.3)" />
<circle cx="551.32072578376" cy="310.30777374546096" r="2.5" fill="rgba(0,0,0,0.3)" />
<circle cx="577.9545888016936" cy="294.11871048496886" r="2.5" fill="rgba(0,0,0,0.3)" />
<circle cx="580.8151154516385" cy="216.22853006652286" r="2.5" fill="rgba(0,0,0,0.3)" />
<circle cx="584.5700556124553" cy="276.99531755090806" r="2.5" fill="rgba(0,0,0,0.3)" />
<circle cx="575.4983131548388" cy="278.2173210851039" r="2.5" fill="rgba(0,0,0,0.3)" />
<circle cx="580.5357512644349" cy="285.58682943427243" r="2.5" fill="rgba(0,0,0,0.3)" />
<circle cx="552.6659382508756" cy="274.9513748074495" r="2.5" fill="rgba(0,0,0,0.3)" />
<circle cx="566.8941231073707" cy="212.31583850696484" r="2.5" fill="rgba(0,0,0,0.3)" />
<circle cx="579.3043188077711" cy="230.98399789589092" r="2.5" fill="rgba(0,0,0,0.3)" />
<circle cx="552.0261858099705" cy="246.22649508229526" r="2.5" fill="rgba(0,0,0,0.3)" />
<circle cx="574.2846935186669" cy="248.8792752956682" r="2.5" fill="rgba(0,0,0,0.3)" />
<circle cx="549.5365869752304" cy="289.873050412401" r="2.5" fill="rgba(0,0,0,0.3)" />
<circle cx="554.5264299958861" cy="256.35300122039905" r="2.5" fill="rgba(0,0,0,0.3)" />
<circle cx="554.8471577742569" cy="280.9312892792797" r="2.5" fill="rgba(0,0,0,0.3)" />
<circle cx="571.1478896195833" cy="292.3131958247806" r="2.5" fill="rgba(0,0,0,0.3)" />
<circle cx="546.7965317098178" cy="202.7990320339178" r="2.5" fill="rgba(0,0,0,0.3)" />
<circle cx="551.108453043265" cy="226.6516034329524" r="2.5" fill="rgba(0,0,0,0.3)" />
<circle cx="578.1938370091693" cy="302.3569880103219" r="2.5" fill="rgba(0,0,0,0.3)" />
<circle cx="577.6002128380936" cy="264.1759962465798" r="2.5" fill="rgba(0,0,0,0.3)" />
<circle cx="560.3147666756979" cy="268.83967345760755" r="2.5" fill="rgba(0,0,0,0.3)" />
<circle cx="572.6138376309923" cy="217.81179779406938" r="2.5" fill="rgba(0,0,0,0.3)" />
<circle cx="578.5855119951459" cy="257.92742413369314" r="2.5" fill="rgba(0,0,0,0.3)" />
<circle cx="571.9246450051712" cy="290.8787313029924" r="2.5" fill="rgba(0,0,0,0.3)" />
<circle cx="578.405158868405" cy="327.8760682823158" r="2.5" fill="rgba(0,0,0,0.3)" />
<circle cx="558.7183723107912" cy="218.71397409730054" r="2.5" fill="rgba(0,0,0,0.3)" />
<circle cx="550.0376437860051" cy="231.38864660615565" r="2.5" fill="rgba(0,0,0,0.3)" />
<circle cx="582.0560132602174" cy="199.94939777209294" r="2.5" fill="rgba(0,0,0,0.3)" />
<circle cx="583.6161934985939" cy="305.7139385830263" r="2.5" fill="rgba(0,0,0,0.3)" />
<circle cx="579.2856592125527" cy="249.14049063410675" r="2.5" fill="rgba(0,0,0,0.3)" />
<circle cx="564.8121767744767" cy="351.5285596391709" r="2.5" fill="rgba(0,0,0,0.3)" />
<circle cx="564.9875763165546" cy="310.2345783943422" r="2.5" fill="rgba(0,0,0,0.3)" />
<circle cx="553.5048436568236" cy="287.17456642296116" r="2.5" fill="rgba(0,0,0,0.3)" />
<circle cx="568.6474130520178" cy="325.95866342610236" r="2.5" fill="rgba(0,0,0,0.3)" />
<circle cx="565.4441658543196" cy="255.0708081344834" r="2.5" fill="rgba(0,0,0,0.3)" />
<circle cx="558.0343429298089" cy="235.13722735407998" r="2.5" fill="rgba(0,0,0,0.3)" />
<circle cx="561.1821881696637" cy="308.1426588395959" r="2.5" fill="rgba(0,0,0,0.3)" />
<circle cx="552.0743150822474" cy="228.99580527251425" r="2.5" fill="rgba(0,0,0,0.3)" />
<circle cx="580.6214470786596" cy="296.670105852316" r="2.5" fill="rgba(0,0,0,0.3)" />
<circle cx="547.4452935794882" cy="318.02734644333145" r="2.5" fill="rgba(0,0,0,0.3)" />
<circle cx="562.4662798466211" cy="266.0859175465512" r="2.5" fill="rgba(0,0,0,0.3)" />
<circle cx="546.9030056504648" cy="295.8176151683683" r="2.5" fill="rgba(0,0,0,0.3)" />
<circle cx="545.5031676137105" cy="325.74063380397325" r="2.5" fill="rgba(0,0,0,0.3)" />
<circle cx="545.7238069070622" cy="226.39430252582275" r="2.5" fill="rgba(0,0,0,0.3)" />
<circle cx="565.354684377638" cy="324.66150785623375" r="2.5" fill="rgba(0,0,0,0.3)" />
<circle cx="583.7976469964442" cy="286.88201059659264" r="2.5" fill="rgba(0,0,0,0.3)" />
<circle cx="554.6311905152759" cy="258.5679598466796" r="2.5" fill="rgba(0,0,0,0.3)" />
<circle cx="563.2616354574075" cy="254.52474693576374" r="2.5" fill="rgba(0,0,0,0.3)" />
<circle cx="580.447155437489" cy="261.039969576991" r="2.5" fill="rgba(0,0,0,0.3)" />
<circle cx="548.1435651471782" cy="283.4386296474196" r="2.5" fill="rgba(0,0,0,0.3)" />
<circle cx="557.4255171033099" cy="246.05124653616693" r="2.5" fill="rgba(0,0,0,0.3)" />
<circle cx="552.9388217190858" cy="204.86745196970804" r="2.5" fill="rgba(0,0,0,0.3)" />
<circle cx="564.730246143336" cy="275.0367683251176" r="2.5" fill="rgba(0,0,0,0.3)" />
<circle cx="554.4469271394663" cy="252.69965311140908" r="2.5" fill="rgba(0,0,0,0.3)" />
<circle cx="570.8695821076856" cy="198.84144929903522" r="2.5" fill="rgba(0,0,0,0.3)" />
<circle cx="580.5288031646843" cy="347.86287488317413" r="2.5" fill="rgba(0,0,0,0.3)" />
<circle cx="554.6790608503616" cy="247.5681107125757" r="2.5" fill="rgba(0,0,0,0.3)" />
<circle cx="566.7764549132527" cy="193.2009429577318" r="2.5" fill="rgba(0,0,0,0.3)" />
<circle cx="578.4880125195315" cy="253.2142971448242" r="2.5" fill="rgba(0,0,0,0.3)" />
<circle cx="560.2897457685877" cy="231.7294118038934" r="2.5" fill="rgba(0,0,0,0.3)" />
<circle cx="584.3635722471778" cy="238.40977874747614" r="2.5" fill="rgba(0,0,0,0.3)" />
<circle cx="569.7820032801988" cy="206.56792839504567" r="2.5" fill="rgba(0,0,0,0.3)" />
<circle cx="579.8965277950872" cy="221.80684118541842" r="2.5" fill="rgba(0,0,0,0.3)" />
<circle cx="577.6322619052881" cy="202.90619313450168" r="2.5" fill="rgba(0,0,0,0.3)" />
<circle cx="581.2844904050796" cy="261.065224142583" r="2.5" fill="rgba(0,0,0,0.3)" />
<circle cx="583.1801431048008" cy="259.6567467314103" r="2.5" fill="rgba(0,0,0,0.3)" />
<circle cx="556.8884772374643" cy="303.44973481228186" r="2.5" fill="rgba(0,0,0,0.3)" />
<circle cx="556.4503332729109" cy="259.2078869912715" r="2.5" fill="rgba(0,0,0,0.3)" />
<circle cx="571.8323711476435" cy="238.96876164296177" r="2.5" fill="rgba(0,0,0,0.3)" />
<circle cx="553.4786937583681" cy="268.70962205873536" r="2.5" fill="rgba(0,0,0,0.3)" />
<circle cx="579.6255124118595" cy="275.39989660527" r="2.5" fill="rgba(0,0,0,0.3)" />
<circle cx="545.1879911523788" cy="293.9091269882499" r="2.5" fill="rgba(0,0,0,0.3)" />
<circle cx="579.1256865477919" cy="266.49450114879494" r="2.5" fill="rgba(0,0,0,0.3)" />
<circle cx="562.4567567362568" cy="215.1968387170063" r="2.5" fill="rgba(0,0,0,0.3)" />
</svg>
