<svg xmlns="http://www.w3.org/2000/svg" width="679" height="541" fill="black">
<rect width="100%" height="100%" fill="white" />
<line x1="65" y1="492" x2="665" y2="492" stroke="black" stroke-width="1" />
<line x1="65" y1="42" x2="65" y2="492" stroke="black" stroke-width="1" />
<line x1="65" y1="379.5" x2="665" y2="379.5" stroke="#ccc" stroke-width="1" />
<line x1="65" y1="267" x2="665" y2="267" stroke="#ccc" stroke-width="1" />
<line x1="65" y1="154.5" x2="665" y2="154.5" stroke="#ccc" stroke-width="1" />
<line x1="65" y1="42" x2="665" y2="42" stroke="#ccc" stroke-width="1" />
<text x="165" y="507" font-size="10" text-anchor="middle">Control</text>
<line x1="165" y1="492" x2="165" y2="497" stroke="black" stroke-width="1" />
<text x="365" y="507" font-size="10" text-anchor="middle">Treatment</text>
<line x1="365" y1="492" x2="365" y2="497" stroke="black" stroke-width="1" />
<text x="565" y="507" font-size="10" text-anchor="middle">Placebo</text>
<line x1="565" y1="492" x2="565" y2="497" stroke="black" stroke-width="1" />
<line x1="60" y1="492" x2="65" y2="492" stroke="black" stroke-width="1" />
<text x="57" y="495.5" font-size="10" text-anchor="end">0</text>
<line x1="60" y1="379.5" x2="65" y2="379.5" stroke="black" stroke-width="1" />
<text x="57" y="383" font-size="10" text-anchor="end">2</text>
<line x1="60" y1="267" x2="65" y2="267" stroke="black" stroke-width="1" />
<text x="57" y="270.5" font-size="10" text-anchor="end">4</text>
<line x1="60" y1="154.5" x2="65" y2="154.5" stroke="black" stroke-width="1" />
<text x="57" y="158" font-size="10" text-anchor="end">6</text>
<line x1="60" y1="42" x2="65" y2="42" stroke="black" stroke-width="1" />
<text x="57" y="45.5" font-size="10" text-anchor="end">8</text>
<text x="14" y="270.5" font-size="14" text-anchor="middle" transform="rotate(-90,14,270.5)">Measurement</text>
<text x="339.5" y="21" font-size="16" text-anchor="middle">Per-Group Colors</text>
<circle cx="186.58764711515505" cy="261.375" r="4" fill="steelblue" />
<circle cx="181.1666259865027" cy="210.75" r="4" fill="steelblue" />
<circle cx="191.26919407217" cy="193.875" r="4" fill="steelblue" />
<circle cx="140.71706037611807" cy="165.75" r="4" fill="steelblue" />
<circle cx="158.0807054485345" cy="143.25" r="4" fill="steelblue" />
<circle cx="141.33539013315638" cy="227.625" r="4" fill="steelblue" />
<circle cx="386.5876471186198" cy="182.625" r="4" fill="crimson" />
<circle cx="384.91640065278773" cy="148.875" r="4" fill="crimson" />
<circle cx="360.08769202541464" cy="132" r="4" fill="crimson" />
<circle cx="390.591252835951" cy="87" r="4" fill="crimson" />
<circle cx="388.5458422973166" cy="53.25" r="4" fill="crimson" />
<circle cx="390.7150905289935" cy="103.875" r="4" fill="crimson" />
<circle cx="586.5876471220881" cy="272.625" r="4" fill="seagreen" />
<circle cx="573.6679922904162" cy="238.875" r="4" fill="seagreen" />
<circle cx="574.9192126415797" cy="222" r="4" fill="seagreen" />
<circle cx="570.0463138517773" cy="205.125" r="4" fill="seagreen" />
<circle cx="569.2037635200102" cy="177" r="4" fill="seagreen" />
<circle cx="556.5542601256931" cy="250.125" r="4" fill="seagreen" />
</svg>
