<svg xmlns="http://www.w3.org/2000/svg" width="759" height="541" fill="black">
<rect width="100%" height="100%" fill="white" />
<line x1="65" y1="492" x2="665" y2="492" stroke="black" stroke-width="1" />
<line x1="65" y1="42" x2="65" y2="492" stroke="black" stroke-width="1" />
<line x1="65" y1="402" x2="665" y2="402" stroke="#ccc" stroke-width="1" />
<line x1="65" y1="312" x2="665" y2="312" stroke="#ccc" stroke-width="1" />
<line x1="65" y1="222" x2="665" y2="222" stroke="#ccc" stroke-width="1" />
<line x1="65" y1="132" x2="665" y2="132" stroke="#ccc" stroke-width="1" />
<line x1="65" y1="42" x2="665" y2="42" stroke="#ccc" stroke-width="1" />
<text x="165" y="507" font-size="10" text-anchor="middle">WT</text>
<line x1="165" y1="492" x2="165" y2="497" stroke="black" stroke-width="1" />
<text x="365" y="507" font-size="10" text-anchor="middle">HET</text>
<line x1="365" y1="492" x2="365" y2="497" stroke="black" stroke-width="1" />
<text x="565" y="507" font-size="10" text-anchor="middle">KO</text>
<line x1="565" y1="492" x2="565" y2="497" stroke="black" stroke-width="1" />
<line x1="60" y1="492" x2="65" y2="492" stroke="black" stroke-width="1" />
<text x="57" y="495.5" font-size="10" text-anchor="end">0</text>
<line x1="60" y1="402" x2="65" y2="402" stroke="black" stroke-width="1" />
<text x="57" y="405.5" font-size="10" text-anchor="end">2.5</text>
<line x1="60" y1="312" x2="65" y2="312" stroke="black" stroke-width="1" />
<text x="57" y="315.5" font-size="10" text-anchor="end">5</text>
<line x1="60" y1="222" x2="65" y2="222" stroke="black" stroke-width="1" />
<text x="57" y="225.5" font-size="10" text-anchor="end">7.5</text>
<line x1="60" y1="132" x2="65" y2="132" stroke="black" stroke-width="1" />
<text x="57" y="135.5" font-size="10" text-anchor="end">10</text>
<line x1="60" y1="42" x2="65" y2="42" stroke="black" stroke-width="1" />
<text x="57" y="45.5" font-size="10" text-anchor="end">12.5</text>
<text x="14" y="270.5" font-size="14" text-anchor="middle" transform="rotate(-90,14,270.5)">Expression</text>
<text x="379.5" y="21" font-size="16" text-anchor="middle">Two Lines – Palette</text>
<circle cx="186.58764711515505" cy="315.859438896801" r="2.5" fill="#E69F00" />
<circle cx="181.1666259865027" cy="324.22383366514157" r="2.5" fill="#E69F00" />
<circle cx="191.26919407217" cy="307.81127335393694" r="2.5" fill="#E69F00" />
<circle cx="140.71706037611807" cy="371.8600875278337" r="2.5" fill="#E69F00" />
<circle cx="158.0807054485345" cy="311.5106806966521" r="2.5" fill="#E69F00" />
<circle cx="141.33539013315638" cy="363.2795622083472" r="2.5" fill="#E69F00" />
<circle cx="135.9522606215989" cy="320.24029442252277" r="2.5" fill="#E69F00" />
<circle cx="152.54383688276957" cy="306.5701366153048" r="2.5" fill="#E69F00" />
<circle cx="163.16265213899962" cy="328.47996388665695" r="2.5" fill="#E69F00" />
<circle cx="185.63875334817521" cy="294.9187496720276" r="2.5" fill="#E69F00" />
<circle cx="139.82943312892655" cy="365.5220414590934" r="2.5" fill="#E69F00" />
<circle cx="187.8833453278364" cy="314.69676284599313" r="2.5" fill="#E69F00" />
<circle cx="136.5577636124335" cy="318.5545931081987" r="2.5" fill="#E69F00" />
<circle cx="155.515107875484" cy="321.18638563287936" r="2.5" fill="#E69F00" />
<circle cx="164.03578804214717" cy="393.21686227357856" r="2.5" fill="#E69F00" />
<circle cx="168.28844015951933" cy="337.7914698840295" r="2.5" fill="#E69F00" />
<circle cx="162.33633609370133" cy="356.92000050903" r="2.5" fill="#E69F00" />
<circle cx="187.9113075394312" cy="300.11911281011385" r="2.5" fill="#E69F00" />
<circle cx="170.7542723101669" cy="282.22719333570944" r="2.5" fill="#E69F00" />
<circle cx="188.0113989194852" cy="281.56167727566844" r="2.5" fill="#E69F00" />
<circle cx="151.2458994290369" cy="331.8355751238622" r="2.5" fill="#E69F00" />
<circle cx="147.38171158877287" cy="261.3019504959721" r="2.5" fill="#E69F00" />
<circle cx="187.04097683238973" cy="326.0211808253446" r="2.5" fill="#E69F00" />
<circle cx="135.93009879599998" cy="314.0106612621704" r="2.5" fill="#E69F00" />
<circle cx="165.7313020677537" cy="299.00279432211477" r="2.5" fill="#E69F00" />
<circle cx="171.07343549922888" cy="296.84479167554764" r="2.5" fill="#E69F00" />
<circle cx="169.5710749134268" cy="315.97444340912125" r="2.5" fill="#E69F00" />
<circle cx="156.93718255625635" cy="335.29238963691955" r="2.5" fill="#E69F00" />
<circle cx="164.78295779804347" cy="343.09847092500763" r="2.5" fill="#E69F00" />
<circle cx="163.53579964053233" cy="337.08778841903063" r="2.5" fill="#E69F00" />
<circle cx="140.09023310847334" cy="257.0265356123056" r="2.5" fill="#E69F00" />
<circle cx="157.85645532270814" cy="304.81941074722033" r="2.5" fill="#E69F00" />
<circle cx="136.83162385760164" cy="348.4465267462228" r="2.5" fill="#E69F00" />
<circle cx="152.18584621766252" cy="317.1814441620045" r="2.5" fill="#E69F00" />
<circle cx="178.05890485185978" cy="348.0390231405183" r="2.5" fill="#E69F00" />
<circle cx="163.09888473224808" cy="330.611143338213" r="2.5" fill="#E69F00" />
<circle cx="172.55238649595447" cy="291.5068631198782" r="2.5" fill="#E69F00" />
<circle cx="189.2366055995211" cy="320.1977576281581" r="2.5" fill="#E69F00" />
<circle cx="151.8681766694806" cy="325.82654602928494" r="2.5" fill="#E69F00" />
<circle cx="140.1542230944229" cy="366.29425582417707" r="2.5" fill="#E69F00" />
<circle cx="152.4548188803604" cy="330.0548966706387" r="2.5" fill="#E69F00" />
<circle cx="172.64774317580734" cy="351.6482083591691" r="2.5" fill="#E69F00" />
<circle cx="153.951924818022" cy="315.43838346936934" r="2.5" fill="#E69F00" />
<circle cx="184.50738073030837" cy="304.30188194271034" r="2.5" fill="#E69F00" />
<circle cx="152.8184034481773" cy="374.7299348277925" r="2.5" fill="#E69F00" />
<circle cx="161.88443000735708" cy="251.9426904296902" r="2.5" fill="#E69F00" />
<circle cx="155.252928334144" cy="387.70261557972185" r="2.5" fill="#E69F00" />
<circle cx="150.8283082667995" cy="322.9183610385435" r="2.5" fill="#E69F00" />
<circle cx="146.3869277241529" cy="234.8953665013929" r="2.5" fill="#E69F00" />
<circle cx="148.52692718711359" cy="296.74011492394595" r="2.5" fill="#E69F00" />
<circle cx="153.98640403832366" cy="312.4618700350628" r="2.5" fill="#E69F00" />
<circle cx="184.13012536423867" cy="313.1922656596065" r="2.5" fill="#E69F00" />
<circle cx="139.68111751568267" cy="258.6265440947527" r="2.5" fill="#E69F00" />
<circle cx="168.3526366663579" cy="265.16810342878136" r="2.5" fill="#E69F00" />
<circle cx="151.6832085929409" cy="361.81793455377067" r="2.5" fill="#E69F00" />
<circle cx="172.6031048617955" cy="317.4845106862468" r="2.5" fill="#E69F00" />
<circle cx="137.1267207106785" cy="303.0282117235597" r="2.5" fill="#E69F00" />
<circle cx="162.67985841120571" cy="292.9553523801866" r="2.5" fill="#E69F00" />
<circle cx="191.74677991156318" cy="303.30686848505195" r="2.5" fill="#E69F00" />
<circle cx="161.99132684130586" cy="303.6659692626675" r="2.5" fill="#E69F00" />
<circle cx="135.81146474349276" cy="327.352409869635" r="2.5" fill="#E69F00" />
<circle cx="164.60838262949517" cy="309.36023295066246" r="2.5" fill="#E69F00" />
<circle cx="138.9015041281976" cy="308.56279629706836" r="2.5" fill="#E69F00" />
<circle cx="189.38091607189895" cy="286.8044753700967" r="2.5" fill="#E69F00" />
<circle cx="182.03499993930157" cy="310.45849480016506" r="2.5" fill="#E69F00" />
<circle cx="180.1623967026041" cy="283.68170299660756" r="2.5" fill="#E69F00" />
<circle cx="161.18125033585423" cy="320.29296673855174" r="2.5" fill="#E69F00" />
<circle cx="149.87859278826295" cy="314.10921586270337" r="2.5" fill="#E69F00" />
<circle cx="145.64878531530042" cy="293.7627223928257" r="2.5" fill="#E69F00" />
<circle cx="188.18344531556474" cy="303.19754598374584" r="2.5" fill="#E69F00" />
<circle cx="186.41934971191887" cy="327.15619104861173" r="2.5" fill="#E69F00" />
<circle cx="165.9516731811177" cy="348.35483486576777" r="2.5" fill="#E69F00" />
<circle cx="185.89238892329303" cy="292.8085445323346" r="2.5" fill="#E69F00" />
<circle cx="154.50575311791619" cy="353.4120731099621" r="2.5" fill="#E69F00" />
<circle cx="151.37479780880486" cy="339.48725590578823" r="2.5" fill="#E69F00" />
<circle cx="164.01943897734853" cy="286.8158213297711" r="2.5" fill="#E69F00" />
<circle cx="169.432451192502" cy="294.42169075626305" r="2.5" fill="#E69F00" />
<circle cx="170.47766609032357" cy="260.8438613953832" r="2.5" fill="#E69F00" />
<circle cx="189.54335233431192" cy="317.9616375847103" r="2.5" fill="#E69F00" />
<circle cx="146.92808940229418" cy="246.40038416458023" r="2.5" fill="#E69F00" />
<circle cx="148.31803749839438" cy="303.14011199284334" r="2.5" fill="#E69F00" />
<circle cx="171.32999190610394" cy="284.9649434622404" r="2.5" fill="#E69F00" />
<circle cx="154.4450084543274" cy="329.3768184017469" r="2.5" fill="#E69F00" />
<circle cx="185.59369423334743" cy="296.28596594461294" r="2.5" fill="#E69F00" />
<circle cx="186.62625056531328" cy="299.9756214148136" r="2.5" fill="#E69F00" />
<circle cx="137.2689217631717" cy="331.2561146729754" r="2.5" fill="#E69F00" />
<circle cx="148.84589977510163" cy="344.58887205161034" r="2.5" fill="#E69F00" />
<circle cx="143.7719657520339" cy="257.3647623346767" r="2.5" fill="#E69F00" />
<circle cx="189.63602741364858" cy="343.67385326379423" r="2.5" fill="#E69F00" />
<circle cx="181.21823152939658" cy="352.75209021451707" r="2.5" fill="#E69F00" />
<circle cx="159.90799823934532" cy="389.09169721369585" r="2.5" fill="#E69F00" />
<circle cx="158.78557291205368" cy="316.02337874869204" r="2.5" fill="#E69F00" />
<circle cx="137.08898912821255" cy="354.31249054358204" r="2.5" fill="#E69F00" />
<circle cx="174.93352155865384" cy="309.6712585510628" r="2.5" fill="#E69F00" />
<circle cx="142.15804818617238" cy="322.95900392767356" r="2.5" fill="#E69F00" />
<circle cx="180.2168447213606" cy="335.0975600834935" r="2.5" fill="#E69F00" />
<circle cx="148.92154891613478" cy="345.477399145399" r="2.5" fill="#E69F00" />
<circle cx="192.07493295134958" cy="348.03503580789504" r="2.5" fill="#E69F00" />
<circle cx="172.38165707752262" cy="305.65279878573705" r="2.5" fill="#E69F00" />
<circle cx="155.22635150562036" cy="338.49798852753736" r="2.5" fill="#E69F00" />
<circle cx="164.12533859312714" cy="259.601754749718" r="2.5" fill="#E69F00" />
<circle cx="175.14069305096905" cy="300.9693783939612" r="2.5" fill="#E69F00" />
<circle cx="185.91465569425486" cy="255.96809980425692" r="2.5" fill="#E69F00" />
<circle cx="143.62880580690336" cy="285.8026475414381" r="2.5" fill="#E69F00" />
<circle cx="144.81498819670406" cy="334.53890426649025" r="2.5" fill="#E69F00" />
<circle cx="144.27744952198913" cy="271.1316319504108" r="2.5" fill="#E69F00" />
<circle cx="164.71353268824572" cy="281.0879146178179" r="2.5" fill="#E69F00" />
<circle cx="165.00262762708627" cy="301.6836857478797" r="2.5" fill="#E69F00" />
<circle cx="136.38730691342437" cy="303.62288150873934" r="2.5" fill="#E69F00" />
<circle cx="168.27201746336016" cy="303.15944354392775" r="2.5" fill="#E69F00" />
<circle cx="154.4909830248015" cy="330.0009274039254" r="2.5" fill="#E69F00" />
<circle cx="149.77523200941744" cy="322.64406675655573" r="2.5" fill="#E69F00" />
<circle cx="175.40317912637838" cy="303.16942541521547" r="2.5" fill="#E69F00" />
<circle cx="174.02487934884408" cy="315.92938790821256" r="2.5" fill="#E69F00" />
<circle cx="180.89235074568887" cy="310.116450044413" r="2.5" fill="#E69F00" />
<circle cx="150.00109514722857" cy="318.80932629075073" r="2.5" fill="#E69F00" />
<circle cx="162.80746394835973" cy="350.9965378576768" r="2.5" fill="#E69F00" />
<circle cx="146.01778524467005" cy="311.8122409963265" r="2.5" fill="#E69F00" />
<circle cx="181.5299903815035" cy="342.23479918492694" r="2.5" fill="#E69F00" />
<circle cx="144.10180723164714" cy="294.2828412904253" r="2.5" fill="#E69F00" />
<circle cx="190.0474457139652" cy="294.4186671272612" r="2.5" fill="#E69F00" />
<circle cx="185.1031163752886" cy="287.14360440421297" r="2.5" fill="#E69F00" />
<circle cx="153.61657256612045" cy="306.81452959403316" r="2.5" fill="#E69F00" />
<circle cx="184.9129204209103" cy="305.5863517702195" r="2.5" fill="#E69F00" />
<circle cx="143.5802038323267" cy="306.94972891819896" r="2.5" fill="#E69F00" />
<circle cx="161.699772009978" cy="328.929654880046" r="2.5" fill="#E69F00" />
<circle cx="146.75169276953665" cy="327.50392755788016" r="2.5" fill="#E69F00" />
<circle cx="156.92624193609353" cy="278.4789438566377" r="2.5" fill="#E69F00" />
<circle cx="189.97172896458056" cy="296.4382341756002" r="2.5" fill="#E69F00" />
<circle cx="144.55191566507904" cy="292.4930866804493" r="2.5" fill="#E69F00" />
<circle cx="183.19551863097146" cy="336.25204327874434" r="2.5" fill="#E69F00" />
<circle cx="149.98899483069476" cy="341.6547159881124" r="2.5" fill="#E69F00" />
<circle cx="192.64377570962284" cy="323.9024266959142" r="2.5" fill="#E69F00" />
<circle cx="187.21177788692742" cy="231.2280774493086" r="2.5" fill="#E69F00" />
<circle cx="191.54417068517057" cy="301.8110161136268" r="2.5" fill="#E69F00" />
<circle cx="135.65406926552365" cy="322.5117559028069" r="2.5" fill="#E69F00" />
<circle cx="157.02057289884263" cy="288.3421750328341" r="2.5" fill="#E69F00" />
<circle cx="151.30304741158983" cy="326.93497131783204" r="2.5" fill="#E69F00" />
<circle cx="171.40344722706374" cy="323.95462138298933" r="2.5" fill="#E69F00" />
<circle cx="142.0138077556082" cy="312.8519739236996" r="2.5" fill="#E69F00" />
<circle cx="154.21759014800236" cy="277.51967383272836" r="2.5" fill="#E69F00" />
<circle cx="164.68312721849475" cy="266.87780934684724" r="2.5" fill="#E69F00" />
<circle cx="186.53203691462343" cy="293.2892930046778" r="2.5" fill="#E69F00" />
<circle cx="145.38878141045421" cy="309.0944038326269" r="2.5" fill="#E69F00" />
<circle cx="150.32646062079158" cy="314.9614560018176" r="2.5" fill="#E69F00" />
<circle cx="177.47686469063063" cy="345.83475334540276" r="2.5" fill="#E69F00" />
<circle cx="143.13488765667603" cy="361.2972429785524" r="2.5" fill="#E69F00" />
<circle cx="142.72228143506908" cy="374.6729722294605" r="2.5" fill="#E69F00" />
<circle cx="145.63755327152455" cy="381.269917278118" r="2.5" fill="#E69F00" />
<circle cx="167.63395848026266" cy="313.2925181687532" r="2.5" fill="#E69F00" />
<circle cx="136.32683768270115" cy="278.2195279081998" r="2.5" fill="#E69F00" />
<circle cx="160.86266494546123" cy="302.1172696898633" r="2.5" fill="#E69F00" />
<circle cx="156.34548430080744" cy="278.4221574790388" r="2.5" fill="#E69F00" />
<circle cx="159.91102722298183" cy="276.25137023454784" r="2.5" fill="#E69F00" />
<circle cx="156.62276705856763" cy="290.2466525364039" r="2.5" fill="#E69F00" />
<circle cx="146.61566491075007" cy="343.10941044888466" r="2.5" fill="#E69F00" />
<circle cx="194.866976360878" cy="340.88195143422263" r="2.5" fill="#E69F00" />
<circle cx="151.55628101921303" cy="318.88777001931464" r="2.5" fill="#E69F00" />
<circle cx="164.48232390888074" cy="374.5274139621083" r="2.5" fill="#E69F00" />
<circle cx="181.07230761044036" cy="272.05654300601486" r="2.5" fill="#E69F00" />
<circle cx="180.91044755359462" cy="234.68969290250254" r="2.5" fill="#E69F00" />
<circle cx="177.2882232959157" cy="328.6213227114803" r="2.5" fill="#E69F00" />
<circle cx="161.45602902212113" cy="325.16093178131666" r="2.5" fill="#E69F00" />
<circle cx="180.22008414698058" cy="273.1206762502945" r="2.5" fill="#E69F00" />
<circle cx="137.85220744928714" cy="286.9515014595777" r="2.5" fill="#E69F00" />
<circle cx="168.5974534346289" cy="330.8012152962807" r="2.5" fill="#E69F00" />
<circle cx="170.42172402930183" cy="352.88798020173203" r="2.5" fill="#E69F00" />
<circle cx="193.98821308834206" cy="386.65884748731753" r="2.5" fill="#E69F00" />
<circle cx="145.61718889481762" cy="272.7043986623741" r="2.5" fill="#E69F00" />
<circle cx="175.7250371382305" cy="333.30193251736694" r="2.5" fill="#E69F00" />
<circle cx="179.7241469852744" cy="308.0123161465818" r="2.5" fill="#E69F00" />
<circle cx="147.97174690042445" cy="321.89064675657585" r="2.5" fill="#E69F00" />
<circle cx="145.72337676900125" cy="281.70258539399947" r="2.5" fill="#E69F00" />
<circle cx="144.76180976393607" cy="257.2891384323351" r="2.5" fill="#E69F00" />
<circle cx="147.87762992938428" cy="328.82360532938804" r="2.5" fill="#E69F00" />
<circle cx="156.52499892077986" cy="308.53943864573125" r="2.5" fill="#E69F00" />
<circle cx="136.78957791127795" cy="401.85233378796283" r="2.5" fill="#E69F00" />
<circle cx="176.7629229298223" cy="345.9587119787408" r="2.5" fill="#E69F00" />
<circle cx="166.70290200407294" cy="322.2654235353058" r="2.5" fill="#E69F00" />
<circle cx="168.47354386292744" cy="251.15677978926044" r="2.5" fill="#E69F00" />
<circle cx="165.54608568176113" cy="310.6688996494304" r="2.5" fill="#E69F00" />
<circle cx="137.9783895562589" cy="262.0773938253993" r="2.5" fill="#E69F00" />
<circle cx="146.2357226644679" cy="255.24048983488976" r="2.5" fill="#E69F00" />
<circle cx="191.19872299600345" cy="306.53254602853895" r="2.5" fill="#E69F00" />
<circle cx="151.38762891850445" cy="296.14956617127984" r="2.5" fill="#E69F00" />
<circle cx="172.01369759992684" cy="296.8074528061784" r="2.5" fill="#E69F00" />
<circle cx="164.24810287310268" cy="278.50814686588205" r="2.5" fill="#E69F00" />
<circle cx="170.3298949209909" cy="305.73408706707045" r="2.5" fill="#E69F00" />
<circle cx="147.821600139183" cy="311.67084987782187" r="2.5" fill="#E69F00" />
<circle cx="187.56903897341687" cy="335.41030906793515" r="2.5" fill="#E69F00" />
<circle cx="173.50856114183568" cy="297.25333464524306" r="2.5" fill="#E69F00" />
<circle cx="173.94991759783903" cy="286.2815719816633" r="2.5" fill="#E69F00" />
<circle cx="179.24593477334284" cy="304.066260689876" r="2.5" fill="#E69F00" />
<circle cx="136.79346207150206" cy="242.42032246677368" r="2.5" fill="#E69F00" />
<circle cx="158.9189907108171" cy="280.6556101987826" r="2.5" fill="#E69F00" />
<circle cx="170.8942637475786" cy="347.19133119794174" r="2.5" fill="#E69F00" />
<circle cx="152.9277547924134" cy="338.74688734580604" r="2.5" fill="#E69F00" />
<circle cx="184.0569737707039" cy="337.33551746222804" r="2.5" fill="#E69F00" />
<circle cx="138.09687452963072" cy="330.5965406107332" r="2.5" fill="#E69F00" />
<circle cx="143.42743449176038" cy="324.5636808140234" r="2.5" fill="#E69F00" />
<circle cx="386.5876471186198" cy="267.1386674244802" r="2.5" fill="#E69F00" />
<circle cx="384.91640065278773" cy="241.9696890451447" r="2.5" fill="#E69F00" />
<circle cx="360.08769202541464" cy="193.1188836537117" r="2.5" fill="#E69F00" />
<circle cx="390.591252835951" cy="310.9717682723042" r="2.5" fill="#E69F00" />
<circle cx="388.5458422973166" cy="223.33375463581484" r="2.5" fill="#E69F00" />
<circle cx="390.7150905289935" cy="196.0269404559224" r="2.5" fill="#E69F00" />
<circle cx="373.98509384967326" cy="294.29658508525284" r="2.5" fill="#E69F00" />
<circle cx="368.03778982557867" cy="253.34532014064493" r="2.5" fill="#E69F00" />
<circle cx="336.1930586887944" cy="283.7815458301958" r="2.5" fill="#E69F00" />
<circle cx="375.2361190438874" cy="191.48273611244326" r="2.5" fill="#E69F00" />
<circle cx="336.94986808943133" cy="285.16026288139926" r="2.5" fill="#E69F00" />
<circle cx="338.2957407368429" cy="292.863237699603" r="2.5" fill="#E69F00" />
<circle cx="352.0067189436319" cy="226.76503104420397" r="2.5" fill="#E69F00" />
<circle cx="381.73188462405346" cy="246.3492470843773" r="2.5" fill="#E69F00" />
<circle cx="391.81034596794734" cy="254.49273170587884" r="2.5" fill="#E69F00" />
<circle cx="350.3761834785947" cy="262.56911242551655" r="2.5" fill="#E69F00" />
<circle cx="361.13678836143265" cy="250.405331446343" r="2.5" fill="#E69F00" />
<circle cx="352.07849047421774" cy="224.43260128854143" r="2.5" fill="#E69F00" />
<circle cx="370.27062364828083" cy="271.4901406615993" r="2.5" fill="#E69F00" />
<circle cx="369.49853198948193" cy="282.2520964418999" r="2.5" fill="#E69F00" />
<circle cx="377.9798034598715" cy="305.45163331961396" r="2.5" fill="#E69F00" />
<circle cx="361.3112910549094" cy="237.00157950495304" r="2.5" fill="#E69F00" />
<circle cx="393.9178079190611" cy="224.0897365232011" r="2.5" fill="#E69F00" />
<circle cx="359.2555580888667" cy="211.9373970818695" r="2.5" fill="#E69F00" />
<circle cx="350.06560193605407" cy="246.34623023304496" r="2.5" fill="#E69F00" />
<circle cx="360.1652155602124" cy="232.99727550004565" r="2.5" fill="#E69F00" />
<circle cx="387.1840739152313" cy="261.4641396151785" r="2.5" fill="#E69F00" />
<circle cx="359.6048493626568" cy="227.66308414818735" r="2.5" fill="#E69F00" />
<circle cx="345.69271823620727" cy="270.17447576564496" r="2.5" fill="#E69F00" />
<circle cx="343.1226637421305" cy="239.81564670366467" r="2.5" fill="#E69F00" />
<circle cx="379.18890035401455" cy="235.2896836477234" r="2.5" fill="#E69F00" />
<circle cx="367.38287145163576" cy="283.70169402949085" r="2.5" fill="#E69F00" />
<circle cx="347.81194825028" cy="199.98496957433645" r="2.5" fill="#E69F00" />
<circle cx="362.47858941189304" cy="261.14783012799694" r="2.5" fill="#E69F00" />
<circle cx="337.15585204360116" cy="268.77466118395233" r="2.5" fill="#E69F00" />
<circle cx="394.25404840238997" cy="266.7532405498049" r="2.5" fill="#E69F00" />
<circle cx="374.7643294325906" cy="285.1232837943737" r="2.5" fill="#E69F00" />
<circle cx="335.9270008635602" cy="211.7276547327869" r="2.5" fill="#E69F00" />
<circle cx="390.8436802792545" cy="271.7050478983749" r="2.5" fill="#E69F00" />
<circle cx="344.13409088626906" cy="270.36183156834875" r="2.5" fill="#E69F00" />
<circle cx="360.2318869900695" cy="292.3566320656065" r="2.5" fill="#E69F00" />
<circle cx="360.2346136005822" cy="223.59205125992787" r="2.5" fill="#E69F00" />
<circle cx="357.7500275231384" cy="346.71149304552205" r="2.5" fill="#E69F00" />
<circle cx="370.87192995217487" cy="323.7656133806937" r="2.5" fill="#E69F00" />
<circle cx="373.84017413102845" cy="296.7944174714021" r="2.5" fill="#E69F00" />
<circle cx="367.10592480071625" cy="287.65790801033984" r="2.5" fill="#E69F00" />
<circle cx="360.8305967595837" cy="241.1384961637664" r="2.5" fill="#E69F00" />
<circle cx="352.8130672178932" cy="338.5849381984756" r="2.5" fill="#E69F00" />
<circle cx="391.2065814457769" cy="239.08371316426246" r="2.5" fill="#E69F00" />
<circle cx="367.1271171255311" cy="241.31547289195103" r="2.5" fill="#E69F00" />
<circle cx="355.6587328188707" cy="286.18605088808886" r="2.5" fill="#E69F00" />
<circle cx="372.3450181435366" cy="201.53304169941458" r="2.5" fill="#E69F00" />
<circle cx="345.8194858992298" cy="242.70546168635775" r="2.5" fill="#E69F00" />
<circle cx="388.34816663391797" cy="275.1206015421152" r="2.5" fill="#E69F00" />
<circle cx="387.5056470102134" cy="270.2267596144202" r="2.5" fill="#E69F00" />
<circle cx="381.63205159874633" cy="279.79373077238904" r="2.5" fill="#E69F00" />
<circle cx="384.982109114549" cy="245.02343612909175" r="2.5" fill="#E69F00" />
<circle cx="357.2088757695009" cy="280.19873780841596" r="2.5" fill="#E69F00" />
<circle cx="336.5738180874522" cy="246.3660863861579" r="2.5" fill="#E69F00" />
<circle cx="348.3666997547327" cy="266.80567140152516" r="2.5" fill="#E69F00" />
<circle cx="371.88763944357504" cy="320.4821508611186" r="2.5" fill="#E69F00" />
<circle cx="336.4422850235613" cy="251.806674742704" r="2.5" fill="#E69F00" />
<circle cx="341.3353263023028" cy="307.0886876960229" r="2.5" fill="#E69F00" />
<circle cx="381.62827207794913" cy="248.77749263948598" r="2.5" fill="#E69F00" />
<circle cx="359.5380730255538" cy="293.8416032700696" r="2.5" fill="#E69F00" />
<circle cx="390.2301075739565" cy="224.81813139433507" r="2.5" fill="#E69F00" />
<circle cx="342.360804981323" cy="265.75254106167654" r="2.5" fill="#E69F00" />
<circle cx="376.21870873834405" cy="245.97906506621163" r="2.5" fill="#E69F00" />
<circle cx="388.38235538145994" cy="311.84439730078384" r="2.5" fill="#E69F00" />
<circle cx="378.16596601671927" cy="289.81676180955185" r="2.5" fill="#E69F00" />
<circle cx="393.721747561437" cy="199.79112695145642" r="2.5" fill="#E69F00" />
<circle cx="394.6673990147184" cy="283.34831648936154" r="2.5" fill="#E69F00" />
<circle cx="383.89983388250835" cy="316.23257548275615" r="2.5" fill="#E69F00" />
<circle cx="392.52518056786687" cy="296.0102364630826" r="2.5" fill="#E69F00" />
<circle cx="368.2883591186531" cy="247.50937127119616" r="2.5" fill="#E69F00" />
<circle cx="372.7754916180199" cy="263.8661305715764" r="2.5" fill="#E69F00" />
<circle cx="354.3478220967094" cy="327.8724050183795" r="2.5" fill="#E69F00" />
<circle cx="379.05414125740884" cy="349.0141439194505" r="2.5" fill="#E69F00" />
<circle cx="343.3464031318496" cy="276.9105005960013" r="2.5" fill="#E69F00" />
<circle cx="369.931064919421" cy="289.77639576886884" r="2.5" fill="#E69F00" />
<circle cx="347.48285159078006" cy="288.6034688954975" r="2.5" fill="#E69F00" />
<circle cx="388.8609551578003" cy="294.50096395174126" r="2.5" fill="#E69F00" />
<circle cx="359.84204805339067" cy="265.0786474504688" r="2.5" fill="#E69F00" />
<circle cx="360.0362772538582" cy="302.0037511898039" r="2.5" fill="#E69F00" />
<circle cx="384.85532276006336" cy="247.85902241779607" r="2.5" fill="#E69F00" />
<circle cx="359.72730085047317" cy="281.69766684757553" r="2.5" fill="#E69F00" />
<circle cx="372.0404273602494" cy="289.68682669381525" r="2.5" fill="#E69F00" />
<circle cx="376.2380900361714" cy="236.63692095546946" r="2.5" fill="#E69F00" />
<circle cx="393.5355000613781" cy="312.9382965127825" r="2.5" fill="#E69F00" />
<circle cx="371.12241974067217" cy="230.3155297765967" r="2.5" fill="#E69F00" />
<circle cx="335.8013414297371" cy="260.2435705227849" r="2.5" fill="#E69F00" />
<circle cx="370.4156281898334" cy="293.3552755089044" r="2.5" fill="#E69F00" />
<circle cx="349.3411400442899" cy="209.42032217510365" r="2.5" fill="#E69F00" />
<circle cx="343.6121699137712" cy="261.0798834466698" r="2.5" fill="#E69F00" />
<circle cx="385.51978867676496" cy="312.6754165592148" r="2.5" fill="#E69F00" />
<circle cx="335.97114514543364" cy="249.62140442482402" r="2.5" fill="#E69F00" />
<circle cx="381.30030644057183" cy="172.97909871592356" r="2.5" fill="#E69F00" />
<circle cx="383.4959528019102" cy="216.23333494249147" r="2.5" fill="#E69F00" />
<circle cx="387.2187341215633" cy="293.85368247045074" r="2.5" fill="#E69F00" />
<circle cx="380.36708767334306" cy="233.87217833403508" r="2.5" fill="#E69F00" />
<circle cx="344.3818488077288" cy="273.10365661080937" r="2.5" fill="#E69F00" />
<circle cx="370.0388928269202" cy="319.2073829244313" r="2.5" fill="#E69F00" />
<circle cx="388.02380558052226" cy="344.3577160596503" r="2.5" fill="#E69F00" />
<circle cx="364.34321875407505" cy="202.32149848347206" r="2.5" fill="#E69F00" />
<circle cx="350.6346488200561" cy="277.54176364358375" r="2.5" fill="#E69F00" />
<circle cx="337.2065120463636" cy="247.9209945038662" r="2.5" fill="#E69F00" />
<circle cx="352.3073731560139" cy="268.9218457117615" r="2.5" fill="#E69F00" />
<circle cx="367.63744256935" cy="187.68350467058013" r="2.5" fill="#E69F00" />
<circle cx="362.71124524905355" cy="232.63489366828645" r="2.5" fill="#E69F00" />
<circle cx="369.6097474389706" cy="215.56873984903729" r="2.5" fill="#E69F00" />
<circle cx="373.91365400771724" cy="269.47944648050236" r="2.5" fill="#E69F00" />
<circle cx="361.1603501077288" cy="286.7060580609725" r="2.5" fill="#E69F00" />
<circle cx="356.3211074177687" cy="261.77970827247077" r="2.5" fill="#E69F00" />
<circle cx="379.3781456132734" cy="277.2732286303485" r="2.5" fill="#E69F00" />
<circle cx="364.12997197123786" cy="296.486426254917" r="2.5" fill="#E69F00" />
<circle cx="379.89990404571853" cy="284.4607738986873" r="2.5" fill="#E69F00" />
<circle cx="363.61948601088494" cy="262.1042453731163" r="2.5" fill="#E69F00" />
<circle cx="353.27770379748813" cy="291.72688962084476" r="2.5" fill="#E69F00" />
<circle cx="363.04791004801933" cy="256.75120399369086" r="2.5" fill="#E69F00" />
<circle cx="372.6188784251223" cy="229.45264902328694" r="2.5" fill="#E69F00" />
<circle cx="337.899824184521" cy="281.5482929778205" r="2.5" fill="#E69F00" />
<circle cx="377.7166213865829" cy="309.31178358736196" r="2.5" fill="#E69F00" />
<circle cx="391.0669182027208" cy="274.94909691382657" r="2.5" fill="#E69F00" />
<circle cx="384.2744250111393" cy="225.98282798158414" r="2.5" fill="#E69F00" />
<circle cx="390.252021978366" cy="272.00103147006996" r="2.5" fill="#E69F00" />
<circle cx="360.03405567117466" cy="278.5311673485638" r="2.5" fill="#E69F00" />
<circle cx="340.84126207534354" cy="235.55505364220664" r="2.5" fill="#E69F00" />
<circle cx="362.6723108710234" cy="255.04715168734816" r="2.5" fill="#E69F00" />
<circle cx="340.5046817008855" cy="267.04744163053135" r="2.5" fill="#E69F00" />
<circle cx="349.3231698888086" cy="305.65173812834166" r="2.5" fill="#E69F00" />
<circle cx="379.8765460057581" cy="233.03791944898018" r="2.5" fill="#E69F00" />
<circle cx="359.2343892263579" cy="258.66224176051264" r="2.5" fill="#E69F00" />
<circle cx="389.0794550790383" cy="281.12478937099183" r="2.5" fill="#E69F00" />
<circle cx="373.6618231545919" cy="246.99516388291028" r="2.5" fill="#E69F00" />
<circle cx="351.0694222701539" cy="312.42532387246837" r="2.5" fill="#E69F00" />
<circle cx="386.89615097706593" cy="229.05340892990375" r="2.5" fill="#E69F00" />
<circle cx="348.3553316586143" cy="242.03151431031463" r="2.5" fill="#E69F00" />
<circle cx="375.0997279988331" cy="319.95165536429283" r="2.5" fill="#E69F00" />
<circle cx="387.4798706672487" cy="280.23203196990835" r="2.5" fill="#E69F00" />
<circle cx="336.96561937214335" cy="269.0613555936681" r="2.5" fill="#E69F00" />
<circle cx="364.7385189180416" cy="281.27856669312087" r="2.5" fill="#E69F00" />
<circle cx="394.5038693877538" cy="358.6297317914282" r="2.5" fill="#E69F00" />
<circle cx="345.25205777918234" cy="273.7582353155839" r="2.5" fill="#E69F00" />
<circle cx="355.5040916232064" cy="271.1019715964193" r="2.5" fill="#E69F00" />
<circle cx="365.47911954393703" cy="224.2985930057987" r="2.5" fill="#E69F00" />
<circle cx="368.7686419530174" cy="288.49214696866085" r="2.5" fill="#E69F00" />
<circle cx="340.7710721853595" cy="316.7827510865779" r="2.5" fill="#E69F00" />
<circle cx="351.0557422421975" cy="232.4057761438495" r="2.5" fill="#E69F00" />
<circle cx="336.79425152171905" cy="186.5782633010752" r="2.5" fill="#E69F00" />
<circle cx="380.0406890870869" cy="264.05774857702636" r="2.5" fill="#E69F00" />
<circle cx="346.5002980158444" cy="282.87260816210954" r="2.5" fill="#E69F00" />
<circle cx="385.12105548283847" cy="324.445822527941" r="2.5" fill="#E69F00" />
<circle cx="363.1368806138474" cy="369.37571360108586" r="2.5" fill="#E69F00" />
<circle cx="393.832005374837" cy="290.9769920644727" r="2.5" fill="#E69F00" />
<circle cx="369.10775768351346" cy="223.01357694877981" r="2.5" fill="#E69F00" />
<circle cx="386.7487857930111" cy="237.67776904855918" r="2.5" fill="#E69F00" />
<circle cx="385.47095711009683" cy="286.3436153128715" r="2.5" fill="#E69F00" />
<circle cx="344.2681660974817" cy="218.99742181666454" r="2.5" fill="#E69F00" />
<circle cx="375.38081810485306" cy="244.2350943016204" r="2.5" fill="#E69F00" />
<circle cx="357.8703016852979" cy="313.65145152753985" r="2.5" fill="#E69F00" />
<circle cx="362.6006884502641" cy="213.302912737498" r="2.5" fill="#E69F00" />
<circle cx="347.76604758233856" cy="275.844720162699" r="2.5" fill="#E69F00" />
<circle cx="356.45120319823803" cy="285.1287134102024" r="2.5" fill="#E69F00" />
<circle cx="388.0538769522568" cy="277.92662098658747" r="2.5" fill="#E69F00" />
<circle cx="350.53636336790856" cy="300.62991249749297" r="2.5" fill="#E69F00" />
<circle cx="378.9538459687333" cy="248.87201794203202" r="2.5" fill="#E69F00" />
<circle cx="357.097267304795" cy="254.07695751919954" r="2.5" fill="#E69F00" />
<circle cx="340.88288337642814" cy="319.60547371477475" r="2.5" fill="#E69F00" />
<circle cx="360.6411024430423" cy="238.42982569291212" r="2.5" fill="#E69F00" />
<circle cx="381.9313795245485" cy="261.1352526612303" r="2.5" fill="#E69F00" />
<circle cx="345.3425415381634" cy="228.21463151956192" r="2.5" fill="#E69F00" />
<circle cx="353.22543710726114" cy="295.9405519617248" r="2.5" fill="#E69F00" />
<circle cx="370.721712187657" cy="259.87970978942764" r="2.5" fill="#E69F00" />
<circle cx="340.12167451761036" cy="261.59985440503476" r="2.5" fill="#E69F00" />
<circle cx="340.2709026664558" cy="270.64517545468044" r="2.5" fill="#E69F00" />
<circle cx="382.6327001170551" cy="261.8464183355673" r="2.5" fill="#E69F00" />
<circle cx="367.7440675532232" cy="296.26265592075276" r="2.5" fill="#E69F00" />
<circle cx="375.72660115701973" cy="331.74302172572914" r="2.5" fill="#E69F00" />
<circle cx="394.68262606182657" cy="229.5545842081114" r="2.5" fill="#E69F00" />
<circle cx="373.2092826027804" cy="296.6178163466999" r="2.5" fill="#E69F00" />
<circle cx="357.62185713214893" cy="275.76120216958896" r="2.5" fill="#E69F00" />
<circle cx="360.07966599987805" cy="312.27659308420874" r="2.5" fill="#E69F00" />
<circle cx="347.1292425678036" cy="332.4598260911672" r="2.5" fill="#E69F00" />
<circle cx="343.53929429381765" cy="240.27614410392312" r="2.5" fill="#E69F00" />
<circle cx="343.45127081206857" cy="268.4553662676641" r="2.5" fill="#E69F00" />
<circle cx="389.0763919459769" cy="280.9555815837258" r="2.5" fill="#E69F00" />
<circle cx="379.23064717906203" cy="318.55902366753213" r="2.5" fill="#E69F00" />
<circle cx="369.2908990966492" cy="343.2599818659665" r="2.5" fill="#E69F00" />
<circle cx="372.68778484118826" cy="286.31661229655225" r="2.5" fill="#E69F00" />
<circle cx="370.42335768606773" cy="204.4032687269331" r="2.5" fill="#E69F00" />
<circle cx="366.6444077701789" cy="245.98044886684673" r="2.5" fill="#E69F00" />
<circle cx="380.3373027633341" cy="253.9271870843907" r="2.5" fill="#E69F00" />
<circle cx="372.2799411130391" cy="209.97262227362836" r="2.5" fill="#E69F00" />
<circle cx="352.0537938555607" cy="263.19213332606364" r="2.5" fill="#E69F00" />
<circle cx="343.5148044572241" cy="272.1111784700262" r="2.5" fill="#E69F00" />
<circle cx="391.5379203730473" cy="276.0784555751668" r="2.5" fill="#E69F00" />
<circle cx="351.74470910315443" cy="284.8255787320209" r="2.5" fill="#E69F00" />
<circle cx="350.0412295064074" cy="307.960141575516" r="2.5" fill="#E69F00" />
<circle cx="382.2645366020217" cy="304.42364031322563" r="2.5" fill="#E69F00" />
<circle cx="371.2845591510514" cy="239.79684557042143" r="2.5" fill="#E69F00" />
<circle cx="586.5876471220881" cy="172.1501948077103" r="2.5" fill="#E69F00" />
<circle cx="573.6679922904162" cy="235.3002650372934" r="2.5" fill="#E69F00" />
<circle cx="574.9192126415797" cy="145.31834957799578" r="2.5" fill="#E69F00" />
<circle cx="570.0463138517773" cy="189.46351249465897" r="2.5" fill="#E69F00" />
<circle cx="569.2037635200102" cy="166.56839047404424" r="2.5" fill="#E69F00" />
<circle cx="556.5542601256931" cy="198.3713919628321" r="2.5" fill="#E69F00" />
<circle cx="590.991313519399" cy="275.658447616687" r="2.5" fill="#E69F00" />
<circle cx="544.4810886756402" cy="191.80358135391583" r="2.5" fill="#E69F00" />
<circle cx="584.4318832025403" cy="239.72979343352512" r="2.5" fill="#E69F00" />
<circle cx="588.7226731774578" cy="173.21721776625049" r="2.5" fill="#E69F00" />
<circle cx="594.355083418683" cy="200.0138583273212" r="2.5" fill="#E69F00" />
<circle cx="580.7474697322582" cy="119.76163081543848" r="2.5" fill="#E69F00" />
<circle cx="588.3036268966522" cy="188.04422554938907" r="2.5" fill="#E69F00" />
<circle cx="546.4989073763135" cy="256.25837148759" r="2.5" fill="#E69F00" />
<circle cx="567.8411846610561" cy="221.34557111409038" r="2.5" fill="#E69F00" />
<circle cx="586.4564782116568" cy="203.86847185884545" r="2.5" fill="#E69F00" />
<circle cx="545.5392787149558" cy="270.6541448373472" r="2.5" fill="#E69F00" />
<circle cx="578.9270402780005" cy="276.3930919381205" r="2.5" fill="#E69F00" />
<circle cx="541.8048804628456" cy="208.50917256413152" r="2.5" fill="#E69F00" />
<circle cx="549.2896449938291" cy="216.06662250626806" r="2.5" fill="#E69F00" />
<circle cx="549.7707366613853" cy="252.16084621548228" r="2.5" fill="#E69F00" />
<circle cx="574.2218344293751" cy="184.2656254605355" r="2.5" fill="#E69F00" />
<circle cx="537.6947975647265" cy="180.72118077697206" r="2.5" fill="#E69F00" />
<circle cx="544.1626795648974" cy="205.33126011429812" r="2.5" fill="#E69F00" />
<circle cx="584.790755513754" cy="169.58217606237503" r="2.5" fill="#E69F00" />
<circle cx="583.9003192571405" cy="280.2149336062066" r="2.5" fill="#E69F00" />
<circle cx="557.9721500135469" cy="221.25663814492015" r="2.5" fill="#E69F00" />
<circle cx="576.4207564464884" cy="163.59440802386922" r="2.5" fill="#E69F00" />
<circle cx="585.3782679927189" cy="206.56533018431946" r="2.5" fill="#E69F00" />
<circle cx="575.3869675077569" cy="186.812795689695" r="2.5" fill="#E69F00" />
<circle cx="585.1077383026076" cy="304.9702316591373" r="2.5" fill="#E69F00" />
<circle cx="555.5775584661867" cy="180.4589413170168" r="2.5" fill="#E69F00" />
<circle cx="542.5564656790077" cy="168.0075941440648" r="2.5" fill="#E69F00" />
<circle cx="590.584019890326" cy="277.8588020431424" r="2.5" fill="#E69F00" />
<circle cx="592.924290247891" cy="96.52731537216005" r="2.5" fill="#E69F00" />
<circle cx="586.4284888188289" cy="156.0985581356863" r="2.5" fill="#E69F00" />
<circle cx="564.7182651617152" cy="186.36578269000438" r="2.5" fill="#E69F00" />
<circle cx="564.9813644748322" cy="227.52982824641765" r="2.5" fill="#E69F00" />
<circle cx="547.7572654852354" cy="206.1673415949495" r="2.5" fill="#E69F00" />
<circle cx="570.4711195780266" cy="153.6288930911267" r="2.5" fill="#E69F00" />
<circle cx="565.6662487814795" cy="143.27512940547598" r="2.5" fill="#E69F00" />
<circle cx="554.5515143947134" cy="286.2919826701168" r="2.5" fill="#E69F00" />
<circle cx="559.2732822544957" cy="213.75290960360303" r="2.5" fill="#E69F00" />
<circle cx="545.6114726233711" cy="197.07441142125992" r="2.5" fill="#E69F00" />
<circle cx="588.4321706179893" cy="269.6659674320561" r="2.5" fill="#E69F00" />
<circle cx="538.6679403692323" cy="221.64929287517998" r="2.5" fill="#E69F00" />
<circle cx="561.1994197699316" cy="194.1284075499177" r="2.5" fill="#E69F00" />
<circle cx="537.8545084756972" cy="197.84170701123463" r="2.5" fill="#E69F00" />
<circle cx="535.7547514205656" cy="199.49492132118297" r="2.5" fill="#E69F00" />
<circle cx="536.0857103605933" cy="253.1766330099744" r="2.5" fill="#E69F00" />
<circle cx="565.5320265664573" cy="153.01412265178317" r="2.5" fill="#E69F00" />
<circle cx="593.1964704946663" cy="212.75423714753646" r="2.5" fill="#E69F00" />
<circle cx="549.4467857729137" cy="218.0724563370125" r="2.5" fill="#E69F00" />
<circle cx="562.3924531861113" cy="176.7085077641653" r="2.5" fill="#E69F00" />
<circle cx="588.1707331562334" cy="190.43260877830693" r="2.5" fill="#E69F00" />
<circle cx="539.7153477207672" cy="256.5516817060824" r="2.5" fill="#E69F00" />
<circle cx="553.6382756549647" cy="183.808752001929" r="2.5" fill="#E69F00" />
<circle cx="546.9082325786287" cy="242.32645486275723" r="2.5" fill="#E69F00" />
<circle cx="564.5953692150041" cy="192.8264130440228" r="2.5" fill="#E69F00" />
<circle cx="549.1703907091994" cy="271.323554286068" r="2.5" fill="#E69F00" />
<circle cx="573.8043731615285" cy="193.08091735718284" r="2.5" fill="#E69F00" />
<circle cx="588.2932047470265" cy="126.99196309684999" r="2.5" fill="#E69F00" />
<circle cx="549.5185912755423" cy="151.06595427783458" r="2.5" fill="#E69F00" />
<circle cx="567.664682369879" cy="174.2585228908124" r="2.5" fill="#E69F00" />
<circle cx="585.2320187792972" cy="144.31263321859603" r="2.5" fill="#E69F00" />
<circle cx="557.9346186528817" cy="194.41124753232884" r="2.5" fill="#E69F00" />
<circle cx="594.0453583707666" cy="198.04303462255183" r="2.5" fill="#E69F00" />
<circle cx="572.1730049202984" cy="167.0940157032432" r="2.5" fill="#E69F00" />
<circle cx="587.3447916926308" cy="274.0878371893876" r="2.5" fill="#E69F00" />
<circle cx="583.9483928579323" cy="331.9718914375047" r="2.5" fill="#E69F00" />
<circle cx="589.4267356076195" cy="269.5177391183814" r="2.5" fill="#E69F00" />
<circle cx="592.2702146572012" cy="114.90424783099462" r="2.5" fill="#E69F00" />
<circle cx="552.8327158561965" cy="187.02183058361237" r="2.5" fill="#E69F00" />
<circle cx="552.1754999093664" cy="243.5509134927317" r="2.5" fill="#E69F00" />
<circle cx="575.2485567214653" cy="253.7751070123394" r="2.5" fill="#E69F00" />
<circle cx="547.7180406375519" cy="213.85571143926614" r="2.5" fill="#E69F00" />
<circle cx="586.9382686177893" cy="269.5187275128985" r="2.5" fill="#E69F00" />
<circle cx="535.2819867285682" cy="237.51443987471853" r="2.5" fill="#E69F00" />
<circle cx="586.1885298216879" cy="179.7731954891313" r="2.5" fill="#E69F00" />
<circle cx="561.1851351043852" cy="228.21426197618302" r="2.5" fill="#E69F00" />
<circle cx="573.2524501573195" cy="185.76156262637943" r="2.5" fill="#E69F00" />
<circle cx="546.8940402997639" cy="229.3107190821524" r="2.5" fill="#E69F00" />
<circle cx="567.636352731698" cy="276.2002816394778" r="2.5" fill="#E69F00" />
<circle cx="579.6570833386016" cy="236.27874526787988" r="2.5" fill="#E69F00" />
<circle cx="587.2968323992369" cy="320.77351945528045" r="2.5" fill="#E69F00" />
<circle cx="538.0736332514946" cy="230.28784395396946" r="2.5" fill="#E69F00" />
<circle cx="544.5169481266543" cy="225.1131671928107" r="2.5" fill="#E69F00" />
<circle cx="555.4679254675881" cy="218.3815225008504" r="2.5" fill="#E69F00" />
<circle cx="592.3724792101948" cy="193.6009243879488" r="2.5" fill="#E69F00" />
<circle cx="569.7421239209623" cy="204.7583024562183" r="2.5" fill="#E69F00" />
<circle cx="565.8531732639574" cy="179.9020894433799" r="2.5" fill="#E69F00" />
<circle cx="578.6401860975202" cy="283.8045183341122" r="2.5" fill="#E69F00" />
<circle cx="549.9592101399892" cy="170.80584449199682" r="2.5" fill="#E69F00" />
<circle cx="585.5744314890612" cy="198.31893933454722" r="2.5" fill="#E69F00" />
<circle cx="555.8466517460649" cy="157.09904433722159" r="2.5" fill="#E69F00" />
<circle cx="553.3339865783768" cy="206.9917104455243" r="2.5" fill="#E69F00" />
<circle cx="557.6323053282214" cy="298.0537781400543" r="2.5" fill="#E69F00" />
<circle cx="566.4746992292048" cy="202.50232625149272" r="2.5" fill="#E69F00" />
<circle cx="549.4972389036698" cy="261.5849413566663" r="2.5" fill="#E69F00" />
<circle cx="587.6245002116877" cy="275.59697124575166" r="2.5" fill="#E69F00" />
<circle cx="568.706553359674" cy="192.7752696797342" r="2.5" fill="#E69F00" />
<circle cx="558.7708602865671" cy="218.7904168737412" r="2.5" fill="#E69F00" />
<circle cx="594.3478803560473" cy="266.97062582564536" r="2.5" fill="#E69F00" />
<circle cx="583.5733141300202" cy="241.15939189634355" r="2.5" fill="#E69F00" />
<circle cx="558.1060342256687" cy="96.97980729390918" r="2.5" fill="#E69F00" />
<circle cx="549.9116545046138" cy="263.6633579221151" r="2.5" fill="#E69F00" />
<circle cx="538.9947500550979" cy="178.52310775127194" r="2.5" fill="#E69F00" />
<circle cx="573.0488569736253" cy="116.81154756864595" r="2.5" fill="#E69F00" />
<circle cx="537.2426967870554" cy="182.8949544807728" r="2.5" fill="#E69F00" />
<circle cx="575.8753494611772" cy="217.99950145362453" r="2.5" fill="#E69F00" />
<circle cx="535.464377611647" cy="174.33337825685612" r="2.5" fill="#E69F00" />
<circle cx="556.1102475317375" cy="189.55635592201259" r="2.5" fill="#E69F00" />
<circle cx="537.2581071422003" cy="246.9620941640954" r="2.5" fill="#E69F00" />
<circle cx="548.5350666171654" cy="224.05881693484804" r="2.5" fill="#E69F00" />
<circle cx="562.302364177333" cy="213.1856814979945" r="2.5" fill="#E69F00" />
<circle cx="559.8702554382489" cy="144.89881113401998" r="2.5" fill="#E69F00" />
<circle cx="568.9982519904128" cy="186.48446175601816" r="2.5" fill="#E69F00" />
<circle cx="555.316244205527" cy="241.02137802224337" r="2.5" fill="#E69F00" />
<circle cx="575.7083557250289" cy="227.6370412289907" r="2.5" fill="#E69F00" />
<circle cx="543.592387676091" cy="224.26989964672293" r="2.5" fill="#E69F00" />
<circle cx="583.105674763429" cy="177.4153067965555" r="2.5" fill="#E69F00" />
<circle cx="577.3536666163787" cy="161.34239699943265" r="2.5" fill="#E69F00" />
<circle cx="571.2510411943654" cy="112.1238237032843" r="2.5" fill="#E69F00" />
<circle cx="572.8683525706815" cy="171.63555812621735" r="2.5" fill="#E69F00" />
<circle cx="559.0755606377284" cy="175.84573459605213" r="2.5" fill="#E69F00" />
<circle cx="591.4143173287374" cy="259.77513909472725" r="2.5" fill="#E69F00" />
<circle cx="579.7151394778377" cy="158.72885852697203" r="2.5" fill="#E69F00" />
<circle cx="583.4299612283103" cy="180.81953173239077" r="2.5" fill="#E69F00" />
<circle cx="570.4216188808869" cy="236.07328361671296" r="2.5" fill="#E69F00" />
<circle cx="581.654898132839" cy="228.30017036693664" r="2.5" fill="#E69F00" />
<circle cx="537.7547820750556" cy="196.28334081966386" r="2.5" fill="#E69F00" />
<circle cx="591.8126965647076" cy="172.3917404863825" r="2.5" fill="#E69F00" />
<circle cx="560.5386824308205" cy="226.7934564657666" r="2.5" fill="#E69F00" />
<circle cx="569.0103591159503" cy="216.0664605877884" r="2.5" fill="#E69F00" />
<circle cx="574.0062296295955" cy="256.83747579684587" r="2.5" fill="#E69F00" />
<circle cx="586.7479759872365" cy="224.89763236712412" r="2.5" fill="#E69F00" />
<circle cx="591.3428509036594" cy="168.7179722641996" r="2.5" fill="#E69F00" />
<circle cx="581.510692610868" cy="171.8298147526312" r="2.5" fill="#E69F00" />
<circle cx="539.8350139509887" cy="167.07115423593592" r="2.5" fill="#E69F00" />
<circle cx="566.7862878190858" cy="228.5677024722644" r="2.5" fill="#E69F00" />
<circle cx="572.6302852994945" cy="229.20016490326287" r="2.5" fill="#E69F00" />
<circle cx="578.2366342025147" cy="236.59458094235103" r="2.5" fill="#E69F00" />
<circle cx="592.216066845234" cy="201.51606142774472" r="2.5" fill="#E69F00" />
<circle cx="564.4798468516174" cy="242.3379460474776" r="2.5" fill="#E69F00" />
<circle cx="574.3926138648638" cy="217.01643036899105" r="2.5" fill="#E69F00" />
<circle cx="535.8663362745367" cy="269.9902724135152" r="2.5" fill="#E69F00" />
<circle cx="540.8915643919249" cy="207.85637069429976" r="2.5" fill="#E69F00" />
<circle cx="556.9200564799099" cy="171.1846233892163" r="2.5" fill="#E69F00" />
<circle cx="593.3637581610341" cy="180.26698620474838" r="2.5" fill="#E69F00" />
<circle cx="570.4543545139393" cy="174.41708491021177" r="2.5" fill="#E69F00" />
<circle cx="539.1371385496203" cy="279.5009616599747" r="2.5" fill="#E69F00" />
<circle cx="547.9327773274133" cy="237.7673170001645" r="2.5" fill="#E69F00" />
<circle cx="550.0778570912438" cy="228.48816548222396" r="2.5" fill="#E69F00" />
<circle cx="564.691700891993" cy="227.77850753041247" r="2.5" fill="#E69F00" />
<circle cx="568.6839725267582" cy="169.52942915201976" r="2.5" fill="#E69F00" />
<circle cx="567.2635808635553" cy="241.9623018209976" r="2.5" fill="#E69F00" />
<circle cx="541.4532538710841" cy="208.97319288228573" r="2.5" fill="#E69F00" />
<circle cx="557.9981402483791" cy="260.5791619037361" r="2.5" fill="#E69F00" />
<circle cx="543.2851828189112" cy="242.4150822430891" r="2.5" fill="#E69F00" />
<circle cx="560.9888448975622" cy="229.3282014260189" r="2.5" fill="#E69F00" />
<circle cx="562.2048765253082" cy="216.09343463234535" r="2.5" fill="#E69F00" />
<circle cx="592.9462695107285" cy="243.2524778584027" r="2.5" fill="#E69F00" />
<circle cx="592.7885954719154" cy="204.56302943872828" r="2.5" fill="#E69F00" />
<circle cx="594.4319122230945" cy="184.08798629194035" r="2.5" fill="#E69F00" />
<circle cx="568.3157704885784" cy="173.55062561156944" r="2.5" fill="#E69F00" />
<circle cx="573.4251715113429" cy="246.12604454456417" r="2.5" fill="#E69F00" />
<circle cx="559.4839167780709" cy="168.43461221410024" r="2.5" fill="#E69F00" />
<circle cx="565.8513187242696" cy="121.21280618198062" r="2.5" fill="#E69F00" />
<circle cx="565.2646789332277" cy="273.7653691941981" r="2.5" fill="#E69F00" />
<circle cx="586.1662779906068" cy="196.3131309347882" r="2.5" fill="#E69F00" />
<circle cx="573.9784566722885" cy="123.13126623567194" r="2.5" fill="#E69F00" />
<circle cx="563.2022590109896" cy="252.28974834608206" r="2.5" fill="#E69F00" />
<circle cx="545.9029309475915" cy="174.6291906846214" r="2.5" fill="#E69F00" />
<circle cx="545.1038152654321" cy="198.25040155430372" r="2.5" fill="#E69F00" />
<circle cx="547.1386503643664" cy="236.79705414424262" r="2.5" fill="#E69F00" />
<circle cx="591.0663683269929" cy="249.3056550306038" r="2.5" fill="#E69F00" />
<circle cx="556.9223851083066" cy="298.32214559901337" r="2.5" fill="#E69F00" />
<circle cx="535.204061215835" cy="216.52017152412589" r="2.5" fill="#E69F00" />
<circle cx="535.2726301040973" cy="128.1740845639464" r="2.5" fill="#E69F00" />
<circle cx="579.11674436625" cy="223.1794862553768" r="2.5" fill="#E69F00" />
<circle cx="542.1860584771667" cy="252.0839570887548" r="2.5" fill="#E69F00" />
<circle cx="587.545622929165" cy="210.21369533872576" r="2.5" fill="#E69F00" />
<circle cx="543.6408033844457" cy="296.73817049964384" r="2.5" fill="#E69F00" />
<circle cx="571.5526085745578" cy="229.37374394155393" r="2.5" fill="#E69F00" />
<circle cx="569.3818615555919" cy="204.6539995463349" r="2.5" fill="#E69F00" />
<circle cx="540.0020491334103" cy="247.87736268450354" r="2.5" fill="#E69F00" />
<circle cx="577.4701915026097" cy="206.6545099097603" r="2.5" fill="#E69F00" />
<circle cx="545.9440886159401" cy="208.93917485554852" r="2.5" fill="#E69F00" />
<circle cx="571.6079000772804" cy="171.58586476523328" r="2.5" fill="#E69F00" />
<circle cx="544.3317846712309" cy="224.76558168272135" r="2.5" fill="#E69F00" />
<circle cx="563.905408555953" cy="280.3531487299323" r="2.5" fill="#E69F00" />
<circle cx="561.1269534323118" cy="175.0503274985353" r="2.5" fill="#E69F00" />
<circle cx="578.1914719516722" cy="227.9402860986096" r="2.5" fill="#E69F00" />
<circle cx="544.1832777788306" cy="274.3660409057258" r="2.5" fill="#E69F00" />
<circle cx="541.692842666278" cy="269.5744072389732" r="2.5" fill="#E69F00" />
<circle cx="577.2037661911772" cy="177.10209005944654" r="2.5" fill="#E69F00" />
<circle cx="579.0378787391702" cy="224.90098010244145" r="2.5" fill="#E69F00" />
<circle cx="555.466094926646" cy="116.07082311455395" r="2.5" fill="#E69F00" />
<circle cx="537.5352875266784" cy="201.13186863654823" r="2.5" fill="#E69F00" />
<circle cx="560.6873639127921" cy="220.74746438591916" r="2.5" fill="#E69F00" />
<circle cx="186.58764711515505" cy="334.6640121605686" r="2.5" fill="#56B4E9" />
<circle cx="181.1666259865027" cy="288.6568195061608" r="2.5" fill="#56B4E9" />
<circle cx="191.26919407217" cy="278.3724622849453" r="2.5" fill="#56B4E9" />
<circle cx="140.71706037611807" cy="222.39717007005112" r="2.5" fill="#56B4E9" />
<circle cx="158.0807054485345" cy="304.6264682915891" r="2.5" fill="#56B4E9" />
<circle cx="141.33539013315638" cy="313.8462216861998" r="2.5" fill="#56B4E9" />
<circle cx="135.9522606215989" cy="374.2175154010613" r="2.5" fill="#56B4E9" />
<circle cx="152.54383688276957" cy="337.34626244288035" r="2.5" fill="#56B4E9" />
<circle cx="163.16265213899962" cy="228.82373327695757" r="2.5" fill="#56B4E9" />
<circle cx="185.63875334817521" cy="314.2358316780442" r="2.5" fill="#56B4E9" />
<circle cx="139.82943312892655" cy="286.4238520158504" r="2.5" fill="#56B4E9" />
<circle cx="187.8833453278364" cy="308.89350710399503" r="2.5" fill="#56B4E9" />
<circle cx="136.5577636124335" cy="344.20954964682085" r="2.5" fill="#56B4E9" />
<circle cx="155.515107875484" cy="326.9503801806484" r="2.5" fill="#56B4E9" />
<circle cx="164.03578804214717" cy="307.1074585777241" r="2.5" fill="#56B4E9" />
<circle cx="168.28844015951933" cy="330.57646729728344" r="2.5" fill="#56B4E9" />
<circle cx="162.33633609370133" cy="342.0013328453663" r="2.5" fill="#56B4E9" />
<circle cx="187.9113075394312" cy="315.1437365914005" r="2.5" fill="#56B4E9" />
<circle cx="170.7542723101669" cy="252.7508623020463" r="2.5" fill="#56B4E9" />
<circle cx="188.0113989194852" cy="245.5272199102589" r="2.5" fill="#56B4E9" />
<circle cx="151.2458994290369" cy="323.8052353046705" r="2.5" fill="#56B4E9" />
<circle cx="147.38171158877287" cy="315.55546211595146" r="2.5" fill="#56B4E9" />
<circle cx="187.04097683238973" cy="292.2676919875387" r="2.5" fill="#56B4E9" />
<circle cx="135.93009879599998" cy="295.38016541584875" r="2.5" fill="#56B4E9" />
<circle cx="165.7313020677537" cy="332.5165408609282" r="2.5" fill="#56B4E9" />
<circle cx="171.07343549922888" cy="307.4289461198978" r="2.5" fill="#56B4E9" />
<circle cx="169.5710749134268" cy="301.49614817592163" r="2.5" fill="#56B4E9" />
<circle cx="156.93718255625635" cy="256.7335309496377" r="2.5" fill="#56B4E9" />
<circle cx="164.78295779804347" cy="327.9677151880521" r="2.5" fill="#56B4E9" />
<circle cx="163.53579964053233" cy="332.2113282461437" r="2.5" fill="#56B4E9" />
<circle cx="140.09023310847334" cy="280.60156581236845" r="2.5" fill="#56B4E9" />
<circle cx="157.85645532270814" cy="346.87282756078014" r="2.5" fill="#56B4E9" />
<circle cx="136.83162385760164" cy="291.5542450065742" r="2.5" fill="#56B4E9" />
<circle cx="152.18584621766252" cy="272.4158101455364" r="2.5" fill="#56B4E9" />
<circle cx="178.05890485185978" cy="296.8255233106761" r="2.5" fill="#56B4E9" />
<circle cx="163.09888473224808" cy="333.38025264521696" r="2.5" fill="#56B4E9" />
<circle cx="172.55238649595447" cy="269.42449388732905" r="2.5" fill="#56B4E9" />
<circle cx="189.2366055995211" cy="324.9326710571247" r="2.5" fill="#56B4E9" />
<circle cx="151.8681766694806" cy="344.9499570931951" r="2.5" fill="#56B4E9" />
<circle cx="140.1542230944229" cy="265.8313223194277" r="2.5" fill="#56B4E9" />
<circle cx="152.4548188803604" cy="333.89318835451684" r="2.5" fill="#56B4E9" />
<circle cx="172.64774317580734" cy="347.71921914600154" r="2.5" fill="#56B4E9" />
<circle cx="153.951924818022" cy="321.9512185341339" r="2.5" fill="#56B4E9" />
<circle cx="184.50738073030837" cy="265.01966297850856" r="2.5" fill="#56B4E9" />
<circle cx="152.8184034481773" cy="322.00181501981643" r="2.5" fill="#56B4E9" />
<circle cx="161.88443000735708" cy="328.6941081895353" r="2.5" fill="#56B4E9" />
<circle cx="155.252928334144" cy="313.99720543379556" r="2.5" fill="#56B4E9" />
<circle cx="150.8283082667995" cy="236.97046337845646" r="2.5" fill="#56B4E9" />
<circle cx="146.3869277241529" cy="336.28302649639454" r="2.5" fill="#56B4E9" />
<circle cx="148.52692718711359" cy="246.0488285800586" r="2.5" fill="#56B4E9" />
<circle cx="153.98640403832366" cy="291.01005943809184" r="2.5" fill="#56B4E9" />
<circle cx="184.13012536423867" cy="337.9896431003935" r="2.5" fill="#56B4E9" />
<circle cx="139.68111751568267" cy="306.96813919210194" r="2.5" fill="#56B4E9" />
<circle cx="168.3526366663579" cy="291.45686936874256" r="2.5" fill="#56B4E9" />
<circle cx="151.6832085929409" cy="351.7123703112576" r="2.5" fill="#56B4E9" />
<circle cx="172.6031048617955" cy="304.99576980767233" r="2.5" fill="#56B4E9" />
<circle cx="137.1267207106785" cy="322.5322240128972" r="2.5" fill="#56B4E9" />
<circle cx="162.67985841120571" cy="265.6481170300074" r="2.5" fill="#56B4E9" />
<circle cx="191.74677991156318" cy="302.7143994681693" r="2.5" fill="#56B4E9" />
<circle cx="161.99132684130586" cy="325.05672040896525" r="2.5" fill="#56B4E9" />
<circle cx="135.81146474349276" cy="335.2897828340732" r="2.5" fill="#56B4E9" />
<circle cx="164.60838262949517" cy="305.73458502336837" r="2.5" fill="#56B4E9" />
<circle cx="138.9015041281976" cy="317.6572633471392" r="2.5" fill="#56B4E9" />
<circle cx="189.38091607189895" cy="287.28583016700964" r="2.5" fill="#56B4E9" />
<circle cx="182.03499993930157" cy="336.1961335210341" r="2.5" fill="#56B4E9" />
<circle cx="180.1623967026041" cy="325.16761623172846" r="2.5" fill="#56B4E9" />
<circle cx="161.18125033585423" cy="351.1323617034618" r="2.5" fill="#56B4E9" />
<circle cx="149.87859278826295" cy="297.8317878776232" r="2.5" fill="#56B4E9" />
<circle cx="145.64878531530042" cy="270.90019904622915" r="2.5" fill="#56B4E9" />
<circle cx="188.18344531556474" cy="245.12842097594054" r="2.5" fill="#56B4E9" />
<circle cx="186.41934971191887" cy="267.960615725757" r="2.5" fill="#56B4E9" />
<circle cx="165.9516731811177" cy="218.62437401534618" r="2.5" fill="#56B4E9" />
<circle cx="185.89238892329303" cy="312.999343426167" r="2.5" fill="#56B4E9" />
<circle cx="154.50575311791619" cy="368.4392479047639" r="2.5" fill="#56B4E9" />
<circle cx="151.37479780880486" cy="328.59454540836634" r="2.5" fill="#56B4E9" />
<circle cx="164.01943897734853" cy="305.08620420699094" r="2.5" fill="#56B4E9" />
<circle cx="169.432451192502" cy="242.20926960654515" r="2.5" fill="#56B4E9" />
<circle cx="170.47766609032357" cy="208.73173197625107" r="2.5" fill="#56B4E9" />
<circle cx="189.54335233431192" cy="319.90824416438977" r="2.5" fill="#56B4E9" />
<circle cx="146.92808940229418" cy="295.58658290546066" r="2.5" fill="#56B4E9" />
<circle cx="148.31803749839438" cy="283.9105353987532" r="2.5" fill="#56B4E9" />
<circle cx="171.32999190610394" cy="305.1809116906008" r="2.5" fill="#56B4E9" />
<circle cx="154.4450084543274" cy="269.9239150052854" r="2.5" fill="#56B4E9" />
<circle cx="185.59369423334743" cy="308.90318105421704" r="2.5" fill="#56B4E9" />
<circle cx="186.62625056531328" cy="255.45335761722174" r="2.5" fill="#56B4E9" />
<circle cx="137.2689217631717" cy="255.30834878047278" r="2.5" fill="#56B4E9" />
<circle cx="148.84589977510163" cy="268.6560037892634" r="2.5" fill="#56B4E9" />
<circle cx="143.7719657520339" cy="331.5674917358905" r="2.5" fill="#56B4E9" />
<circle cx="189.63602741364858" cy="277.646963196887" r="2.5" fill="#56B4E9" />
<circle cx="181.21823152939658" cy="282.1329696017574" r="2.5" fill="#56B4E9" />
<circle cx="159.90799823934532" cy="341.4043339122804" r="2.5" fill="#56B4E9" />
<circle cx="158.78557291205368" cy="289.57345003822365" r="2.5" fill="#56B4E9" />
<circle cx="137.08898912821255" cy="280.1530987789492" r="2.5" fill="#56B4E9" />
<circle cx="174.93352155865384" cy="322.0774306817957" r="2.5" fill="#56B4E9" />
<circle cx="142.15804818617238" cy="316.80280324923945" r="2.5" fill="#56B4E9" />
<circle cx="180.2168447213606" cy="284.38970602681115" r="2.5" fill="#56B4E9" />
<circle cx="148.92154891613478" cy="327.2380281587251" r="2.5" fill="#56B4E9" />
<circle cx="192.07493295134958" cy="252.94748435312027" r="2.5" fill="#56B4E9" />
<circle cx="172.38165707752262" cy="308.94206731021416" r="2.5" fill="#56B4E9" />
<circle cx="155.22635150562036" cy="285.67092354427723" r="2.5" fill="#56B4E9" />
<circle cx="164.12533859312714" cy="299.4579035431182" r="2.5" fill="#56B4E9" />
<circle cx="175.14069305096905" cy="287.1900297173802" r="2.5" fill="#56B4E9" />
<circle cx="185.91465569425486" cy="311.6269385244051" r="2.5" fill="#56B4E9" />
<circle cx="143.62880580690336" cy="264.15693783233803" r="2.5" fill="#56B4E9" />
<circle cx="144.81498819670406" cy="309.106729450007" r="2.5" fill="#56B4E9" />
<circle cx="144.27744952198913" cy="352.2730330693039" r="2.5" fill="#56B4E9" />
<circle cx="164.71353268824572" cy="275.6822736938385" r="2.5" fill="#56B4E9" />
<circle cx="165.00262762708627" cy="245.56585857204593" r="2.5" fill="#56B4E9" />
<circle cx="136.38730691342437" cy="304.58217524015174" r="2.5" fill="#56B4E9" />
<circle cx="168.27201746336016" cy="312.08615865470796" r="2.5" fill="#56B4E9" />
<circle cx="154.4909830248015" cy="317.1106740694012" r="2.5" fill="#56B4E9" />
<circle cx="149.77523200941744" cy="294.2300251128412" r="2.5" fill="#56B4E9" />
<circle cx="175.40317912637838" cy="228.5086476286191" r="2.5" fill="#56B4E9" />
<circle cx="174.02487934884408" cy="272.13982316143426" r="2.5" fill="#56B4E9" />
<circle cx="180.89235074568887" cy="232.22033195251873" r="2.5" fill="#56B4E9" />
<circle cx="150.00109514722857" cy="334.4147633089501" r="2.5" fill="#56B4E9" />
<circle cx="162.80746394835973" cy="258.7788043424483" r="2.5" fill="#56B4E9" />
<circle cx="146.01778524467005" cy="275.00379989311307" r="2.5" fill="#56B4E9" />
<circle cx="181.5299903815035" cy="325.3331399124909" r="2.5" fill="#56B4E9" />
<circle cx="144.10180723164714" cy="257.34303713271936" r="2.5" fill="#56B4E9" />
<circle cx="190.0474457139652" cy="307.34565182924564" r="2.5" fill="#56B4E9" />
<circle cx="185.1031163752886" cy="296.5106708947378" r="2.5" fill="#56B4E9" />
<circle cx="153.61657256612045" cy="302.7600368150545" r="2.5" fill="#56B4E9" />
<circle cx="184.9129204209103" cy="325.31902777210996" r="2.5" fill="#56B4E9" />
<circle cx="143.5802038323267" cy="294.5177951359351" r="2.5" fill="#56B4E9" />
<circle cx="161.699772009978" cy="273.4771899181598" r="2.5" fill="#56B4E9" />
<circle cx="146.75169276953665" cy="288.7852902815123" r="2.5" fill="#56B4E9" />
<circle cx="156.92624193609353" cy="264.825750391059" r="2.5" fill="#56B4E9" />
<circle cx="189.97172896458056" cy="314.1281276502564" r="2.5" fill="#56B4E9" />
<circle cx="144.55191566507904" cy="265.1485336320386" r="2.5" fill="#56B4E9" />
<circle cx="183.19551863097146" cy="304.9775617254657" r="2.5" fill="#56B4E9" />
<circle cx="149.98899483069476" cy="309.1429375633215" r="2.5" fill="#56B4E9" />
<circle cx="192.64377570962284" cy="258.89021922502195" r="2.5" fill="#56B4E9" />
<circle cx="187.21177788692742" cy="364.0612449102679" r="2.5" fill="#56B4E9" />
<circle cx="191.54417068517057" cy="292.85075875956045" r="2.5" fill="#56B4E9" />
<circle cx="135.65406926552365" cy="311.750801859116" r="2.5" fill="#56B4E9" />
<circle cx="157.02057289884263" cy="256.0595320649965" r="2.5" fill="#56B4E9" />
<circle cx="151.30304741158983" cy="306.4292590931037" r="2.5" fill="#56B4E9" />
<circle cx="171.40344722706374" cy="277.8790454273785" r="2.5" fill="#56B4E9" />
<circle cx="142.0138077556082" cy="261.7151495626666" r="2.5" fill="#56B4E9" />
<circle cx="154.21759014800236" cy="301.5715140551061" r="2.5" fill="#56B4E9" />
<circle cx="164.68312721849475" cy="289.36111221707347" r="2.5" fill="#56B4E9" />
<circle cx="186.53203691462343" cy="240.56093718748622" r="2.5" fill="#56B4E9" />
<circle cx="145.38878141045421" cy="257.11244421140225" r="2.5" fill="#56B4E9" />
<circle cx="150.32646062079158" cy="319.25964136896636" r="2.5" fill="#56B4E9" />
<circle cx="177.47686469063063" cy="289.88333187917283" r="2.5" fill="#56B4E9" />
<circle cx="143.13488765667603" cy="313.5750862725449" r="2.5" fill="#56B4E9" />
<circle cx="142.72228143506908" cy="319.15794306058876" r="2.5" fill="#56B4E9" />
<circle cx="145.63755327152455" cy="271.6098582414098" r="2.5" fill="#56B4E9" />
<circle cx="167.63395848026266" cy="271.7572255115269" r="2.5" fill="#56B4E9" />
<circle cx="136.32683768270115" cy="297.57856927719945" r="2.5" fill="#56B4E9" />
<circle cx="160.86266494546123" cy="311.2877762155128" r="2.5" fill="#56B4E9" />
<circle cx="156.34548430080744" cy="293.34768859093845" r="2.5" fill="#56B4E9" />
<circle cx="159.91102722298183" cy="277.5208092961452" r="2.5" fill="#56B4E9" />
<circle cx="156.62276705856763" cy="364.738143174618" r="2.5" fill="#56B4E9" />
<circle cx="146.61566491075007" cy="365.84625250157217" r="2.5" fill="#56B4E9" />
<circle cx="194.866976360878" cy="314.753925283183" r="2.5" fill="#56B4E9" />
<circle cx="151.55628101921303" cy="339.43258129682306" r="2.5" fill="#56B4E9" />
<circle cx="164.48232390888074" cy="265.5055770042489" r="2.5" fill="#56B4E9" />
<circle cx="181.07230761044036" cy="300.6200329433548" r="2.5" fill="#56B4E9" />
<circle cx="180.91044755359462" cy="245.78879060600653" r="2.5" fill="#56B4E9" />
<circle cx="177.2882232959157" cy="354.1977358106352" r="2.5" fill="#56B4E9" />
<circle cx="161.45602902212113" cy="258.88249796102644" r="2.5" fill="#56B4E9" />
<circle cx="180.22008414698058" cy="270.802925463714" r="2.5" fill="#56B4E9" />
<circle cx="137.85220744928714" cy="329.3657205029378" r="2.5" fill="#56B4E9" />
<circle cx="168.5974534346289" cy="320.8753020800839" r="2.5" fill="#56B4E9" />
<circle cx="170.42172402930183" cy="332.04262310382967" r="2.5" fill="#56B4E9" />
<circle cx="193.98821308834206" cy="304.49230842753764" r="2.5" fill="#56B4E9" />
<circle cx="145.61718889481762" cy="282.4512735623234" r="2.5" fill="#56B4E9" />
<circle cx="175.7250371382305" cy="274.88236685253514" r="2.5" fill="#56B4E9" />
<circle cx="179.7241469852744" cy="282.2040788397207" r="2.5" fill="#56B4E9" />
<circle cx="147.97174690042445" cy="355.79192873482134" r="2.5" fill="#56B4E9" />
<circle cx="145.72337676900125" cy="340.3993390584826" r="2.5" fill="#56B4E9" />
<circle cx="144.76180976393607" cy="351.58116893067665" r="2.5" fill="#56B4E9" />
<circle cx="147.87762992938428" cy="278.61775692302433" r="2.5" fill="#56B4E9" />
<circle cx="156.52499892077986" cy="277.227548164693" r="2.5" fill="#56B4E9" />
<circle cx="136.78957791127795" cy="296.8207338005313" r="2.5" fill="#56B4E9" />
<circle cx="176.7629229298223" cy="297.96240967152164" r="2.5" fill="#56B4E9" />
<circle cx="166.70290200407294" cy="271.6503648701864" r="2.5" fill="#56B4E9" />
<circle cx="168.47354386292744" cy="308.05433560726703" r="2.5" fill="#56B4E9" />
<circle cx="165.54608568176113" cy="255.68928154239063" r="2.5" fill="#56B4E9" />
<circle cx="137.9783895562589" cy="311.12781397123695" r="2.5" fill="#56B4E9" />
<circle cx="146.2357226644679" cy="301.60680774322407" r="2.5" fill="#56B4E9" />
<circle cx="191.19872299600345" cy="371.2971905746877" r="2.5" fill="#56B4E9" />
<circle cx="151.38762891850445" cy="317.4842119966237" r="2.5" fill="#56B4E9" />
<circle cx="172.01369759992684" cy="247.55015196242977" r="2.5" fill="#56B4E9" />
<circle cx="164.24810287310268" cy="323.5695715091342" r="2.5" fill="#56B4E9" />
<circle cx="170.3298949209909" cy="281.8271278565079" r="2.5" fill="#56B4E9" />
<circle cx="147.821600139183" cy="333.8113715237227" r="2.5" fill="#56B4E9" />
<circle cx="187.56903897341687" cy="256.58035146618147" r="2.5" fill="#56B4E9" />
<circle cx="173.50856114183568" cy="246.71015405256608" r="2.5" fill="#56B4E9" />
<circle cx="173.94991759783903" cy="326.30845634857064" r="2.5" fill="#56B4E9" />
<circle cx="179.24593477334284" cy="320.25718231733845" r="2.5" fill="#56B4E9" />
<circle cx="136.79346207150206" cy="378.4521354173088" r="2.5" fill="#56B4E9" />
<circle cx="158.9189907108171" cy="274.1002580824737" r="2.5" fill="#56B4E9" />
<circle cx="170.8942637475786" cy="324.07985425192294" r="2.5" fill="#56B4E9" />
<circle cx="152.9277547924134" cy="297.4351272524797" r="2.5" fill="#56B4E9" />
<circle cx="184.0569737707039" cy="263.1845696187718" r="2.5" fill="#56B4E9" />
<circle cx="138.09687452963072" cy="270.9153122536762" r="2.5" fill="#56B4E9" />
<circle cx="143.42743449176038" cy="318.4778041676665" r="2.5" fill="#56B4E9" />
<circle cx="386.5876471186198" cy="304.7952810566068" r="2.5" fill="#56B4E9" />
<circle cx="384.91640065278773" cy="215.92267732833176" r="2.5" fill="#56B4E9" />
<circle cx="360.08769202541464" cy="221.24357722371724" r="2.5" fill="#56B4E9" />
<circle cx="390.591252835951" cy="260.9723676240297" r="2.5" fill="#56B4E9" />
<circle cx="388.5458422973166" cy="164.95325683059252" r="2.5" fill="#56B4E9" />
<circle cx="390.7150905289935" cy="255.91929666733654" r="2.5" fill="#56B4E9" />
<circle cx="373.98509384967326" cy="202.20270484703008" r="2.5" fill="#56B4E9" />
<circle cx="368.03778982557867" cy="228.44515147618154" r="2.5" fill="#56B4E9" />
<circle cx="336.1930586887944" cy="284.13592654375555" r="2.5" fill="#56B4E9" />
<circle cx="375.2361190438874" cy="237.89502398827395" r="2.5" fill="#56B4E9" />
<circle cx="336.94986808943133" cy="243.6782385650671" r="2.5" fill="#56B4E9" />
<circle cx="338.2957407368429" cy="278.9516677283089" r="2.5" fill="#56B4E9" />
<circle cx="352.0067189436319" cy="294.17084493217766" r="2.5" fill="#56B4E9" />
<circle cx="381.73188462405346" cy="280.317057937713" r="2.5" fill="#56B4E9" />
<circle cx="391.81034596794734" cy="280.2680554257339" r="2.5" fill="#56B4E9" />
<circle cx="350.3761834785947" cy="274.14065774928883" r="2.5" fill="#56B4E9" />
<circle cx="361.13678836143265" cy="209.25251275594644" r="2.5" fill="#56B4E9" />
<circle cx="352.07849047421774" cy="199.5974126045399" r="2.5" fill="#56B4E9" />
<circle cx="370.27062364828083" cy="258.8511053238043" r="2.5" fill="#56B4E9" />
<circle cx="369.49853198948193" cy="263.5632581561089" r="2.5" fill="#56B4E9" />
<circle cx="377.9798034598715" cy="315.06091504173014" r="2.5" fill="#56B4E9" />
<circle cx="361.3112910549094" cy="296.0105320889485" r="2.5" fill="#56B4E9" />
<circle cx="393.9178079190611" cy="282.42212416252136" r="2.5" fill="#56B4E9" />
<circle cx="359.2555580888667" cy="222.1732612722496" r="2.5" fill="#56B4E9" />
<circle cx="350.06560193605407" cy="224.79126220904521" r="2.5" fill="#56B4E9" />
<circle cx="360.1652155602124" cy="244.19191098369964" r="2.5" fill="#56B4E9" />
<circle cx="387.1840739152313" cy="257.71509960864717" r="2.5" fill="#56B4E9" />
<circle cx="359.6048493626568" cy="290.24186459373595" r="2.5" fill="#56B4E9" />
<circle cx="345.69271823620727" cy="231.69627500521466" r="2.5" fill="#56B4E9" />
<circle cx="343.1226637421305" cy="228.0253754261683" r="2.5" fill="#56B4E9" />
<circle cx="379.18890035401455" cy="267.1948131530786" r="2.5" fill="#56B4E9" />
<circle cx="367.38287145163576" cy="269.5848033125122" r="2.5" fill="#56B4E9" />
<circle cx="347.81194825028" cy="250.8612741676713" r="2.5" fill="#56B4E9" />
<circle cx="362.47858941189304" cy="188.54544428942694" r="2.5" fill="#56B4E9" />
<circle cx="337.15585204360116" cy="247.09175528460383" r="2.5" fill="#56B4E9" />
<circle cx="394.25404840238997" cy="255.0206221232873" r="2.5" fill="#56B4E9" />
<circle cx="374.7643294325906" cy="244.35020268142424" r="2.5" fill="#56B4E9" />
<circle cx="335.9270008635602" cy="235.1598846101681" r="2.5" fill="#56B4E9" />
<circle cx="390.8436802792545" cy="187.2902687189267" r="2.5" fill="#56B4E9" />
<circle cx="344.13409088626906" cy="275.63125115635495" r="2.5" fill="#56B4E9" />
<circle cx="360.2318869900695" cy="195.57655850688622" r="2.5" fill="#56B4E9" />
<circle cx="360.2346136005822" cy="219.19389779793914" r="2.5" fill="#56B4E9" />
<circle cx="357.7500275231384" cy="198.8857418876367" r="2.5" fill="#56B4E9" />
<circle cx="370.87192995217487" cy="258.1718235851348" r="2.5" fill="#56B4E9" />
<circle cx="373.84017413102845" cy="260.8594874714064" r="2.5" fill="#56B4E9" />
<circle cx="367.10592480071625" cy="282.709671522137" r="2.5" fill="#56B4E9" />
<circle cx="360.8305967595837" cy="218.04243897135262" r="2.5" fill="#56B4E9" />
<circle cx="352.8130672178932" cy="292.1159751977725" r="2.5" fill="#56B4E9" />
<circle cx="391.2065814457769" cy="290.75829863347866" r="2.5" fill="#56B4E9" />
<circle cx="367.1271171255311" cy="207.02497085311944" r="2.5" fill="#56B4E9" />
<circle cx="355.6587328188707" cy="234.6816762934434" r="2.5" fill="#56B4E9" />
<circle cx="372.3450181435366" cy="247.11839120902528" r="2.5" fill="#56B4E9" />
<circle cx="345.8194858992298" cy="336.4831163729325" r="2.5" fill="#56B4E9" />
<circle cx="388.34816663391797" cy="262.23586639731536" r="2.5" fill="#56B4E9" />
<circle cx="387.5056470102134" cy="245.6146389411154" r="2.5" fill="#56B4E9" />
<circle cx="381.63205159874633" cy="251.61304421700967" r="2.5" fill="#56B4E9" />
<circle cx="384.982109114549" cy="299.22901389318645" r="2.5" fill="#56B4E9" />
<circle cx="357.2088757695009" cy="177.17959161420794" r="2.5" fill="#56B4E9" />
<circle cx="336.5738180874522" cy="224.74266737390553" r="2.5" fill="#56B4E9" />
<circle cx="348.3666997547327" cy="240.11332752871596" r="2.5" fill="#56B4E9" />
<circle cx="371.88763944357504" cy="269.4698115687014" r="2.5" fill="#56B4E9" />
<circle cx="336.4422850235613" cy="294.07658570185663" r="2.5" fill="#56B4E9" />
<circle cx="341.3353263023028" cy="268.1532537619943" r="2.5" fill="#56B4E9" />
<circle cx="381.62827207794913" cy="229.85783178676417" r="2.5" fill="#56B4E9" />
<circle cx="359.5380730255538" cy="242.76651598700138" r="2.5" fill="#56B4E9" />
<circle cx="390.2301075739565" cy="257.46000776121616" r="2.5" fill="#56B4E9" />
<circle cx="342.360804981323" cy="304.05609357958633" r="2.5" fill="#56B4E9" />
<circle cx="376.21870873834405" cy="309.5916364662453" r="2.5" fill="#56B4E9" />
<circle cx="388.38235538145994" cy="226.56621613134683" r="2.5" fill="#56B4E9" />
<circle cx="378.16596601671927" cy="242.14233921707424" r="2.5" fill="#56B4E9" />
<circle cx="393.721747561437" cy="235.42891222388573" r="2.5" fill="#56B4E9" />
<circle cx="394.6673990147184" cy="289.6215392249838" r="2.5" fill="#56B4E9" />
<circle cx="383.89983388250835" cy="240.64217061930296" r="2.5" fill="#56B4E9" />
<circle cx="392.52518056786687" cy="248.1743506701305" r="2.5" fill="#56B4E9" />
<circle cx="368.2883591186531" cy="312.21930361678767" r="2.5" fill="#56B4E9" />
<circle cx="372.7754916180199" cy="282.9184310588536" r="2.5" fill="#56B4E9" />
<circle cx="354.3478220967094" cy="281.820333744812" r="2.5" fill="#56B4E9" />
<circle cx="379.05414125740884" cy="301.49271919354584" r="2.5" fill="#56B4E9" />
<circle cx="343.3464031318496" cy="253.90704194614068" r="2.5" fill="#56B4E9" />
<circle cx="369.931064919421" cy="241.48025350791394" r="2.5" fill="#56B4E9" />
<circle cx="347.48285159078006" cy="236.7896342690165" r="2.5" fill="#56B4E9" />
<circle cx="388.8609551578003" cy="294.22060442108756" r="2.5" fill="#56B4E9" />
<circle cx="359.84204805339067" cy="214.14966495007542" r="2.5" fill="#56B4E9" />
<circle cx="360.0362772538582" cy="251.88010496640328" r="2.5" fill="#56B4E9" />
<circle cx="384.85532276006336" cy="232.49989235691004" r="2.5" fill="#56B4E9" />
<circle cx="359.72730085047317" cy="172.33149082585606" r="2.5" fill="#56B4E9" />
<circle cx="372.0404273602494" cy="292.5840427300343" r="2.5" fill="#56B4E9" />
<circle cx="376.2380900361714" cy="217.7305321791639" r="2.5" fill="#56B4E9" />
<circle cx="393.5355000613781" cy="152.05166550565593" r="2.5" fill="#56B4E9" />
<circle cx="371.12241974067217" cy="303.58786872796827" r="2.5" fill="#56B4E9" />
<circle cx="335.8013414297371" cy="310.44643863873165" r="2.5" fill="#56B4E9" />
<circle cx="370.4156281898334" cy="208.11735244082837" r="2.5" fill="#56B4E9" />
<circle cx="349.3411400442899" cy="268.32800329267764" r="2.5" fill="#56B4E9" />
<circle cx="343.6121699137712" cy="244.5663224714607" r="2.5" fill="#56B4E9" />
<circle cx="385.51978867676496" cy="315.10892587266324" r="2.5" fill="#56B4E9" />
<circle cx="335.97114514543364" cy="303.6414683678468" r="2.5" fill="#56B4E9" />
<circle cx="381.30030644057183" cy="227.0746738024182" r="2.5" fill="#56B4E9" />
<circle cx="383.4959528019102" cy="250.3340428262899" r="2.5" fill="#56B4E9" />
<circle cx="387.2187341215633" cy="279.0965152099013" r="2.5" fill="#56B4E9" />
<circle cx="380.36708767334306" cy="231.27751127369538" r="2.5" fill="#56B4E9" />
<circle cx="344.3818488077288" cy="243.17648349796212" r="2.5" fill="#56B4E9" />
<circle cx="370.0388928269202" cy="224.05192043342151" r="2.5" fill="#56B4E9" />
<circle cx="388.02380558052226" cy="217.78732543000928" r="2.5" fill="#56B4E9" />
<circle cx="364.34321875407505" cy="357.34705249451423" r="2.5" fill="#56B4E9" />
<circle cx="350.6346488200561" cy="229.20461868981937" r="2.5" fill="#56B4E9" />
<circle cx="337.2065120463636" cy="205.12095442023724" r="2.5" fill="#56B4E9" />
<circle cx="352.3073731560139" cy="286.59111410624575" r="2.5" fill="#56B4E9" />
<circle cx="367.63744256935" cy="239.66557752096398" r="2.5" fill="#56B4E9" />
<circle cx="362.71124524905355" cy="266.673065137608" r="2.5" fill="#56B4E9" />
<circle cx="369.6097474389706" cy="190.61922169683334" r="2.5" fill="#56B4E9" />
<circle cx="373.91365400771724" cy="221.60565315226376" r="2.5" fill="#56B4E9" />
<circle cx="361.1603501077288" cy="166.14400084442968" r="2.5" fill="#56B4E9" />
<circle cx="356.3211074177687" cy="216.42199613648182" r="2.5" fill="#56B4E9" />
<circle cx="379.3781456132734" cy="223.51330201276363" r="2.5" fill="#56B4E9" />
<circle cx="364.12997197123786" cy="280.51769371842465" r="2.5" fill="#56B4E9" />
<circle cx="379.89990404571853" cy="242.1640300298591" r="2.5" fill="#56B4E9" />
<circle cx="363.61948601088494" cy="263.72870024850437" r="2.5" fill="#56B4E9" />
<circle cx="353.27770379748813" cy="254.08004201740644" r="2.5" fill="#56B4E9" />
<circle cx="363.04791004801933" cy="304.6704553256789" r="2.5" fill="#56B4E9" />
<circle cx="372.6188784251223" cy="225.1480488332498" r="2.5" fill="#56B4E9" />
<circle cx="337.899824184521" cy="239.7017706907271" r="2.5" fill="#56B4E9" />
<circle cx="377.7166213865829" cy="185.25368955882357" r="2.5" fill="#56B4E9" />
<circle cx="391.0669182027208" cy="231.3763990576623" r="2.5" fill="#56B4E9" />
<circle cx="384.2744250111393" cy="226.6318045798189" r="2.5" fill="#56B4E9" />
<circle cx="390.252021978366" cy="258.3303857639237" r="2.5" fill="#56B4E9" />
<circle cx="360.03405567117466" cy="302.39531550993036" r="2.5" fill="#56B4E9" />
<circle cx="340.84126207534354" cy="268.79521625112613" r="2.5" fill="#56B4E9" />
<circle cx="362.6723108710234" cy="251.6348841407094" r="2.5" fill="#56B4E9" />
<circle cx="340.5046817008855" cy="219.32743002891795" r="2.5" fill="#56B4E9" />
<circle cx="349.3231698888086" cy="247.25490123637192" r="2.5" fill="#56B4E9" />
<circle cx="379.8765460057581" cy="271.08198251908277" r="2.5" fill="#56B4E9" />
<circle cx="359.2343892263579" cy="236.7893685096052" r="2.5" fill="#56B4E9" />
<circle cx="389.0794550790383" cy="200.12381057788588" r="2.5" fill="#56B4E9" />
<circle cx="373.6618231545919" cy="296.15586102993814" r="2.5" fill="#56B4E9" />
<circle cx="351.0694222701539" cy="274.65246028375344" r="2.5" fill="#56B4E9" />
<circle cx="386.89615097706593" cy="257.65352054915843" r="2.5" fill="#56B4E9" />
<circle cx="348.3553316586143" cy="334.3776947329414" r="2.5" fill="#56B4E9" />
<circle cx="375.0997279988331" cy="235.67909772339783" r="2.5" fill="#56B4E9" />
<circle cx="387.4798706672487" cy="231.4303678595757" r="2.5" fill="#56B4E9" />
<circle cx="336.96561937214335" cy="225.90982247395021" r="2.5" fill="#56B4E9" />
<circle cx="364.7385189180416" cy="260.7354766847451" r="2.5" fill="#56B4E9" />
<circle cx="394.5038693877538" cy="152.68044258645665" r="2.5" fill="#56B4E9" />
<circle cx="345.25205777918234" cy="208.04844580662512" r="2.5" fill="#56B4E9" />
<circle cx="355.5040916232064" cy="310.64543768605085" r="2.5" fill="#56B4E9" />
<circle cx="365.47911954393703" cy="234.07849577571176" r="2.5" fill="#56B4E9" />
<circle cx="368.7686419530174" cy="221.86126899117335" r="2.5" fill="#56B4E9" />
<circle cx="340.7710721853595" cy="199.02261606634198" r="2.5" fill="#56B4E9" />
<circle cx="351.0557422421975" cy="251.47801016813386" r="2.5" fill="#56B4E9" />
<circle cx="336.79425152171905" cy="275.90513942524285" r="2.5" fill="#56B4E9" />
<circle cx="380.0406890870869" cy="158.8050756835135" r="2.5" fill="#56B4E9" />
<circle cx="346.5002980158444" cy="196.69854233568032" r="2.5" fill="#56B4E9" />
<circle cx="385.12105548283847" cy="269.48753125083397" r="2.5" fill="#56B4E9" />
<circle cx="363.1368806138474" cy="265.77674767894996" r="2.5" fill="#56B4E9" />
<circle cx="393.832005374837" cy="285.0817108579568" r="2.5" fill="#56B4E9" />
<circle cx="369.10775768351346" cy="224.17806483141982" r="2.5" fill="#56B4E9" />
<circle cx="386.7487857930111" cy="287.9786983527156" r="2.5" fill="#56B4E9" />
<circle cx="385.47095711009683" cy="290.3393959975059" r="2.5" fill="#56B4E9" />
<circle cx="344.2681660974817" cy="291.2865111065313" r="2.5" fill="#56B4E9" />
<circle cx="375.38081810485306" cy="291.4785107549731" r="2.5" fill="#56B4E9" />
<circle cx="357.8703016852979" cy="270.2299953772289" r="2.5" fill="#56B4E9" />
<circle cx="362.6006884502641" cy="265.04991069581547" r="2.5" fill="#56B4E9" />
<circle cx="347.76604758233856" cy="245.63547799943944" r="2.5" fill="#56B4E9" />
<circle cx="356.45120319823803" cy="279.58323703902494" r="2.5" fill="#56B4E9" />
<circle cx="388.0538769522568" cy="280.312475374659" r="2.5" fill="#56B4E9" />
<circle cx="350.53636336790856" cy="236.3591451981788" r="2.5" fill="#56B4E9" />
<circle cx="378.9538459687333" cy="271.8508952697066" r="2.5" fill="#56B4E9" />
<circle cx="357.097267304795" cy="285.1189831164843" r="2.5" fill="#56B4E9" />
<circle cx="340.88288337642814" cy="203.41286330506216" r="2.5" fill="#56B4E9" />
<circle cx="360.6411024430423" cy="261.263702891505" r="2.5" fill="#56B4E9" />
<circle cx="381.9313795245485" cy="166.30854056544746" r="2.5" fill="#56B4E9" />
<circle cx="345.3425415381634" cy="244.55239519485957" r="2.5" fill="#56B4E9" />
<circle cx="353.22543710726114" cy="330.4008959716434" r="2.5" fill="#56B4E9" />
<circle cx="370.721712187657" cy="178.00008231728611" r="2.5" fill="#56B4E9" />
<circle cx="340.12167451761036" cy="238.53285092830677" r="2.5" fill="#56B4E9" />
<circle cx="340.2709026664558" cy="259.0224771180155" r="2.5" fill="#56B4E9" />
<circle cx="382.6327001170551" cy="188.65043573282247" r="2.5" fill="#56B4E9" />
<circle cx="367.7440675532232" cy="238.5799125562216" r="2.5" fill="#56B4E9" />
<circle cx="375.72660115701973" cy="216.6447131252918" r="2.5" fill="#56B4E9" />
<circle cx="394.68262606182657" cy="237.74898648193576" r="2.5" fill="#56B4E9" />
<circle cx="373.2092826027804" cy="266.3687115296755" r="2.5" fill="#56B4E9" />
<circle cx="357.62185713214893" cy="308.0896756959419" r="2.5" fill="#56B4E9" />
<circle cx="360.07966599987805" cy="224.5840233699925" r="2.5" fill="#56B4E9" />
<circle cx="347.1292425678036" cy="255.1346870192429" r="2.5" fill="#56B4E9" />
<circle cx="343.53929429381765" cy="217.7520546091984" r="2.5" fill="#56B4E9" />
<circle cx="343.45127081206857" cy="287.7871616134907" r="2.5" fill="#56B4E9" />
<circle cx="389.0763919459769" cy="218.90567996736286" r="2.5" fill="#56B4E9" />
<circle cx="379.23064717906203" cy="237.0557525862914" r="2.5" fill="#56B4E9" />
<circle cx="369.2908990966492" cy="280.9093631445669" r="2.5" fill="#56B4E9" />
<circle cx="372.68778484118826" cy="248.75384611858692" r="2.5" fill="#56B4E9" />
<circle cx="370.42335768606773" cy="285.7384990002719" r="2.5" fill="#56B4E9" />
<circle cx="366.6444077701789" cy="173.98418507130435" r="2.5" fill="#56B4E9" />
<circle cx="380.3373027633341" cy="217.7840364737487" r="2.5" fill="#56B4E9" />
<circle cx="372.2799411130391" cy="314.57824833043276" r="2.5" fill="#56B4E9" />
<circle cx="352.0537938555607" cy="245.64435639550095" r="2.5" fill="#56B4E9" />
<circle cx="343.5148044572241" cy="237.8443284612427" r="2.5" fill="#56B4E9" />
<circle cx="391.5379203730473" cy="284.86825070873306" r="2.5" fill="#56B4E9" />
<circle cx="351.74470910315443" cy="262.87793103353454" r="2.5" fill="#56B4E9" />
<circle cx="350.0412295064074" cy="253.2667138988606" r="2.5" fill="#56B4E9" />
<circle cx="382.2645366020217" cy="247.79937868931196" r="2.5" fill="#56B4E9" />
<circle cx="371.2845591510514" cy="266.5491818902347" r="2.5" fill="#56B4E9" />
<circle cx="586.5876471220881" cy="190.94671087257865" r="2.5" fill="#56B4E9" />
<circle cx="573.6679922904162" cy="188.34617786969113" r="2.5" fill="#56B4E9" />
<circle cx="574.9192126415797" cy="198.47650712259951" r="2.5" fill="#56B4E9" />
<circle cx="570.0463138517773" cy="182.7710788196241" r="2.5" fill="#56B4E9" />
<circle cx="569.2037635200102" cy="262.21655507419655" r="2.5" fill="#56B4E9" />
<circle cx="556.5542601256931" cy="97.84094849848731" r="2.5" fill="#56B4E9" />
<circle cx="590.991313519399" cy="114.7136288786682" r="2.5" fill="#56B4E9" />
<circle cx="544.4810886756402" cy="108.56074409517186" r="2.5" fill="#56B4E9" />
<circle cx="584.4318832025403" cy="217.78494068427926" r="2.5" fill="#56B4E9" />
<circle cx="588.7226731774578" cy="174.6153855567929" r="2.5" fill="#56B4E9" />
<circle cx="594.355083418683" cy="147.6014831842947" r="2.5" fill="#56B4E9" />
<circle cx="580.7474697322582" cy="246.83888871941372" r="2.5" fill="#56B4E9" />
<circle cx="588.3036268966522" cy="230.59873211154292" r="2.5" fill="#56B4E9" />
<circle cx="546.4989073763135" cy="192.47061466357428" r="2.5" fill="#56B4E9" />
<circle cx="567.8411846610561" cy="217.12227802516207" r="2.5" fill="#56B4E9" />
<circle cx="586.4564782116568" cy="214.13969356072806" r="2.5" fill="#56B4E9" />
<circle cx="545.5392787149558" cy="155.3616065654207" r="2.5" fill="#56B4E9" />
<circle cx="578.9270402780005" cy="123.35337488580603" r="2.5" fill="#56B4E9" />
<circle cx="541.8048804628456" cy="171.69449767499333" r="2.5" fill="#56B4E9" />
<circle cx="549.2896449938291" cy="224.82522962777432" r="2.5" fill="#56B4E9" />
<circle cx="549.7707366613853" cy="225.1569252242549" r="2.5" fill="#56B4E9" />
<circle cx="574.2218344293751" cy="150.75843447942555" r="2.5" fill="#56B4E9" />
<circle cx="537.6947975647265" cy="178.96217634968576" r="2.5" fill="#56B4E9" />
<circle cx="544.1626795648974" cy="235.32248843548507" r="2.5" fill="#56B4E9" />
<circle cx="584.790755513754" cy="148.96152332012144" r="2.5" fill="#56B4E9" />
<circle cx="583.9003192571405" cy="209.5741981434229" r="2.5" fill="#56B4E9" />
<circle cx="557.9721500135469" cy="192.7255085828097" r="2.5" fill="#56B4E9" />
<circle cx="576.4207564464884" cy="158.98196702500684" r="2.5" fill="#56B4E9" />
<circle cx="585.3782679927189" cy="219.82878961192233" r="2.5" fill="#56B4E9" />
<circle cx="575.3869675077569" cy="219.58135055727394" r="2.5" fill="#56B4E9" />
<circle cx="585.1077383026076" cy="239.70207182537138" r="2.5" fill="#56B4E9" />
<circle cx="555.5775584661867" cy="117.22689699140034" r="2.5" fill="#56B4E9" />
<circle cx="542.5564656790077" cy="161.77982710346544" r="2.5" fill="#56B4E9" />
<circle cx="590.584019890326" cy="127.06879087555546" r="2.5" fill="#56B4E9" />
<circle cx="592.924290247891" cy="242.77157495553823" r="2.5" fill="#56B4E9" />
<circle cx="586.4284888188289" cy="215.8488926649158" r="2.5" fill="#56B4E9" />
<circle cx="564.7182651617152" cy="166.83121875000853" r="2.5" fill="#56B4E9" />
<circle cx="564.9813644748322" cy="167.38679972955634" r="2.5" fill="#56B4E9" />
<circle cx="547.7572654852354" cy="241.4456818089991" r="2.5" fill="#56B4E9" />
<circle cx="570.4711195780266" cy="194.74318892542954" r="2.5" fill="#56B4E9" />
<circle cx="565.6662487814795" cy="177.32422032461898" r="2.5" fill="#56B4E9" />
<circle cx="554.5515143947134" cy="198.80475502698715" r="2.5" fill="#56B4E9" />
<circle cx="559.2732822544957" cy="206.10132456147164" r="2.5" fill="#56B4E9" />
<circle cx="545.6114726233711" cy="108.70691668541735" r="2.5" fill="#56B4E9" />
<circle cx="588.4321706179893" cy="152.62046966019255" r="2.5" fill="#56B4E9" />
<circle cx="538.6679403692323" cy="137.31985240057975" r="2.5" fill="#56B4E9" />
<circle cx="561.1994197699316" cy="181.16029121131686" r="2.5" fill="#56B4E9" />
<circle cx="537.8545084756972" cy="212.58454161450499" r="2.5" fill="#56B4E9" />
<circle cx="535.7547514205656" cy="52.37826916365134" r="2.5" fill="#56B4E9" />
<circle cx="536.0857103605933" cy="263.6356115375353" r="2.5" fill="#56B4E9" />
<circle cx="565.5320265664573" cy="178.09613130383838" r="2.5" fill="#56B4E9" />
<circle cx="593.1964704946663" cy="168.49225062148275" r="2.5" fill="#56B4E9" />
<circle cx="549.4467857729137" cy="180.351565304747" r="2.5" fill="#56B4E9" />
<circle cx="562.3924531861113" cy="119.64270919485489" r="2.5" fill="#56B4E9" />
<circle cx="588.1707331562334" cy="210.4671400354897" r="2.5" fill="#56B4E9" />
<circle cx="539.7153477207672" cy="129.13466091225604" r="2.5" fill="#56B4E9" />
<circle cx="553.6382756549647" cy="214.4797963226178" r="2.5" fill="#56B4E9" />
<circle cx="546.9082325786287" cy="230.64937418061794" r="2.5" fill="#56B4E9" />
<circle cx="564.5953692150041" cy="160.41644384632139" r="2.5" fill="#56B4E9" />
<circle cx="549.1703907091994" cy="142.46397173978914" r="2.5" fill="#56B4E9" />
<circle cx="573.8043731615285" cy="124.63620210280357" r="2.5" fill="#56B4E9" />
<circle cx="588.2932047470265" cy="156.89726457876145" r="2.5" fill="#56B4E9" />
<circle cx="549.5185912755423" cy="175.2928242409402" r="2.5" fill="#56B4E9" />
<circle cx="567.664682369879" cy="213.97233291293355" r="2.5" fill="#56B4E9" />
<circle cx="585.2320187792972" cy="256.3681987322722" r="2.5" fill="#56B4E9" />
<circle cx="557.9346186528817" cy="129.4205434237989" r="2.5" fill="#56B4E9" />
<circle cx="594.0453583707666" cy="119.76099189327982" r="2.5" fill="#56B4E9" />
<circle cx="572.1730049202984" cy="233.78589519971558" r="2.5" fill="#56B4E9" />
<circle cx="587.3447916926308" cy="194.7825473688739" r="2.5" fill="#56B4E9" />
<circle cx="583.9483928579323" cy="130.29485118075775" r="2.5" fill="#56B4E9" />
<circle cx="589.4267356076195" cy="240.83039340991826" r="2.5" fill="#56B4E9" />
<circle cx="592.2702146572012" cy="99.5301808096915" r="2.5" fill="#56B4E9" />
<circle cx="552.8327158561965" cy="131.36813936768317" r="2.5" fill="#56B4E9" />
<circle cx="552.1754999093664" cy="208.8593943791205" r="2.5" fill="#56B4E9" />
<circle cx="575.2485567214653" cy="227.42767097713482" r="2.5" fill="#56B4E9" />
<circle cx="547.7180406375519" cy="178.44644107579836" r="2.5" fill="#56B4E9" />
<circle cx="586.9382686177893" cy="234.80682522274589" r="2.5" fill="#56B4E9" />
<circle cx="535.2819867285682" cy="264.41368322324206" r="2.5" fill="#56B4E9" />
<circle cx="586.1885298216879" cy="233.69525573411897" r="2.5" fill="#56B4E9" />
<circle cx="561.1851351043852" cy="173.9892916309658" r="2.5" fill="#56B4E9" />
<circle cx="573.2524501573195" cy="228.76179063661345" r="2.5" fill="#56B4E9" />
<circle cx="546.8940402997639" cy="223.14674805347425" r="2.5" fill="#56B4E9" />
<circle cx="567.636352731698" cy="184.8772700301501" r="2.5" fill="#56B4E9" />
<circle cx="579.6570833386016" cy="176.33422092122777" r="2.5" fill="#56B4E9" />
<circle cx="587.2968323992369" cy="189.06298713611358" r="2.5" fill="#56B4E9" />
<circle cx="538.0736332514946" cy="124.93666466791524" r="2.5" fill="#56B4E9" />
<circle cx="544.5169481266543" cy="167.22202301061463" r="2.5" fill="#56B4E9" />
<circle cx="555.4679254675881" cy="244.85046590051485" r="2.5" fill="#56B4E9" />
<circle cx="592.3724792101948" cy="201.4076651690118" r="2.5" fill="#56B4E9" />
<circle cx="569.7421239209623" cy="222.44532789207705" r="2.5" fill="#56B4E9" />
<circle cx="565.8531732639574" cy="152.56001210398074" r="2.5" fill="#56B4E9" />
<circle cx="578.6401860975202" cy="172.4527143651727" r="2.5" fill="#56B4E9" />
<circle cx="549.9592101399892" cy="237.1736946065922" r="2.5" fill="#56B4E9" />
<circle cx="585.5744314890612" cy="137.98509585816868" r="2.5" fill="#56B4E9" />
<circle cx="555.8466517460649" cy="158.56459372083003" r="2.5" fill="#56B4E9" />
<circle cx="553.3339865783768" cy="206.08239919945413" r="2.5" fill="#56B4E9" />
<circle cx="557.6323053282214" cy="230.42391752569284" r="2.5" fill="#56B4E9" />
<circle cx="566.4746992292048" cy="231.7558041010671" r="2.5" fill="#56B4E9" />
<circle cx="549.4972389036698" cy="211.35280459235003" r="2.5" fill="#56B4E9" />
<circle cx="587.6245002116877" cy="130.39509806454288" r="2.5" fill="#56B4E9" />
<circle cx="568.706553359674" cy="213.9334222776593" r="2.5" fill="#56B4E9" />
<circle cx="558.7708602865671" cy="183.18425927330958" r="2.5" fill="#56B4E9" />
<circle cx="594.3478803560473" cy="120.57706166453119" r="2.5" fill="#56B4E9" />
<circle cx="583.5733141300202" cy="261.3683524417927" r="2.5" fill="#56B4E9" />
<circle cx="558.1060342256687" cy="270.4670140153976" r="2.5" fill="#56B4E9" />
<circle cx="549.9116545046138" cy="121.78726121447687" r="2.5" fill="#56B4E9" />
<circle cx="538.9947500550979" cy="164.588402517936" r="2.5" fill="#56B4E9" />
<circle cx="573.0488569736253" cy="210.01153733390646" r="2.5" fill="#56B4E9" />
<circle cx="537.2426967870554" cy="227.314543783285" r="2.5" fill="#56B4E9" />
<circle cx="575.8753494611772" cy="181.2647429426661" r="2.5" fill="#56B4E9" />
<circle cx="535.464377611647" cy="191.33683143949202" r="2.5" fill="#56B4E9" />
<circle cx="556.1102475317375" cy="134.8985996103965" r="2.5" fill="#56B4E9" />
<circle cx="537.2581071422003" cy="184.41949780234194" r="2.5" fill="#56B4E9" />
<circle cx="548.5350666171654" cy="208.0486334003299" r="2.5" fill="#56B4E9" />
<circle cx="562.302364177333" cy="158.07370140286764" r="2.5" fill="#56B4E9" />
<circle cx="559.8702554382489" cy="208.24936639826313" r="2.5" fill="#56B4E9" />
<circle cx="568.9982519904128" cy="108.27384247960794" r="2.5" fill="#56B4E9" />
<circle cx="555.316244205527" cy="191.17286368579943" r="2.5" fill="#56B4E9" />
<circle cx="575.7083557250289" cy="151.34760753975917" r="2.5" fill="#56B4E9" />
<circle cx="543.592387676091" cy="238.43076661941004" r="2.5" fill="#56B4E9" />
<circle cx="583.105674763429" cy="210.26960157586552" r="2.5" fill="#56B4E9" />
<circle cx="577.3536666163787" cy="141.01494863338678" r="2.5" fill="#56B4E9" />
<circle cx="571.2510411943654" cy="174.42313726501743" r="2.5" fill="#56B4E9" />
<circle cx="572.8683525706815" cy="156.1810151642557" r="2.5" fill="#56B4E9" />
<circle cx="559.0755606377284" cy="227.08282514089797" r="2.5" fill="#56B4E9" />
<circle cx="591.4143173287374" cy="225.80782048264064" r="2.5" fill="#56B4E9" />
<circle cx="579.7151394778377" cy="149.95390297564" r="2.5" fill="#56B4E9" />
<circle cx="583.4299612283103" cy="184.0678065208246" r="2.5" fill="#56B4E9" />
<circle cx="570.4216188808869" cy="154.22758483276328" r="2.5" fill="#56B4E9" />
<circle cx="581.654898132839" cy="247.58906976059538" r="2.5" fill="#56B4E9" />
<circle cx="537.7547820750556" cy="191.77019975989697" r="2.5" fill="#56B4E9" />
<circle cx="591.8126965647076" cy="220.5482850589538" r="2.5" fill="#56B4E9" />
<circle cx="560.5386824308205" cy="183.2393985466099" r="2.5" fill="#56B4E9" />
<circle cx="569.0103591159503" cy="157.5038888133621" r="2.5" fill="#56B4E9" />
<circle cx="574.0062296295955" cy="171.99904701632676" r="2.5" fill="#56B4E9" />
<circle cx="586.7479759872365" cy="176.83072927053314" r="2.5" fill="#56B4E9" />
<circle cx="591.3428509036594" cy="163.55732158859536" r="2.5" fill="#56B4E9" />
<circle cx="581.510692610868" cy="245.8686451553671" r="2.5" fill="#56B4E9" />
<circle cx="539.8350139509887" cy="200.12883460024898" r="2.5" fill="#56B4E9" />
<circle cx="566.7862878190858" cy="116.62588865025157" r="2.5" fill="#56B4E9" />
<circle cx="572.6302852994945" cy="131.5952392073517" r="2.5" fill="#56B4E9" />
<circle cx="578.2366342025147" cy="150.0082145332936" r="2.5" fill="#56B4E9" />
<circle cx="592.216066845234" cy="124.5676999183064" r="2.5" fill="#56B4E9" />
<circle cx="564.4798468516174" cy="156.24052754730758" r="2.5" fill="#56B4E9" />
<circle cx="574.3926138648638" cy="171.93221452388315" r="2.5" fill="#56B4E9" />
<circle cx="535.8663362745367" cy="303.6515174248435" r="2.5" fill="#56B4E9" />
<circle cx="540.8915643919249" cy="208.6120727903171" r="2.5" fill="#56B4E9" />
<circle cx="556.9200564799099" cy="223.28060773672013" r="2.5" fill="#56B4E9" />
<circle cx="593.3637581610341" cy="129.4657763319717" r="2.5" fill="#56B4E9" />
<circle cx="570.4543545139393" cy="158.28094107350853" r="2.5" fill="#56B4E9" />
<circle cx="539.1371385496203" cy="170.2701636192429" r="2.5" fill="#56B4E9" />
<circle cx="547.9327773274133" cy="251.3239193600323" r="2.5" fill="#56B4E9" />
<circle cx="550.0778570912438" cy="208.84818803569038" r="2.5" fill="#56B4E9" />
<circle cx="564.691700891993" cy="267.6432237522049" r="2.5" fill="#56B4E9" />
<circle cx="568.6839725267582" cy="175.54775501400917" r="2.5" fill="#56B4E9" />
<circle cx="567.2635808635553" cy="202.9325358806165" r="2.5" fill="#56B4E9" />
<circle cx="541.4532538710841" cy="237.34084097850433" r="2.5" fill="#56B4E9" />
<circle cx="557.9981402483791" cy="208.86838028055035" r="2.5" fill="#56B4E9" />
<circle cx="543.2851828189112" cy="155.71525905594217" r="2.5" fill="#56B4E9" />
<circle cx="560.9888448975622" cy="147.5341265636626" r="2.5" fill="#56B4E9" />
<circle cx="562.2048765253082" cy="158.29190591544364" r="2.5" fill="#56B4E9" />
<circle cx="592.9462695107285" cy="180.80960497198032" r="2.5" fill="#56B4E9" />
<circle cx="592.7885954719154" cy="153.80422050425835" r="2.5" fill="#56B4E9" />
<circle cx="594.4319122230945" cy="212.0701433547531" r="2.5" fill="#56B4E9" />
<circle cx="568.3157704885784" cy="261.863001190427" r="2.5" fill="#56B4E9" />
<circle cx="573.4251715113429" cy="129.50381293651873" r="2.5" fill="#56B4E9" />
<circle cx="559.4839167780709" cy="176.44729846695117" r="2.5" fill="#56B4E9" />
<circle cx="565.8513187242696" cy="127.9092685576548" r="2.5" fill="#56B4E9" />
<circle cx="565.2646789332277" cy="155.22191826091398" r="2.5" fill="#56B4E9" />
<circle cx="586.1662779906068" cy="250.56225083240463" r="2.5" fill="#56B4E9" />
<circle cx="573.9784566722885" cy="233.83820794059415" r="2.5" fill="#56B4E9" />
<circle cx="563.2022590109896" cy="204.33350812183386" r="2.5" fill="#56B4E9" />
<circle cx="545.9029309475915" cy="101.5179915741258" r="2.5" fill="#56B4E9" />
<circle cx="545.1038152654321" cy="145.17684257559893" r="2.5" fill="#56B4E9" />
<circle cx="547.1386503643664" cy="183.86872232106083" r="2.5" fill="#56B4E9" />
<circle cx="591.0663683269929" cy="240.2577548352496" r="2.5" fill="#56B4E9" />
<circle cx="556.9223851083066" cy="207.56228269867387" r="2.5" fill="#56B4E9" />
<circle cx="535.204061215835" cy="164.22208609876594" r="2.5" fill="#56B4E9" />
<circle cx="535.2726301040973" cy="191.4046907104949" r="2.5" fill="#56B4E9" />
<circle cx="579.11674436625" cy="147.3217578651911" r="2.5" fill="#56B4E9" />
<circle cx="542.1860584771667" cy="187.52875788436495" r="2.5" fill="#56B4E9" />
<circle cx="587.545622929165" cy="151.38843613439315" r="2.5" fill="#56B4E9" />
<circle cx="543.6408033844457" cy="231.63847824303008" r="2.5" fill="#56B4E9" />
<circle cx="571.5526085745578" cy="163.44360914393815" r="2.5" fill="#56B4E9" />
<circle cx="569.3818615555919" cy="199.78609724727664" r="2.5" fill="#56B4E9" />
<circle cx="540.0020491334103" cy="122.12274580071778" r="2.5" fill="#56B4E9" />
<circle cx="577.4701915026097" cy="194.81283105074533" r="2.5" fill="#56B4E9" />
<circle cx="545.9440886159401" cy="215.55883010247157" r="2.5" fill="#56B4E9" />
<circle cx="571.6079000772804" cy="148.40419651956063" r="2.5" fill="#56B4E9" />
<circle cx="544.3317846712309" cy="167.78047637371895" r="2.5" fill="#56B4E9" />
<circle cx="563.905408555953" cy="160.90971486141694" r="2.5" fill="#56B4E9" />
<circle cx="561.1269534323118" cy="157.61029839802575" r="2.5" fill="#56B4E9" />
<circle cx="578.1914719516722" cy="145.75359242356433" r="2.5" fill="#56B4E9" />
<circle cx="544.1832777788306" cy="127.77168869133772" r="2.5" fill="#56B4E9" />
<circle cx="541.692842666278" cy="202.17381991534972" r="2.5" fill="#56B4E9" />
<circle cx="577.2037661911772" cy="221.80920716152747" r="2.5" fill="#56B4E9" />
<circle cx="579.0378787391702" cy="218.80671368456842" r="2.5" fill="#56B4E9" />
<circle cx="555.466094926646" cy="246.902653550042" r="2.5" fill="#56B4E9" />
<circle cx="537.5352875266784" cy="255.49416030675852" r="2.5" fill="#56B4E9" />
<circle cx="560.6873639127921" cy="141.7173565793019" r="2.5" fill="#56B4E9" />
<rect x="670" y="32" width="80" height="56" fill="white" />
<rect x="670" y="32" width="80" height="56" fill="none" stroke="black" stroke-width="1" />
<text x="700" y="47" font-size="12" text-anchor="start">Line A</text>
<circle cx="686" cy="43" r="5" fill="#E69F00" />
<text x="700" y="65" font-size="12" text-anchor="start">Line B</text>
<circle cx="686" cy="61" r="5" fill="#56B4E9" />
</svg>
