<svg xmlns="http://www.w3.org/2000/svg" width="679" height="541" fill="black">
<rect width="100%" height="100%" fill="white" />
<line x1="65" y1="492" x2="665" y2="492" stroke="black" stroke-width="1" />
<line x1="65" y1="42" x2="65" y2="492" stroke="black" stroke-width="1" />
<line x1="65" y1="427.7142857142857" x2="665" y2="427.7142857142857" stroke="#ccc" stroke-width="1" />
<line x1="65" y1="363.42857142857144" x2="665" y2="363.42857142857144" stroke="#ccc" stroke-width="1" />
<line x1="65" y1="299.14285714285717" x2="665" y2="299.14285714285717" stroke="#ccc" stroke-width="1" />
<line x1="65" y1="234.8571428571429" x2="665" y2="234.8571428571429" stroke="#ccc" stroke-width="1" />
<line x1="65" y1="170.57142857142856" x2="665" y2="170.57142857142856" stroke="#ccc" stroke-width="1" />
<line x1="65" y1="106.28571428571433" x2="665" y2="106.28571428571433" stroke="#ccc" stroke-width="1" />
<line x1="65" y1="42" x2="665" y2="42" stroke="#ccc" stroke-width="1" />
<text x="165" y="507" font-size="10" text-anchor="middle">Control</text>
<line x1="165" y1="492" x2="165" y2="497" stroke="black" stroke-width="1" />
<text x="365" y="507" font-size="10" text-anchor="middle">Bimodal</text>
<line x1="365" y1="492" x2="365" y2="497" stroke="black" stroke-width="1" />
<text x="565" y="507" font-size="10" text-anchor="middle">Right-skewed</text>
<line x1="565" y1="492" x2="565" y2="497" stroke="black" stroke-width="1" />
<line x1="60" y1="492" x2="65" y2="492" stroke="black" stroke-width="1" />
<text x="57" y="495.5" font-size="10" text-anchor="end">-3</text>
<line x1="60" y1="427.7142857142857" x2="65" y2="427.7142857142857" stroke="black" stroke-width="1" />
<text x="57" y="431.2142857142857" font-size="10" text-anchor="end">-2</text>
<line x1="60" y1="363.42857142857144" x2="65" y2="363.42857142857144" stroke="black" stroke-width="1" />
<text x="57" y="366.92857142857144" font-size="10" text-anchor="end">-1</text>
<line x1="60" y1="299.14285714285717" x2="65" y2="299.14285714285717" stroke="black" stroke-width="1" />
<text x="57" y="302.64285714285717" font-size="10" text-anchor="end">0</text>
<line x1="60" y1="234.8571428571429" x2="65" y2="234.8571428571429" stroke="black" stroke-width="1" />
<text x="57" y="238.3571428571429" font-size="10" text-anchor="end">1</text>
<line x1="60" y1="170.57142857142856" x2="65" y2="170.57142857142856" stroke="black" stroke-width="1" />
<text x="57" y="174.07142857142856" font-size="10" text-anchor="end">2</text>
<line x1="60" y1="106.28571428571433" x2="65" y2="106.28571428571433" stroke="black" stroke-width="1" />
<text x="57" y="109.78571428571433" font-size="10" text-anchor="end">3</text>
<line x1="60" y1="42" x2="65" y2="42" stroke="black" stroke-width="1" />
<text x="57" y="45.5" font-size="10" text-anchor="end">4</text>
<text x="14" y="270.5" font-size="14" text-anchor="middle" transform="rotate(-90,14,270.5)">Value</text>
<text x="339.5" y="21" font-size="16" text-anchor="middle">Beeswarm</text>
<circle cx="180" cy="347.2330523309241" r="3" fill="steelblue" />
<circle cx="174" cy="270.8498738928773" r="3" fill="steelblue" />
<circle cx="165" cy="388.99643500863954" r="3" fill="steelblue" />
<circle cx="174" cy="208.95344393510243" r="3" fill="steelblue" />
<circle cx="159" cy="261.22252328013064" r="3" fill="steelblue" />
<circle cx="165" cy="346.39718005850443" r="3" fill="steelblue" />
<circle cx="159" cy="253.38032374424256" r="3" fill="steelblue" />
<circle cx="171" cy="409.60843573706495" r="3" fill="steelblue" />
<circle cx="165" cy="325.2971524061918" r="3" fill="steelblue" />
<circle cx="183" cy="333.65173381741397" r="3" fill="steelblue" />
<circle cx="144" cy="368.0382283745025" r="3" fill="steelblue" />
<circle cx="171" cy="319.33972520193026" r="3" fill="steelblue" />
<circle cx="165" cy="295.3462789751411" r="3" fill="steelblue" />
<circle cx="171" cy="325.62278972784407" r="3" fill="steelblue" />
<circle cx="165" cy="461.9432016186694" r="3" fill="steelblue" />
<circle cx="171" cy="245.20417235382587" r="3" fill="steelblue" />
<circle cx="177" cy="320.90270590963155" r="3" fill="steelblue" />
<circle cx="162" cy="333.50615162514083" r="3" fill="steelblue" />
<circle cx="165" cy="263.15767972898806" r="3" fill="steelblue" />
<circle cx="168" cy="338.6686582503105" r="3" fill="steelblue" />
<circle cx="177" cy="247.88177209785235" r="3" fill="steelblue" />
<circle cx="165" cy="475.2807542315991" r="3" fill="steelblue" />
<circle cx="150" cy="303.7622279357545" r="3" fill="steelblue" />
<circle cx="174" cy="349.9410643697679" r="3" fill="steelblue" />
<circle cx="171" cy="239.19622682673904" r="3" fill="steelblue" />
<circle cx="171" cy="392.57136641225776" r="3" fill="steelblue" />
<circle cx="168" cy="352.2097284688317" r="3" fill="steelblue" />
<circle cx="159" cy="245.40002013329376" r="3" fill="steelblue" />
<circle cx="147" cy="297.2082195913876" r="3" fill="steelblue" />
<circle cx="150" cy="363.770554208834" r="3" fill="steelblue" />
<circle cx="159" cy="286.5482068674345" r="3" fill="steelblue" />
<circle cx="165" cy="363.42785587694596" r="3" fill="steelblue" />
<circle cx="165" cy="484.5467337019911" r="3" fill="steelblue" />
<circle cx="183" cy="257.94066907924514" r="3" fill="steelblue" />
<circle cx="183" cy="279.9330122344686" r="3" fill="steelblue" />
<circle cx="186" cy="350.5493981178737" r="3" fill="steelblue" />
<circle cx="183" cy="288.8478385792614" r="3" fill="steelblue" />
<circle cx="165" cy="199.91730582605692" r="3" fill="steelblue" />
<circle cx="171" cy="292.3338554043631" r="3" fill="steelblue" />
<circle cx="183" cy="367.20855013484436" r="3" fill="steelblue" />
<circle cx="171" cy="344.5730424364936" r="3" fill="steelblue" />
<circle cx="168" cy="214.35639927467213" r="3" fill="steelblue" />
<circle cx="162" cy="215.08217094441977" r="3" fill="steelblue" />
<circle cx="162" cy="301.3148478901861" r="3" fill="steelblue" />
<circle cx="144" cy="351.3189462962588" r="3" fill="steelblue" />
<circle cx="165" cy="309.5194655148737" r="3" fill="steelblue" />
<circle cx="171" cy="259.6557075528306" r="3" fill="steelblue" />
<circle cx="183" cy="313.9076246540558" r="3" fill="steelblue" />
<circle cx="156" cy="302.68752821101054" r="3" fill="steelblue" />
<circle cx="186" cy="218.3098715957097" r="3" fill="steelblue" />
<circle cx="162" cy="269.8535702395185" r="3" fill="steelblue" />
<circle cx="177" cy="341.4714573012707" r="3" fill="steelblue" />
<circle cx="165" cy="256.09895377293697" r="3" fill="steelblue" />
<circle cx="186" cy="273.29674829396396" r="3" fill="steelblue" />
<circle cx="171" cy="311.7675178399739" r="3" fill="steelblue" />
<circle cx="165" cy="150.84510224803591" r="3" fill="steelblue" />
<circle cx="177" cy="287.1978349620444" r="3" fill="steelblue" />
<circle cx="165" cy="221.77907245770905" r="3" fill="steelblue" />
<circle cx="153" cy="240.4740992011993" r="3" fill="steelblue" />
<circle cx="144" cy="306.0819208523749" r="3" fill="steelblue" />
<circle cx="171" cy="284.2844477881923" r="3" fill="steelblue" />
<circle cx="165" cy="276.78817935051876" r="3" fill="steelblue" />
<circle cx="168" cy="304.2274622860007" r="3" fill="steelblue" />
<circle cx="150" cy="336.96242820234806" r="3" fill="steelblue" />
<circle cx="171" cy="277.6217736973832" r="3" fill="steelblue" />
<circle cx="165" cy="242.0820554867694" r="3" fill="steelblue" />
<circle cx="153" cy="329.4745504474429" r="3" fill="steelblue" />
<circle cx="177" cy="264.7312360187441" r="3" fill="steelblue" />
<circle cx="189" cy="298.2985341832547" r="3" fill="steelblue" />
<circle cx="189" cy="259.16520891656705" r="3" fill="steelblue" />
<circle cx="177" cy="257.69576982768547" r="3" fill="steelblue" />
<circle cx="159" cy="187.00673125271402" r="3" fill="steelblue" />
<circle cx="180" cy="220.22961351495786" r="3" fill="steelblue" />
<circle cx="159" cy="239.32814688292845" r="3" fill="steelblue" />
<circle cx="162" cy="355.86249461440565" r="3" fill="steelblue" />
<circle cx="171" cy="226.83651489681023" r="3" fill="steelblue" />
<circle cx="171" cy="185.71961136034253" r="3" fill="steelblue" />
<circle cx="177" cy="312.056805981613" r="3" fill="steelblue" />
<circle cx="159" cy="372.4259841988255" r="3" fill="steelblue" />
<circle cx="165" cy="170.66399455441535" r="3" fill="steelblue" />
<circle cx="159" cy="365.9234707624658" r="3" fill="steelblue" />
<circle cx="183" cy="243.92975596424589" r="3" fill="steelblue" />
<circle cx="171" cy="298.8299254021855" r="3" fill="steelblue" />
<circle cx="159" cy="203.4574630913864" r="3" fill="steelblue" />
<circle cx="156" cy="358.8134335177161" r="3" fill="steelblue" />
<circle cx="138" cy="306.50797496132753" r="3" fill="steelblue" />
<circle cx="153" cy="296.5918478038913" r="3" fill="steelblue" />
<circle cx="153" cy="312.2920308782625" r="3" fill="steelblue" />
<circle cx="159" cy="293.3247404619393" r="3" fill="steelblue" />
<circle cx="165" cy="180.61022419185764" r="3" fill="steelblue" />
<circle cx="171" cy="253.33458736695698" r="3" fill="steelblue" />
<circle cx="162" cy="340.97376753904723" r="3" fill="steelblue" />
<circle cx="150" cy="213.49255222918197" r="3" fill="steelblue" />
<circle cx="171" cy="203.02891320886414" r="3" fill="steelblue" />
<circle cx="174" cy="216.91128412495203" r="3" fill="steelblue" />
<circle cx="177" cy="328.91652226418347" r="3" fill="steelblue" />
<circle cx="153" cy="342.25641325240264" r="3" fill="steelblue" />
<circle cx="156" cy="336.5523042130329" r="3" fill="steelblue" />
<circle cx="177" cy="303.2911817901215" r="3" fill="steelblue" />
<circle cx="165" cy="282.91394180299375" r="3" fill="steelblue" />
<circle cx="159" cy="328.14993149573877" r="3" fill="steelblue" />
<circle cx="156" cy="209.11803807385394" r="3" fill="steelblue" />
<circle cx="183" cy="296.76707574645326" r="3" fill="steelblue" />
<circle cx="165" cy="316.14325594204786" r="3" fill="steelblue" />
<circle cx="153" cy="279.50862310513673" r="3" fill="steelblue" />
<circle cx="189" cy="281.9882563255586" r="3" fill="steelblue" />
<circle cx="147" cy="314.14275040701466" r="3" fill="steelblue" />
<circle cx="165" cy="371.3138675452953" r="3" fill="steelblue" />
<circle cx="180" cy="272.6226231578519" r="3" fill="steelblue" />
<circle cx="177" cy="366.7632071944031" r="3" fill="steelblue" />
<circle cx="165" cy="208.45833974138867" r="3" fill="steelblue" />
<circle cx="162" cy="227.57816511543712" r="3" fill="steelblue" />
<circle cx="147" cy="280.16239430366784" r="3" fill="steelblue" />
<circle cx="177" cy="278.846589992923" r="3" fill="steelblue" />
<circle cx="165" cy="120.95099152690506" r="3" fill="steelblue" />
<circle cx="153" cy="322.0028634722149" r="3" fill="steelblue" />
<circle cx="156" cy="217.797788717252" r="3" fill="steelblue" />
<circle cx="165" cy="289.26907916852076" r="3" fill="steelblue" />
<circle cx="153" cy="257.742792931098" r="3" fill="steelblue" />
<circle cx="165" cy="186.89275268743563" r="3" fill="steelblue" />
<circle cx="177" cy="295.41635408872685" r="3" fill="steelblue" />
<circle cx="159" cy="311.859017230203" r="3" fill="steelblue" />
<circle cx="177" cy="359.44716149683666" r="3" fill="steelblue" />
<circle cx="165" cy="235.11511826254866" r="3" fill="steelblue" />
<circle cx="171" cy="357.92590751703347" r="3" fill="steelblue" />
<circle cx="180" cy="213.45366716116564" r="3" fill="steelblue" />
<circle cx="165" cy="406.4090551453894" r="3" fill="steelblue" />
<circle cx="168" cy="331.083135955276" r="3" fill="steelblue" />
<circle cx="159" cy="346.8759761684152" r="3" fill="steelblue" />
<circle cx="171" cy="372.0036424850755" r="3" fill="steelblue" />
<circle cx="165" cy="248.53226326365825" r="3" fill="steelblue" />
<circle cx="159" cy="278.34313409998737" r="3" fill="steelblue" />
<circle cx="177" cy="239.38963849250035" r="3" fill="steelblue" />
<circle cx="174" cy="335.60429966500175" r="3" fill="steelblue" />
<circle cx="150" cy="347.6594855033394" r="3" fill="steelblue" />
<circle cx="147" cy="258.91308177776745" r="3" fill="steelblue" />
<circle cx="171" cy="363.93976759840405" r="3" fill="steelblue" />
<circle cx="177" cy="374.52650485006524" r="3" fill="steelblue" />
<circle cx="156" cy="228.73753349089515" r="3" fill="steelblue" />
<circle cx="189" cy="368.32129571309827" r="3" fill="steelblue" />
<circle cx="153" cy="264.86090862553897" r="3" fill="steelblue" />
<circle cx="183" cy="304.95448321216315" r="3" fill="steelblue" />
<circle cx="150" cy="272.80347126050606" r="3" fill="steelblue" />
<circle cx="168" cy="268.72902579191725" r="3" fill="steelblue" />
<circle cx="153" cy="287.93916787344824" r="3" fill="steelblue" />
<circle cx="159" cy="319.4543768230286" r="3" fill="steelblue" />
<circle cx="165" cy="448.72087364612764" r="3" fill="steelblue" />
<circle cx="189" cy="306.4304110438278" r="3" fill="steelblue" />
<circle cx="156" cy="272.43491645730563" r="3" fill="steelblue" />
<circle cx="165" cy="379.9908581012271" r="3" fill="steelblue" />
<circle cx="374" cy="356.5095616765543" r="3" fill="steelblue" />
<circle cx="371" cy="365.35232169903225" r="3" fill="steelblue" />
<circle cx="365" cy="326.85447009336855" r="3" fill="steelblue" />
<circle cx="371" cy="375.2006009194488" r="3" fill="steelblue" />
<circle cx="371" cy="440.2071482000624" r="3" fill="steelblue" />
<circle cx="359" cy="375.66259233290646" r="3" fill="steelblue" />
<circle cx="377" cy="442.420251720593" r="3" fill="steelblue" />
<circle cx="371" cy="414.1879190185059" r="3" fill="steelblue" />
<circle cx="365" cy="386.6312728525229" r="3" fill="steelblue" />
<circle cx="389" cy="405.08806824294953" r="3" fill="steelblue" />
<circle cx="356" cy="367.7567633274414" r="3" fill="steelblue" />
<circle cx="365" cy="406.21132585920697" r="3" fill="steelblue" />
<circle cx="371" cy="407.4569035428834" r="3" fill="steelblue" />
<circle cx="365" cy="412.85759711148376" r="3" fill="steelblue" />
<circle cx="362" cy="418.766645325067" r="3" fill="steelblue" />
<circle cx="359" cy="357.1851709853632" r="3" fill="steelblue" />
<circle cx="365" cy="467.55188667795386" r="3" fill="steelblue" />
<circle cx="380" cy="383.24870579271555" r="3" fill="steelblue" />
<circle cx="353" cy="357.94764604542684" r="3" fill="steelblue" />
<circle cx="383" cy="403.33336229055266" r="3" fill="steelblue" />
<circle cx="365" cy="438.48020604222944" r="3" fill="steelblue" />
<circle cx="365" cy="400.1901676026814" r="3" fill="steelblue" />
<circle cx="371" cy="339.4730553861468" r="3" fill="steelblue" />
<circle cx="365" cy="379.89309816582943" r="3" fill="steelblue" />
<circle cx="365" cy="348.9556314560223" r="3" fill="steelblue" />
<circle cx="347" cy="358.9906483932821" r="3" fill="steelblue" />
<circle cx="386" cy="396.766774295372" r="3" fill="steelblue" />
<circle cx="377" cy="411.1023308873114" r="3" fill="steelblue" />
<circle cx="368" cy="419.67283274681233" r="3" fill="steelblue" />
<circle cx="365" cy="427.21976842089896" r="3" fill="steelblue" />
<circle cx="359" cy="382.7759088085187" r="3" fill="steelblue" />
<circle cx="374" cy="422.6924912838135" r="3" fill="steelblue" />
<circle cx="359" cy="391.568416050845" r="3" fill="steelblue" />
<circle cx="383" cy="377.81432298160473" r="3" fill="steelblue" />
<circle cx="365" cy="457.40660824598854" r="3" fill="steelblue" />
<circle cx="365" cy="355.1506360211417" r="3" fill="steelblue" />
<circle cx="359" cy="411.0863298360528" r="3" fill="steelblue" />
<circle cx="371" cy="350.92155333928713" r="3" fill="steelblue" />
<circle cx="365" cy="444.78329627897074" r="3" fill="steelblue" />
<circle cx="374" cy="394.05635237278227" r="3" fill="steelblue" />
<circle cx="383" cy="431.62990196363296" r="3" fill="steelblue" />
<circle cx="353" cy="414.96498588232834" r="3" fill="steelblue" />
<circle cx="341" cy="405.37368873936526" r="3" fill="steelblue" />
<circle cx="353" cy="427.8757941735066" r="3" fill="steelblue" />
<circle cx="377" cy="430.2735453813054" r="3" fill="steelblue" />
<circle cx="353" cy="385.2352686669292" r="3" fill="steelblue" />
<circle cx="371" cy="469.05693055759866" r="3" fill="steelblue" />
<circle cx="359" cy="424.32384205734473" r="3" fill="steelblue" />
<circle cx="365" cy="361.2440189154175" r="3" fill="steelblue" />
<circle cx="353" cy="394.09700971735583" r="3" fill="steelblue" />
<circle cx="380" cy="358.0432527242803" r="3" fill="steelblue" />
<circle cx="377" cy="401.52475390924826" r="3" fill="steelblue" />
<circle cx="377" cy="368.15947549709955" r="3" fill="steelblue" />
<circle cx="353" cy="377.7985062476914" r="3" fill="steelblue" />
<circle cx="380" cy="396.22713747452525" r="3" fill="steelblue" />
<circle cx="347" cy="386.75342587668865" r="3" fill="steelblue" />
<circle cx="353" cy="401.5735524393775" r="3" fill="steelblue" />
<circle cx="365" cy="393.0568307294158" r="3" fill="steelblue" />
<circle cx="371" cy="428.5238758922593" r="3" fill="steelblue" />
<circle cx="359" cy="441.2204465139769" r="3" fill="steelblue" />
<circle cx="365" cy="336.26627353150127" r="3" fill="steelblue" />
<circle cx="365" cy="372.79639812949296" r="3" fill="steelblue" />
<circle cx="371" cy="447.0771540029213" r="3" fill="steelblue" />
<circle cx="377" cy="377.6970008226323" r="3" fill="steelblue" />
<circle cx="371" cy="381.95134161573685" r="3" fill="steelblue" />
<circle cx="362" cy="366.4900770502843" r="3" fill="steelblue" />
<circle cx="371" cy="388.6872852727883" r="3" fill="steelblue" />
<circle cx="359" cy="351.1121504490952" r="3" fill="steelblue" />
<circle cx="359" cy="430.8593031029751" r="3" fill="steelblue" />
<circle cx="395" cy="406.6856949381655" r="3" fill="steelblue" />
<circle cx="359" cy="341.32459665062265" r="3" fill="steelblue" />
<circle cx="359" cy="401.35689692452206" r="3" fill="steelblue" />
<circle cx="347" cy="396.70965086583277" r="3" fill="steelblue" />
<circle cx="347" cy="403.48263814549944" r="3" fill="steelblue" />
<circle cx="371" cy="401.0964934092756" r="3" fill="steelblue" />
<circle cx="374" cy="163.65241881941148" r="3" fill="steelblue" />
<circle cx="371" cy="172.49517884188936" r="3" fill="steelblue" />
<circle cx="365" cy="133.99732723622571" r="3" fill="steelblue" />
<circle cx="371" cy="182.3434580623059" r="3" fill="steelblue" />
<circle cx="371" cy="247.35000534291956" r="3" fill="steelblue" />
<circle cx="359" cy="182.80544947576362" r="3" fill="steelblue" />
<circle cx="377" cy="249.56310886345014" r="3" fill="steelblue" />
<circle cx="371" cy="221.33077616136308" r="3" fill="steelblue" />
<circle cx="365" cy="193.77412999538" r="3" fill="steelblue" />
<circle cx="389" cy="212.23092538580664" r="3" fill="steelblue" />
<circle cx="356" cy="174.89962047029854" r="3" fill="steelblue" />
<circle cx="365" cy="213.35418300206413" r="3" fill="steelblue" />
<circle cx="371" cy="214.5997606857406" r="3" fill="steelblue" />
<circle cx="365" cy="220.00045425434087" r="3" fill="steelblue" />
<circle cx="362" cy="225.90950246792414" r="3" fill="steelblue" />
<circle cx="359" cy="164.3280281282203" r="3" fill="steelblue" />
<circle cx="365" cy="274.694743820811" r="3" fill="steelblue" />
<circle cx="380" cy="190.39156293557272" r="3" fill="steelblue" />
<circle cx="353" cy="165.09050318828395" r="3" fill="steelblue" />
<circle cx="383" cy="210.47621943340977" r="3" fill="steelblue" />
<circle cx="365" cy="245.6230631850866" r="3" fill="steelblue" />
<circle cx="365" cy="207.33302474553852" r="3" fill="steelblue" />
<circle cx="371" cy="146.615912529004" r="3" fill="steelblue" />
<circle cx="365" cy="187.0359553086866" r="3" fill="steelblue" />
<circle cx="365" cy="156.09848859887938" r="3" fill="steelblue" />
<circle cx="347" cy="166.13350553613924" r="3" fill="steelblue" />
<circle cx="386" cy="203.90963143822916" r="3" fill="steelblue" />
<circle cx="377" cy="218.24518803016855" r="3" fill="steelblue" />
<circle cx="368" cy="226.81568988966944" r="3" fill="steelblue" />
<circle cx="365" cy="234.36262556375607" r="3" fill="steelblue" />
<circle cx="359" cy="189.9187659513758" r="3" fill="steelblue" />
<circle cx="374" cy="229.83534842667063" r="3" fill="steelblue" />
<circle cx="359" cy="198.7112731937022" r="3" fill="steelblue" />
<circle cx="383" cy="184.95718012446184" r="3" fill="steelblue" />
<circle cx="365" cy="264.5494653888457" r="3" fill="steelblue" />
<circle cx="365" cy="162.29349316399885" r="3" fill="steelblue" />
<circle cx="359" cy="218.22918697890992" r="3" fill="steelblue" />
<circle cx="371" cy="158.06441048214435" r="3" fill="steelblue" />
<circle cx="365" cy="251.92615342182785" r="3" fill="steelblue" />
<circle cx="374" cy="201.19920951563944" r="3" fill="steelblue" />
<circle cx="383" cy="238.7727591064901" r="3" fill="steelblue" />
<circle cx="353" cy="222.10784302518545" r="3" fill="steelblue" />
<circle cx="341" cy="212.51654588222243" r="3" fill="steelblue" />
<circle cx="353" cy="235.0186513163638" r="3" fill="steelblue" />
<circle cx="377" cy="237.41640252416255" r="3" fill="steelblue" />
<circle cx="353" cy="192.3781258097864" r="3" fill="steelblue" />
<circle cx="371" cy="276.19978770045583" r="3" fill="steelblue" />
<circle cx="359" cy="231.4666992002019" r="3" fill="steelblue" />
<circle cx="365" cy="168.3868760582746" r="3" fill="steelblue" />
<circle cx="353" cy="201.23986686021294" r="3" fill="steelblue" />
<circle cx="380" cy="165.18610986713747" r="3" fill="steelblue" />
<circle cx="377" cy="208.66761105210543" r="3" fill="steelblue" />
<circle cx="377" cy="175.30233263995672" r="3" fill="steelblue" />
<circle cx="353" cy="184.94136339054853" r="3" fill="steelblue" />
<circle cx="380" cy="203.36999461738242" r="3" fill="steelblue" />
<circle cx="347" cy="193.89628301954576" r="3" fill="steelblue" />
<circle cx="353" cy="208.7164095822347" r="3" fill="steelblue" />
<circle cx="365" cy="200.199687872273" r="3" fill="steelblue" />
<circle cx="371" cy="235.6667330351164" r="3" fill="steelblue" />
<circle cx="359" cy="248.36330365683403" r="3" fill="steelblue" />
<circle cx="365" cy="143.40913067435838" r="3" fill="steelblue" />
<circle cx="365" cy="179.93925527235012" r="3" fill="steelblue" />
<circle cx="371" cy="254.22001114577847" r="3" fill="steelblue" />
<circle cx="377" cy="184.83985796548944" r="3" fill="steelblue" />
<circle cx="371" cy="189.09419875859402" r="3" fill="steelblue" />
<circle cx="362" cy="173.63293419314147" r="3" fill="steelblue" />
<circle cx="371" cy="195.83014241564547" r="3" fill="steelblue" />
<circle cx="359" cy="158.25500759195234" r="3" fill="steelblue" />
<circle cx="359" cy="238.00216024583224" r="3" fill="steelblue" />
<circle cx="395" cy="213.82855208102268" r="3" fill="steelblue" />
<circle cx="359" cy="148.46745379347976" r="3" fill="steelblue" />
<circle cx="359" cy="208.49975406737923" r="3" fill="steelblue" />
<circle cx="347" cy="203.85250800868988" r="3" fill="steelblue" />
<circle cx="347" cy="210.6254952883566" r="3" fill="steelblue" />
<circle cx="371" cy="208.23935055213275" r="3" fill="steelblue" />
<circle cx="559" cy="290.39886162039545" r="3" fill="steelblue" />
<circle cx="571" cy="301.14750590892766" r="3" fill="steelblue" />
<circle cx="556" cy="256.83310461005044" r="3" fill="steelblue" />
<circle cx="568" cy="274.6955615790624" r="3" fill="steelblue" />
<circle cx="571" cy="154.38652642847273" r="3" fill="steelblue" />
<circle cx="535" cy="318.8319004144113" r="3" fill="steelblue" />
<circle cx="568" cy="210.12568897594855" r="3" fill="steelblue" />
<circle cx="571" cy="222.25412310134095" r="3" fill="steelblue" />
<circle cx="565" cy="180.66097120200993" r="3" fill="steelblue" />
<circle cx="565" cy="144.08938603189802" r="3" fill="steelblue" />
<circle cx="562" cy="324.7792703599524" r="3" fill="steelblue" />
<circle cx="541" cy="295.5814420732929" r="3" fill="steelblue" />
<circle cx="565" cy="304.64396296405084" r="3" fill="steelblue" />
<circle cx="571" cy="307.6051205625291" r="3" fill="steelblue" />
<circle cx="547" cy="301.44952499885903" r="3" fill="steelblue" />
<circle cx="565" cy="298.3001625011069" r="3" fill="steelblue" />
<circle cx="586" cy="315.9577994816141" r="3" fill="steelblue" />
<circle cx="598" cy="321.26956066631396" r="3" fill="steelblue" />
<circle cx="592" cy="293.67879820323515" r="3" fill="steelblue" />
<circle cx="568" cy="244.8563350855635" r="3" fill="steelblue" />
<circle cx="583" cy="241.53225306885818" r="3" fill="steelblue" />
<circle cx="565" cy="204.18798271831452" r="3" fill="steelblue" />
<circle cx="556" cy="220.54580540474467" r="3" fill="steelblue" />
<circle cx="571" cy="145.39512317027936" r="3" fill="steelblue" />
<circle cx="586" cy="330.26873981296546" r="3" fill="steelblue" />
<circle cx="565" cy="136.35374458459194" r="3" fill="steelblue" />
<circle cx="553" cy="315.04489233917536" r="3" fill="steelblue" />
<circle cx="565" cy="232.98399244405726" r="3" fill="steelblue" />
<circle cx="580" cy="279.10969949488106" r="3" fill="steelblue" />
<circle cx="562" cy="248.4741176004022" r="3" fill="steelblue" />
<circle cx="562" cy="239.84958665499747" r="3" fill="steelblue" />
<circle cx="565" cy="189.57173228416457" r="3" fill="steelblue" />
<circle cx="529" cy="321.38954135600295" r="3" fill="steelblue" />
<circle cx="601" cy="312.3505967095277" r="3" fill="steelblue" />
<circle cx="577" cy="202.0518540645536" r="3" fill="steelblue" />
<circle cx="577" cy="291.2370111287379" r="3" fill="steelblue" />
<circle cx="568" cy="259.0336375842677" r="3" fill="steelblue" />
<circle cx="550" cy="327.794268548843" r="3" fill="steelblue" />
<circle cx="586" cy="281.29447554214914" r="3" fill="steelblue" />
<circle cx="562" cy="213.09717225592965" r="3" fill="steelblue" />
<circle cx="544" cy="321.7341502364475" r="3" fill="steelblue" />
<circle cx="592" cy="324.9846586405755" r="3" fill="steelblue" />
<circle cx="538" cy="330.6542265765924" r="3" fill="steelblue" />
<circle cx="517" cy="323.3286089223806" r="3" fill="steelblue" />
<circle cx="571" cy="294.30538990708965" r="3" fill="steelblue" />
<circle cx="565" cy="226.90743909294378" r="3" fill="steelblue" />
<circle cx="571" cy="194.5932519689435" r="3" fill="steelblue" />
<circle cx="580" cy="327.55986485764845" r="3" fill="steelblue" />
<circle cx="574" cy="217.0417774885076" r="3" fill="steelblue" />
<circle cx="544" cy="330.4376267078811" r="3" fill="steelblue" />
<circle cx="583" cy="308.8174016297975" r="3" fill="steelblue" />
<circle cx="610" cy="322.73874652624943" r="3" fill="steelblue" />
<circle cx="562" cy="277.3501137313617" r="3" fill="steelblue" />
<circle cx="559" cy="265.03594921572176" r="3" fill="steelblue" />
<circle cx="574" cy="275.08283159170867" r="3" fill="steelblue" />
<circle cx="589" cy="310.26843938375373" r="3" fill="steelblue" />
<circle cx="565" cy="160.51886829134844" r="3" fill="steelblue" />
<circle cx="565" cy="67.10826570957187" r="3" fill="steelblue" />
<circle cx="571" cy="201.90498249758218" r="3" fill="steelblue" />
<circle cx="559" cy="284.05426458624913" r="3" fill="steelblue" />
<circle cx="529" cy="314.17880185422257" r="3" fill="steelblue" />
<circle cx="568" cy="321.9934310805209" r="3" fill="steelblue" />
<circle cx="574" cy="240.7317545401308" r="3" fill="steelblue" />
<circle cx="550" cy="236.40812776306285" r="3" fill="steelblue" />
<circle cx="577" cy="308.1362093296281" r="3" fill="steelblue" />
<circle cx="550" cy="280.2502115355351" r="3" fill="steelblue" />
<circle cx="535" cy="312.3178621853751" r="3" fill="steelblue" />
<circle cx="577" cy="147.8988641130701" r="3" fill="steelblue" />
<circle cx="559" cy="205.6557744232253" r="3" fill="steelblue" />
<circle cx="577" cy="301.1620382808135" r="3" fill="steelblue" />
<circle cx="553" cy="286.15143205321965" r="3" fill="steelblue" />
<circle cx="601" cy="304.905283854873" r="3" fill="steelblue" />
<circle cx="595" cy="303.64078472118723" r="3" fill="steelblue" />
<circle cx="541" cy="303.3542854807015" r="3" fill="steelblue" />
<circle cx="574" cy="260.1448095315809" r="3" fill="steelblue" />
<circle cx="541" cy="288.7063866142756" r="3" fill="steelblue" />
<circle cx="568" cy="216.25554507086883" r="3" fill="steelblue" />
<circle cx="559" cy="228.49956543252625" r="3" fill="steelblue" />
<circle cx="586" cy="322.04550728375875" r="3" fill="steelblue" />
<circle cx="556" cy="278.19435486386794" r="3" fill="steelblue" />
<circle cx="559" cy="319.41678473711295" r="3" fill="steelblue" />
<circle cx="607" cy="314.3579645915779" r="3" fill="steelblue" />
<circle cx="565" cy="283.1606358727088" r="3" fill="steelblue" />
<circle cx="580" cy="236.14699818974452" r="3" fill="steelblue" />
<circle cx="556" cy="324.84531647380703" r="3" fill="steelblue" />
<circle cx="523" cy="322.52128706002264" r="3" fill="steelblue" />
<circle cx="571" cy="280.6689714562492" r="3" fill="steelblue" />
<circle cx="577" cy="285.23246104286716" r="3" fill="steelblue" />
<circle cx="565" cy="197.25828844270364" r="3" fill="steelblue" />
<circle cx="565" cy="264.51612006314826" r="3" fill="steelblue" />
<circle cx="580" cy="314.0557227524096" r="3" fill="steelblue" />
<circle cx="553" cy="301.2748969411691" r="3" fill="steelblue" />
<circle cx="559" cy="306.66804404810443" r="3" fill="steelblue" />
<circle cx="559" cy="197.78099329771175" r="3" fill="steelblue" />
<circle cx="574" cy="233.60443251400812" r="3" fill="steelblue" />
<circle cx="559" cy="313.0408151189513" r="3" fill="steelblue" />
<circle cx="550" cy="242.93388285113306" r="3" fill="steelblue" />
<circle cx="571" cy="313.81964332940834" r="3" fill="steelblue" />
<circle cx="550" cy="321.0070342292072" r="3" fill="steelblue" />
<circle cx="523" cy="316.15151470670435" r="3" fill="steelblue" />
<circle cx="577" cy="224.1313210875627" r="3" fill="steelblue" />
<circle cx="583" cy="301.33675330142677" r="3" fill="steelblue" />
<circle cx="565" cy="329.9901604106313" r="3" fill="steelblue" />
<circle cx="556" cy="240.92433217936374" r="3" fill="steelblue" />
<circle cx="556" cy="233.7975263260414" r="3" fill="steelblue" />
<circle cx="595" cy="312.0793579531661" r="3" fill="steelblue" />
<circle cx="586" cy="292.0582801267547" r="3" fill="steelblue" />
<circle cx="547" cy="315.6952814192499" r="3" fill="steelblue" />
<circle cx="589" cy="302.3073189831182" r="3" fill="steelblue" />
<circle cx="571" cy="136.7455282727435" r="3" fill="steelblue" />
<circle cx="553" cy="308.5875596985951" r="3" fill="steelblue" />
<circle cx="559" cy="146.81966267888333" r="3" fill="steelblue" />
<circle cx="547" cy="288.52307501798884" r="3" fill="steelblue" />
<circle cx="568" cy="238.5030863201987" r="3" fill="steelblue" />
<circle cx="553" cy="292.80595162960276" r="3" fill="steelblue" />
<circle cx="571" cy="185.42029056046186" r="3" fill="steelblue" />
<circle cx="547" cy="294.62470091380385" r="3" fill="steelblue" />
<circle cx="559" cy="330.2162704386542" r="3" fill="steelblue" />
<circle cx="562" cy="270.2540020773572" r="3" fill="steelblue" />
<circle cx="565" cy="316.7057023608577" r="3" fill="steelblue" />
<circle cx="583" cy="286.5935224900979" r="3" fill="steelblue" />
<circle cx="565" cy="91.35227900521062" r="3" fill="steelblue" />
<circle cx="574" cy="319.71072006916324" r="3" fill="steelblue" />
<circle cx="541" cy="316.3954720871782" r="3" fill="steelblue" />
<circle cx="559" cy="299.2444965193513" r="3" fill="steelblue" />
<circle cx="547" cy="309.62083414173884" r="3" fill="steelblue" />
<circle cx="568" cy="251.55469692585805" r="3" fill="steelblue" />
<circle cx="604" cy="322.1107872036431" r="3" fill="steelblue" />
<circle cx="565" cy="289.69285530071767" r="3" fill="steelblue" />
<circle cx="559" cy="185.48381665325775" r="3" fill="steelblue" />
<circle cx="571" cy="288.12156997451723" r="3" fill="steelblue" />
<circle cx="565" cy="310.6752352456298" r="3" fill="steelblue" />
<circle cx="592" cy="317.3394584916563" r="3" fill="steelblue" />
<circle cx="574" cy="326.39645486210384" r="3" fill="steelblue" />
<circle cx="562" cy="220.0480438801597" r="3" fill="steelblue" />
<circle cx="565" cy="154.25666648779583" r="3" fill="steelblue" />
<circle cx="571" cy="266.7266779691072" r="3" fill="steelblue" />
<circle cx="529" cy="305.1944254929024" r="3" fill="steelblue" />
<circle cx="577" cy="267.62604477656134" r="3" fill="steelblue" />
<circle cx="562" cy="255.05453272263398" r="3" fill="steelblue" />
<circle cx="541" cy="310.26868557890225" r="3" fill="steelblue" />
<circle cx="574" cy="251.89690716638594" r="3" fill="steelblue" />
<circle cx="595" cy="330.9400494172619" r="3" fill="steelblue" />
<circle cx="532" cy="331.0003627300252" r="3" fill="steelblue" />
<circle cx="571" cy="95.23584894098542" r="3" fill="steelblue" />
<circle cx="544" cy="281.65008499320754" r="3" fill="steelblue" />
<circle cx="535" cy="304.88352917196323" r="3" fill="steelblue" />
<circle cx="592" cy="285.43351450258814" r="3" fill="steelblue" />
<circle cx="580" cy="320.2017090967316" r="3" fill="steelblue" />
<circle cx="571" cy="228.26549924994373" r="3" fill="steelblue" />
</svg>
